<svg width="72" height="72" viewBox="0 0 72 72" fill="none" xmlns="http://www.w3.org/2000/svg">
<mask id="mask0_637_5051" style="mask-type:alpha" maskUnits="userSpaceOnUse" x="0" y="0" width="72" height="72">
<circle cx="36" cy="36" r="36" fill="#D9D9D9"/>
</mask>
<g mask="url(#mask0_637_5051)">
<circle cx="36" cy="36" r="34" fill="#D9D9D9" stroke="#18A0FB" stroke-width="2"/>
<path d="M33.7167 52.1917C44.8066 52.1917 53.7967 43.2016 53.7967 32.1117C53.7967 21.0219 44.8066 12.0317 33.7167 12.0317C22.6268 12.0317 13.6367 21.0219 13.6367 32.1117C13.6367 43.2016 22.6268 52.1917 33.7167 52.1917Z" fill="#79756B"/>
<path d="M34.3566 50.7517C45.0598 50.7517 53.7366 42.075 53.7366 31.3717C53.7366 20.6684 45.0598 11.9917 34.3566 11.9917C23.6533 11.9917 14.9766 20.6684 14.9766 31.3717C14.9766 42.075 23.6533 50.7517 34.3566 50.7517Z" fill="#C2BEB7"/>
<path d="M34.3566 50.7517C45.0598 50.7517 53.7366 42.075 53.7366 31.3717C53.7366 20.6684 45.0598 11.9917 34.3566 11.9917C23.6533 11.9917 14.9766 20.6684 14.9766 31.3717C14.9766 42.075 23.6533 50.7517 34.3566 50.7517Z" fill="#C2BEB7"/>
<path d="M35.7072 50.7115C31.3402 51.0148 26.9991 49.8315 23.3901 47.3541C19.781 44.8767 17.1165 41.251 15.83 37.0668C14.5434 32.8826 14.7106 28.3862 16.3042 24.3091C17.8978 20.232 20.8242 16.8141 24.6072 14.6115V16.8915H26.8372V13.5315C28.7979 12.7021 30.8831 12.2053 33.0072 12.0615C35.4181 11.8921 37.8394 12.1736 40.1472 12.8915V15.9815H42.3872V13.7815C46.3166 15.5649 49.5389 18.6081 51.5438 22.4293C53.5487 26.2505 54.2217 30.6313 53.4561 34.8781C52.6905 39.1248 50.5302 42.9949 47.3172 45.8754C44.1042 48.756 40.0221 50.4825 35.7172 50.7815L35.7072 50.7115Z" fill="#C2BEB7"/>
<path d="M48.1628 39.9144C52.8878 32.2908 50.5381 22.2802 42.9145 17.5553C35.2909 12.8303 25.2803 15.1801 20.5553 22.8037C15.8304 30.4273 18.1801 40.4378 25.8037 45.1628C33.4273 49.8878 43.4378 47.538 48.1628 39.9144Z" fill="#79756B"/>
<path d="M34.4478 47.6017C42.6989 47.6017 49.3878 40.9128 49.3878 32.6617C49.3878 24.4105 42.6989 17.7217 34.4478 17.7217C26.1967 17.7217 19.5078 24.4105 19.5078 32.6617C19.5078 40.9128 26.1967 47.6017 34.4478 47.6017Z" fill="#C2BEB7"/>
<path d="M34.3377 22.6316L37.4177 27.9116C37.4701 28.0046 37.5454 28.0828 37.6363 28.1388C37.7273 28.1947 37.831 28.2267 37.9377 28.2316L44.0277 28.6916C44.1488 28.7023 44.2646 28.7464 44.3623 28.8188C44.4599 28.8912 44.5357 28.9892 44.5813 29.1019C44.6268 29.2147 44.6402 29.3378 44.6202 29.4577C44.6002 29.5777 44.5474 29.6897 44.4677 29.7816L40.3977 34.3416C40.3279 34.4211 40.2779 34.516 40.2518 34.6185C40.2257 34.7211 40.2243 34.8284 40.2477 34.9316L41.6977 40.8716C41.7275 40.9903 41.7233 41.115 41.6854 41.2314C41.6475 41.3478 41.5775 41.4511 41.4834 41.5295C41.3894 41.6078 41.2751 41.6581 41.1538 41.6744C41.0325 41.6906 40.9091 41.6723 40.7977 41.6216L35.2077 39.1616C35.1095 39.12 35.0028 39.1029 34.8965 39.1116C34.7903 39.1203 34.6878 39.1546 34.5977 39.2116L29.3977 42.4215C29.2942 42.4888 29.1737 42.5253 29.0503 42.5266C28.9269 42.528 28.8057 42.4941 28.7008 42.4291C28.5959 42.3641 28.5117 42.2705 28.4581 42.1594C28.4044 42.0482 28.3834 41.9241 28.3977 41.8016L29.0077 35.7216C29.0168 35.6152 29.0007 35.5081 28.9608 35.4091C28.9208 35.3101 28.8581 35.2218 28.7777 35.1516L24.1177 31.2015C24.0225 31.1238 23.9514 31.0207 23.9124 30.9042C23.8735 30.7876 23.8684 30.6625 23.8977 30.5431C23.927 30.4238 23.9895 30.3153 24.078 30.23C24.1665 30.1448 24.2773 30.0864 24.3977 30.0616L30.3977 28.7616C30.5017 28.7392 30.5987 28.6921 30.6805 28.6242C30.7624 28.5563 30.8266 28.4696 30.8677 28.3716L33.1777 22.7116C33.2268 22.6029 33.3044 22.5095 33.4023 22.4414C33.5002 22.3733 33.6148 22.333 33.7338 22.3248C33.8528 22.3166 33.9717 22.3408 34.0781 22.3948C34.1844 22.4488 34.2741 22.5306 34.3377 22.6316Z" fill="#9E9A90"/>
<path d="M40.7566 40.9318L35.1567 38.4718C35.0585 38.4302 34.9517 38.4131 34.8455 38.4218C34.7393 38.4305 34.6367 38.4648 34.5467 38.5218L33.2367 39.3318L29.3567 41.7318C29.2518 41.7957 29.1311 41.829 29.0083 41.8281C28.8855 41.8272 28.7654 41.792 28.6615 41.7265C28.5576 41.6611 28.474 41.5679 28.4202 41.4575C28.3663 41.3472 28.3443 41.224 28.3567 41.1018L28.4467 40.2218L28.7367 37.2718L28.9667 35.0218C28.9758 34.9168 28.9597 34.8113 28.9196 34.7138C28.8796 34.6164 28.8169 34.53 28.7367 34.4618L25.3967 31.6318L24.0767 30.5118C23.9815 30.434 23.9103 30.3309 23.8714 30.2144C23.8325 30.0979 23.8273 29.9727 23.8567 29.8533C23.886 29.734 23.9485 29.6255 24.037 29.5402C24.1255 29.455 24.2363 29.3966 24.3567 29.3718L27.9567 28.5818L30.3267 28.0718C30.431 28.0469 30.528 27.9977 30.6096 27.9282C30.6913 27.8586 30.7554 27.7708 30.7967 27.6718L32.7967 22.8718L33.1467 22.0218C33.2019 21.8848 33.3027 21.7712 33.4321 21.7001C33.5615 21.6291 33.7115 21.6049 33.8567 21.6318C33.9539 21.6427 34.0472 21.6765 34.1289 21.7303C34.2106 21.7842 34.2783 21.8567 34.3267 21.9418L37.3267 27.1018L37.3867 27.2118C37.44 27.3049 37.5152 27.3836 37.6058 27.4411C37.6964 27.4986 37.7997 27.5332 37.9067 27.5418L39.0666 27.6218L42.8667 27.9118L43.9967 27.9918C44.1197 28.0011 44.2376 28.0448 44.337 28.1178C44.4364 28.1908 44.5134 28.2902 44.5592 28.4047C44.605 28.5193 44.6179 28.6443 44.5962 28.7658C44.5745 28.8872 44.5193 29.0001 44.4367 29.0918L40.3667 33.6418C40.2963 33.7228 40.2467 33.8199 40.2223 33.9244C40.198 34.029 40.1994 34.1379 40.2267 34.2418L41.6667 40.1718C41.7004 40.2924 41.6987 40.4202 41.6616 40.5398C41.6244 40.6594 41.5536 40.7658 41.4574 40.846C41.3613 40.9263 41.244 40.9771 41.1197 40.9923C40.9954 41.0076 40.8693 40.9865 40.7566 40.9318Z" fill="#79756B"/>
<path d="M37.3072 27.0918L28.7072 37.2718L28.9372 35.0218C28.9463 34.9169 28.9302 34.8113 28.8902 34.7139C28.8502 34.6165 28.7874 34.53 28.7072 34.4618L25.3672 31.6318L27.9272 28.5818L30.2972 28.0718C30.4015 28.047 30.4985 27.9977 30.5802 27.9282C30.6619 27.8587 30.7259 27.7708 30.7672 27.6718L32.7672 22.8718L33.8272 21.6318C33.9244 21.6428 34.0177 21.6765 34.0994 21.7304C34.1811 21.7843 34.2489 21.8567 34.2972 21.9418L37.3072 27.0918Z" fill="#D9D9D9"/>
<path d="M42.8469 27.9116L33.2369 39.3316L29.3569 41.7316C29.252 41.7955 29.1313 41.8288 29.0085 41.8279C28.8857 41.827 28.7656 41.7918 28.6617 41.7263C28.5578 41.6609 28.4742 41.5677 28.4204 41.4573C28.3665 41.347 28.3445 41.2238 28.3569 41.1016L28.4469 40.2216L39.0469 27.6216L42.8469 27.9116Z" fill="#D9D9D9"/>
<path d="M44.7076 15.002L42.7676 17.502C43.7283 18.0732 44.6265 18.7435 45.4476 19.502L47.4076 17.0919L44.7076 15.002Z" fill="#D9D9D9"/>
<path d="M26.347 45.4817L24.347 47.9917C23.3824 47.4075 22.4721 46.7382 21.627 45.9917L23.5569 43.5117C24.4145 44.2655 25.3497 44.9258 26.347 45.4817V45.4817Z" fill="#D9D9D9"/>
<path d="M35.4166 12.0117L32.6066 15.2317C32.8066 15.2317 33.0166 15.2317 33.2166 15.1717C35.5389 15.0041 37.8698 15.3454 40.0466 16.1717L42.1666 13.6417C40.0347 12.6916 37.7471 12.1392 35.4166 12.0117V12.0117ZM18.2966 33.7717L15.7266 36.7717C16.3582 38.954 17.3741 41.0062 18.7266 42.8317L20.8266 40.3317C19.5158 38.3553 18.6523 36.1165 18.2966 33.7717V33.7717Z" fill="#C2BEB7"/>
<path d="M42.1674 13.632L40.0474 16.162C37.8706 15.3356 35.5397 14.9944 33.2174 15.162C33.0174 15.162 32.8074 15.162 32.6074 15.222L35.4174 12.002C37.748 12.1294 40.0356 12.6818 42.1674 13.632V13.632Z" fill="#D9D9D9"/>
<path d="M20.7875 40.2914L18.6875 42.7914C17.335 40.9659 16.3191 38.9138 15.6875 36.7314L18.2575 33.7314C18.6132 36.0762 19.4767 38.315 20.7875 40.2914V40.2914Z" fill="#D9D9D9"/>
<path d="M51.3371 37.432C51.917 37.432 52.3871 36.9619 52.3871 36.382C52.3871 35.8021 51.917 35.332 51.3371 35.332C50.7572 35.332 50.2871 35.8021 50.2871 36.382C50.2871 36.9619 50.7572 37.432 51.3371 37.432Z" fill="#D8D6CF"/>
<path d="M16.5697 54.9762C24.0095 54.9762 30.0407 48.945 30.0407 41.5052C30.0407 34.0654 24.0095 28.0342 16.5697 28.0342C9.12982 28.0342 3.09863 34.0654 3.09863 41.5052C3.09863 48.945 9.12982 54.9762 16.5697 54.9762Z" fill="#79756B"/>
<path d="M16.9985 54.0097C24.179 54.0097 29.9999 48.1887 29.9999 41.0083C29.9999 33.8278 24.179 28.0068 16.9985 28.0068C9.818 28.0068 3.99707 33.8278 3.99707 41.0083C3.99707 48.1887 9.818 54.0097 16.9985 54.0097Z" fill="#C2BEB7"/>
<path d="M16.9985 54.0097C24.179 54.0097 29.9999 48.1887 29.9999 41.0083C29.9999 33.8278 24.179 28.0068 16.9985 28.0068C9.818 28.0068 3.99707 33.8278 3.99707 41.0083C3.99707 48.1887 9.818 54.0097 16.9985 54.0097Z" fill="#C2BEB7"/>
<path d="M17.9046 53.9831C14.9749 54.1866 12.0626 53.3927 9.64142 51.7307C7.22025 50.0687 5.43271 47.6363 4.5696 44.8293C3.7065 42.0223 3.81864 39.0058 4.88776 36.2706C5.95688 33.5354 7.92008 31.2424 10.458 29.7647V31.2943H11.954V29.0402C13.2694 28.4838 14.6683 28.1505 16.0932 28.054C17.7106 27.9404 19.335 28.1293 20.8832 28.6109V30.6839H22.386V29.2079C25.0221 30.4044 27.1839 32.446 28.5289 35.0095C29.8739 37.573 30.3254 40.5119 29.8118 43.361C29.2982 46.21 27.8489 48.8063 25.6934 50.7387C23.5378 52.6712 20.7993 53.8295 17.9113 54.03L17.9046 53.9831Z" fill="#C2BEB7"/>
<path d="M26.2605 46.7395C29.4303 41.6251 27.8539 34.9094 22.7395 31.7395C17.6251 28.5697 10.9094 30.1461 7.73951 35.2605C4.56966 40.3749 6.14606 47.0907 11.2605 50.2605C16.3749 53.4303 23.0906 51.854 26.2605 46.7395Z" fill="#79756B"/>
<path d="M17.0589 51.8966C22.5943 51.8966 27.0817 47.4093 27.0817 41.8738C27.0817 36.3384 22.5943 31.8511 17.0589 31.8511C11.5235 31.8511 7.03613 36.3384 7.03613 41.8738C7.03613 47.4093 11.5235 51.8966 17.0589 51.8966Z" fill="#C2BEB7"/>
<path d="M16.9852 35.1453L19.0515 38.6875C19.0867 38.7499 19.1371 38.8024 19.1982 38.8399C19.2592 38.8775 19.3288 38.8989 19.4003 38.9022L23.4859 39.2108C23.5672 39.218 23.6448 39.2475 23.7104 39.2961C23.7759 39.3447 23.8268 39.4104 23.8573 39.4861C23.8878 39.5617 23.8969 39.6443 23.8834 39.7248C23.87 39.8052 23.8346 39.8804 23.7811 39.942L21.0507 43.0012C21.0038 43.0545 20.9703 43.1182 20.9528 43.187C20.9353 43.2558 20.9344 43.3278 20.95 43.397L21.9228 47.3819C21.9428 47.4616 21.94 47.5453 21.9145 47.6233C21.8891 47.7014 21.8422 47.7707 21.7791 47.8233C21.716 47.8759 21.6393 47.9096 21.5579 47.9205C21.4765 47.9314 21.3937 47.9192 21.319 47.8851L17.5689 46.2348C17.503 46.2069 17.4314 46.1954 17.3601 46.2012C17.2889 46.2071 17.2201 46.2301 17.1596 46.2683L13.6711 48.4218C13.6017 48.4669 13.5209 48.4914 13.4381 48.4923C13.3553 48.4932 13.274 48.4705 13.2036 48.4268C13.1333 48.3832 13.0768 48.3204 13.0408 48.2459C13.0047 48.1713 12.9907 48.0881 13.0003 48.0058L13.4095 43.927C13.4156 43.8556 13.4048 43.7838 13.378 43.7174C13.3512 43.6509 13.3091 43.5917 13.2552 43.5446L10.1289 40.8946C10.0651 40.8425 10.0174 40.7733 9.99124 40.6952C9.96512 40.617 9.96167 40.533 9.98133 40.4529C10.001 40.3729 10.043 40.3001 10.1023 40.2429C10.1617 40.1857 10.2361 40.1465 10.3168 40.1299L14.342 39.2577C14.4117 39.2428 14.4768 39.2111 14.5317 39.1656C14.5866 39.12 14.6297 39.0619 14.6573 38.9961L16.207 35.199C16.2399 35.1261 16.292 35.0634 16.3577 35.0177C16.4234 34.972 16.5002 34.945 16.5801 34.9395C16.6599 34.934 16.7397 34.9502 16.811 34.9865C16.8824 35.0227 16.9426 35.0776 16.9852 35.1453Z" fill="#9E9A90"/>
<path d="M21.2926 47.4217L17.5358 45.7714C17.4699 45.7435 17.3983 45.732 17.327 45.7378C17.2558 45.7437 17.187 45.7667 17.1265 45.8049L16.2477 46.3483L13.6447 47.9584C13.5744 48.0013 13.4934 48.0236 13.4111 48.023C13.3287 48.0224 13.2481 47.9988 13.1784 47.9549C13.1087 47.911 13.0526 47.8485 13.0165 47.7744C12.9804 47.7004 12.9656 47.6177 12.9739 47.5358L13.0343 46.9454L13.2288 44.9663L13.3831 43.4569C13.3892 43.3865 13.3784 43.3157 13.3516 43.2503C13.3247 43.1849 13.2826 43.127 13.2288 43.0812L10.9881 41.1826L10.1026 40.4313C10.0387 40.3791 9.99098 40.3099 9.96486 40.2318C9.93874 40.1536 9.93531 40.0696 9.95497 39.9895C9.97463 39.9095 10.0166 39.8367 10.0759 39.7795C10.1353 39.7223 10.2097 39.6831 10.2904 39.6665L12.7055 39.1365L14.2955 38.7944C14.3655 38.7777 14.4305 38.7446 14.4853 38.698C14.5401 38.6514 14.5831 38.5924 14.6108 38.526L15.9525 35.3058L16.1873 34.7356C16.2244 34.6437 16.292 34.5675 16.3788 34.5198C16.4656 34.4721 16.5663 34.4559 16.6636 34.474C16.7289 34.4813 16.7915 34.5039 16.8463 34.5401C16.9011 34.5762 16.9465 34.6248 16.979 34.6819L18.9916 38.1436L19.0318 38.2174C19.0676 38.2799 19.118 38.3327 19.1788 38.3713C19.2396 38.4099 19.3089 38.433 19.3807 38.4388L20.1589 38.4925L22.7082 38.687L23.4663 38.7407C23.5488 38.747 23.6279 38.7763 23.6946 38.8252C23.7613 38.8742 23.8129 38.9409 23.8437 39.0177C23.8744 39.0946 23.883 39.1785 23.8685 39.2599C23.8539 39.3414 23.8168 39.4172 23.7614 39.4786L21.031 42.5311C20.9838 42.5855 20.9506 42.6506 20.9342 42.7207C20.9178 42.7909 20.9188 42.8639 20.9371 42.9336L21.9031 46.9118C21.9258 46.9927 21.9246 47.0785 21.8997 47.1587C21.8748 47.239 21.8273 47.3103 21.7628 47.3642C21.6983 47.4181 21.6196 47.4521 21.5362 47.4623C21.4528 47.4725 21.3682 47.4584 21.2926 47.4217Z" fill="#79756B"/>
<path d="M18.9779 38.1371L13.2085 44.9665L13.3628 43.457C13.3689 43.3866 13.3581 43.3158 13.3312 43.2505C13.3044 43.1851 13.2623 43.1271 13.2085 43.0813L10.9678 41.1828L12.6852 39.1366L14.2751 38.7945C14.3451 38.7778 14.4102 38.7448 14.465 38.6982C14.5198 38.6515 14.5628 38.5926 14.5905 38.5261L15.9322 35.306L16.6433 34.4741C16.7085 34.4814 16.7711 34.5041 16.8259 34.5402C16.8807 34.5764 16.9262 34.625 16.9586 34.6821L18.9779 38.1371Z" fill="#D9D9D9"/>
<path d="M22.6948 38.6872L16.2478 46.3485L13.6448 47.9586C13.5744 48.0015 13.4935 48.0239 13.4111 48.0232C13.3287 48.0226 13.2482 47.999 13.1784 47.9551C13.1087 47.9112 13.0527 47.8487 13.0165 47.7746C12.9804 47.7006 12.9656 47.618 12.9739 47.536L13.0343 46.9456L20.1455 38.4927L22.6948 38.6872Z" fill="#D9D9D9"/>
<path d="M23.9421 30.0264L22.6406 31.7035C23.2852 32.0868 23.8877 32.5365 24.4385 33.0453L25.7535 31.4285L23.9421 30.0264Z" fill="#D9D9D9"/>
<path d="M11.6255 50.4744L10.2837 52.1583C9.63668 51.7664 9.02599 51.3174 8.45898 50.8166L9.75375 49.1528C10.329 49.6585 10.9565 50.1015 11.6255 50.4744V50.4744Z" fill="#D9D9D9"/>
<path d="M17.7094 28.0205L15.8242 30.1807C15.9584 30.1807 16.0993 30.1807 16.2335 30.1404C17.7915 30.028 19.3552 30.2569 20.8155 30.8113L22.2377 29.114C20.8075 28.4766 19.2729 28.106 17.7094 28.0205V28.0205ZM6.22413 42.6186L4.5 44.6312C4.92374 46.0952 5.60528 47.472 6.5126 48.6966L7.92143 47.0195C7.04206 45.6935 6.4628 44.1916 6.22413 42.6186V42.6186Z" fill="#C2BEB7"/>
<path d="M22.2387 29.1072L20.8165 30.8045C19.3561 30.2501 17.7924 30.0212 16.2344 30.1336C16.1003 30.1336 15.9594 30.1336 15.8252 30.1739L17.7103 28.0137C19.2738 28.0992 20.8085 28.4698 22.2387 29.1072V29.1072Z" fill="#D9D9D9"/>
<path d="M7.89504 46.9927L6.48624 48.6699C5.57892 47.4452 4.89737 46.0685 4.47363 44.6044L6.19775 42.5918C6.43641 44.1648 7.01567 45.6668 7.89504 46.9927V46.9927Z" fill="#D9D9D9"/>
<path d="M28.39 45.0739C28.779 45.0739 29.0944 44.7585 29.0944 44.3694C29.0944 43.9804 28.779 43.665 28.39 43.665C28.0009 43.665 27.6855 43.9804 27.6855 44.3694C27.6855 44.7585 28.0009 45.0739 28.39 45.0739Z" fill="#D8D6CF"/>
<path d="M54.5697 54.9762C62.0095 54.9762 68.0407 48.945 68.0407 41.5052C68.0407 34.0654 62.0095 28.0342 54.5697 28.0342C47.1298 28.0342 41.0986 34.0654 41.0986 41.5052C41.0986 48.945 47.1298 54.9762 54.5697 54.9762Z" fill="#79756B"/>
<path d="M54.9985 54.0097C62.179 54.0097 67.9999 48.1887 67.9999 41.0083C67.9999 33.8278 62.179 28.0068 54.9985 28.0068C47.818 28.0068 41.9971 33.8278 41.9971 41.0083C41.9971 48.1887 47.818 54.0097 54.9985 54.0097Z" fill="#C2BEB7"/>
<path d="M54.9985 54.0097C62.179 54.0097 67.9999 48.1887 67.9999 41.0083C67.9999 33.8278 62.179 28.0068 54.9985 28.0068C47.818 28.0068 41.9971 33.8278 41.9971 41.0083C41.9971 48.1887 47.818 54.0097 54.9985 54.0097Z" fill="#C2BEB7"/>
<path d="M55.9046 53.9831C52.9749 54.1866 50.0626 53.3927 47.6414 51.7307C45.2203 50.0687 43.4327 47.6363 42.5696 44.8293C41.7065 42.0223 41.8186 39.0058 42.8878 36.2706C43.9569 33.5354 45.9201 31.2424 48.458 29.7647V31.2943H49.954V29.0402C51.2694 28.4838 52.6683 28.1505 54.0932 28.054C55.7106 27.9404 57.335 28.1293 58.8832 28.6109V30.6839H60.386V29.2079C63.0221 30.4044 65.1839 32.446 66.5289 35.0095C67.8739 37.573 68.3254 40.5119 67.8118 43.361C67.2982 46.21 65.8489 48.8063 63.6934 50.7387C61.5378 52.6712 58.7993 53.8295 55.9113 54.03L55.9046 53.9831Z" fill="#C2BEB7"/>
<path d="M64.2605 46.7395C67.4303 41.6251 65.8539 34.9094 60.7395 31.7395C55.6251 28.5697 48.9094 30.1461 45.7395 35.2605C42.5697 40.3749 44.1461 47.0907 49.2605 50.2605C54.3749 53.4303 61.0906 51.854 64.2605 46.7395Z" fill="#79756B"/>
<path d="M55.0589 51.8966C60.5943 51.8966 65.0817 47.4093 65.0817 41.8738C65.0817 36.3384 60.5943 31.8511 55.0589 31.8511C49.5235 31.8511 45.0361 36.3384 45.0361 41.8738C45.0361 47.4093 49.5235 51.8966 55.0589 51.8966Z" fill="#C2BEB7"/>
<path d="M54.9852 35.1453L57.0515 38.6875C57.0867 38.7499 57.1371 38.8024 57.1982 38.8399C57.2592 38.8775 57.3288 38.8989 57.4003 38.9022L61.4859 39.2108C61.5672 39.218 61.6448 39.2475 61.7104 39.2961C61.7759 39.3447 61.8268 39.4104 61.8573 39.4861C61.8878 39.5617 61.8969 39.6443 61.8834 39.7248C61.87 39.8052 61.8346 39.8804 61.7811 39.942L59.0507 43.0012C59.0038 43.0545 58.9703 43.1182 58.9528 43.187C58.9353 43.2558 58.9344 43.3278 58.95 43.397L59.9228 47.3819C59.9428 47.4616 59.94 47.5453 59.9145 47.6233C59.8891 47.7014 59.8422 47.7707 59.7791 47.8233C59.716 47.8759 59.6393 47.9096 59.5579 47.9205C59.4765 47.9314 59.3937 47.9192 59.319 47.8851L55.5689 46.2348C55.503 46.2069 55.4314 46.1954 55.3601 46.2012C55.2889 46.2071 55.2201 46.2301 55.1596 46.2683L51.6711 48.4218C51.6017 48.4669 51.5209 48.4914 51.4381 48.4923C51.3553 48.4932 51.274 48.4705 51.2036 48.4268C51.1333 48.3832 51.0768 48.3204 51.0408 48.2459C51.0047 48.1713 50.9907 48.0881 51.0003 48.0058L51.4095 43.927C51.4156 43.8556 51.4048 43.7838 51.378 43.7174C51.3512 43.6509 51.3091 43.5917 51.2552 43.5446L48.1289 40.8946C48.0651 40.8425 48.0174 40.7733 47.9912 40.6952C47.9651 40.617 47.9617 40.533 47.9813 40.4529C48.001 40.3729 48.043 40.3001 48.1023 40.2429C48.1617 40.1857 48.2361 40.1465 48.3168 40.1299L52.342 39.2577C52.4117 39.2428 52.4768 39.2111 52.5317 39.1656C52.5866 39.12 52.6297 39.0619 52.6573 38.9961L54.207 35.199C54.2399 35.1261 54.292 35.0634 54.3577 35.0177C54.4234 34.972 54.5002 34.945 54.5801 34.9395C54.6599 34.934 54.7397 34.9502 54.811 34.9865C54.8824 35.0227 54.9426 35.0776 54.9852 35.1453Z" fill="#9E9A90"/>
<path d="M59.2926 47.4217L55.5358 45.7714C55.4699 45.7435 55.3983 45.732 55.327 45.7378C55.2558 45.7437 55.187 45.7667 55.1265 45.8049L54.2477 46.3483L51.6447 47.9584C51.5744 48.0013 51.4934 48.0236 51.4111 48.023C51.3287 48.0224 51.2481 47.9988 51.1784 47.9549C51.1087 47.911 51.0526 47.8485 51.0165 47.7744C50.9804 47.7004 50.9656 47.6177 50.9739 47.5358L51.0343 46.9454L51.2288 44.9663L51.3831 43.4569C51.3892 43.3865 51.3784 43.3157 51.3516 43.2503C51.3247 43.1849 51.2826 43.127 51.2288 43.0812L48.9881 41.1826L48.1026 40.4313C48.0387 40.3791 47.991 40.3099 47.9649 40.2318C47.9387 40.1536 47.9353 40.0696 47.955 39.9895C47.9746 39.9095 48.0166 39.8367 48.0759 39.7795C48.1353 39.7223 48.2097 39.6831 48.2904 39.6665L50.7055 39.1365L52.2955 38.7944C52.3655 38.7777 52.4305 38.7446 52.4853 38.698C52.5401 38.6514 52.5831 38.5924 52.6108 38.526L53.9525 35.3058L54.1873 34.7356C54.2244 34.6437 54.292 34.5675 54.3788 34.5198C54.4656 34.4721 54.5663 34.4559 54.6636 34.474C54.7289 34.4813 54.7915 34.5039 54.8463 34.5401C54.9011 34.5762 54.9465 34.6248 54.979 34.6819L56.9916 38.1436L57.0318 38.2174C57.0676 38.2799 57.118 38.3327 57.1788 38.3713C57.2396 38.4099 57.3089 38.433 57.3807 38.4388L58.1589 38.4925L60.7082 38.687L61.4663 38.7407C61.5488 38.747 61.6279 38.7763 61.6946 38.8252C61.7613 38.8742 61.8129 38.9409 61.8437 39.0177C61.8744 39.0946 61.883 39.1785 61.8685 39.2599C61.8539 39.3414 61.8168 39.4172 61.7614 39.4786L59.031 42.5311C58.9838 42.5855 58.9506 42.6506 58.9342 42.7207C58.9178 42.7909 58.9188 42.8639 58.9371 42.9336L59.9031 46.9118C59.9258 46.9927 59.9246 47.0785 59.8997 47.1587C59.8748 47.239 59.8273 47.3103 59.7628 47.3642C59.6983 47.4181 59.6196 47.4521 59.5362 47.4623C59.4528 47.4725 59.3682 47.4584 59.2926 47.4217Z" fill="#79756B"/>
<path d="M56.9779 38.1371L51.2085 44.9665L51.3628 43.457C51.3689 43.3866 51.3581 43.3158 51.3312 43.2505C51.3044 43.1851 51.2623 43.1271 51.2085 43.0813L48.9678 41.1828L50.6852 39.1366L52.2751 38.7945C52.3451 38.7778 52.4102 38.7448 52.465 38.6982C52.5198 38.6515 52.5628 38.5926 52.5905 38.5261L53.9322 35.306L54.6433 34.4741C54.7085 34.4814 54.7711 34.5041 54.8259 34.5402C54.8807 34.5764 54.9262 34.625 54.9586 34.6821L56.9779 38.1371Z" fill="#D9D9D9"/>
<path d="M60.6948 38.6872L54.2478 46.3485L51.6448 47.9586C51.5744 48.0015 51.4935 48.0239 51.4111 48.0232C51.3287 48.0226 51.2482 47.999 51.1784 47.9551C51.1087 47.9112 51.0527 47.8487 51.0165 47.7746C50.9804 47.7006 50.9656 47.618 50.9739 47.536L51.0343 46.9456L58.1455 38.4927L60.6948 38.6872Z" fill="#D9D9D9"/>
<path d="M61.9421 30.0264L60.6406 31.7035C61.2852 32.0868 61.8877 32.5365 62.4385 33.0453L63.7535 31.4285L61.9421 30.0264Z" fill="#D9D9D9"/>
<path d="M49.6255 50.4744L48.2837 52.1583C47.6367 51.7664 47.026 51.3174 46.459 50.8166L47.7538 49.1528C48.329 49.6585 48.9565 50.1015 49.6255 50.4744V50.4744Z" fill="#D9D9D9"/>
<path d="M55.7094 28.0205L53.8242 30.1807C53.9584 30.1807 54.0993 30.1807 54.2335 30.1404C55.7915 30.028 57.3552 30.2569 58.8155 30.8113L60.2377 29.114C58.8075 28.4766 57.2729 28.106 55.7094 28.0205V28.0205ZM44.2241 42.6186L42.5 44.6312C42.9237 46.0952 43.6053 47.472 44.5126 48.6966L45.9214 47.0195C45.0421 45.6935 44.4628 44.1916 44.2241 42.6186V42.6186Z" fill="#C2BEB7"/>
<path d="M60.2387 29.1072L58.8165 30.8045C57.3561 30.2501 55.7924 30.0212 54.2344 30.1336C54.1003 30.1336 53.9594 30.1336 53.8252 30.1739L55.7103 28.0137C57.2738 28.0992 58.8085 28.4698 60.2387 29.1072V29.1072Z" fill="#D9D9D9"/>
<path d="M45.895 46.9927L44.4862 48.6699C43.5789 47.4452 42.8974 46.0685 42.4736 44.6044L44.1977 42.5918C44.4364 44.1648 45.0157 45.6668 45.895 46.9927V46.9927Z" fill="#D9D9D9"/>
<path d="M66.39 45.0739C66.779 45.0739 67.0944 44.7585 67.0944 44.3694C67.0944 43.9804 66.779 43.665 66.39 43.665C66.0009 43.665 65.6855 43.9804 65.6855 44.3694C65.6855 44.7585 66.0009 45.0739 66.39 45.0739Z" fill="#D8D6CF"/>
</g>
</svg>
