<svg width="192" height="190" viewBox="0 0 192 190" fill="none" xmlns="http://www.w3.org/2000/svg">
<mask id="mask0_637_6286" style="mask-type:alpha" maskUnits="userSpaceOnUse" x="0" y="0" width="192" height="190">
<rect width="192" height="190" fill="#D9D9D9"/>
</mask>
<g mask="url(#mask0_637_6286)">
<path d="M93.6968 144.413C123.052 144.413 146.85 120.615 146.85 91.2597C146.85 61.904 123.052 38.1066 93.6968 38.1066C64.3412 38.1066 40.5437 61.904 40.5437 91.2597C40.5437 120.615 64.3412 144.413 93.6968 144.413Z" fill="#FF9B50"/>
<path d="M95.3919 140.6C123.724 140.6 146.692 117.632 146.692 89.3001C146.692 60.9679 123.724 38 95.3919 38C67.0596 38 44.0918 60.9679 44.0918 89.3001C44.0918 117.632 67.0596 140.6 95.3919 140.6Z" fill="#C95506"/>
<path d="M95.3919 140.6C123.724 140.6 146.692 117.632 146.692 89.3001C146.692 60.9679 123.724 38 95.3919 38C67.0596 38 44.0918 60.9679 44.0918 89.3001C44.0918 117.632 67.0596 140.6 95.3919 140.6Z" fill="#DA7C3C"/>
<path d="M131.935 111.913C144.443 91.7332 138.223 65.2347 118.043 52.7273C97.8624 40.22 71.3639 46.4401 58.8565 66.6203C46.3492 86.8004 52.5692 113.299 72.7494 125.806C92.9295 138.314 119.428 132.094 131.935 111.913Z" fill="#FF9B50"/>
<path d="M95.6311 132.262C117.472 132.262 135.178 114.556 135.178 92.7151C135.178 70.8738 117.472 53.168 95.6311 53.168C73.7899 53.168 56.084 70.8738 56.084 92.7151C56.084 114.556 73.7899 132.262 95.6311 132.262Z" fill="#C95506"/>
<path d="M95.3384 66.1663L103.491 80.1428C103.63 80.3891 103.829 80.596 104.07 80.7442C104.311 80.8924 104.585 80.9769 104.868 80.9898L120.988 82.2075C121.309 82.236 121.616 82.3525 121.874 82.5442C122.133 82.7359 122.333 82.9952 122.454 83.2937C122.574 83.5921 122.61 83.9181 122.557 84.2356C122.504 84.5531 122.364 84.8497 122.153 85.0928L111.38 97.1634C111.195 97.3739 111.062 97.6251 110.993 97.8966C110.924 98.168 110.921 98.452 110.983 98.7251L114.821 114.449C114.9 114.763 114.889 115.093 114.788 115.401C114.688 115.709 114.503 115.983 114.254 116.19C114.005 116.398 113.702 116.531 113.381 116.574C113.06 116.617 112.733 116.568 112.438 116.434L97.6413 109.922C97.3815 109.812 97.0989 109.767 96.8177 109.79C96.5365 109.813 96.2651 109.904 96.0267 110.055L82.2619 118.552C81.988 118.73 81.6691 118.826 81.3424 118.83C81.0158 118.833 80.6949 118.744 80.4172 118.572C80.1396 118.399 79.9167 118.152 79.7746 117.858C79.6325 117.563 79.5771 117.235 79.6148 116.91L81.2295 100.816C81.2536 100.535 81.2111 100.251 81.1053 99.9892C80.9996 99.7271 80.8336 99.4935 80.6207 99.3075L68.2854 88.8516C68.0335 88.6458 67.8451 88.3729 67.7421 88.0644C67.639 87.7559 67.6254 87.4245 67.703 87.1087C67.7805 86.7928 67.9461 86.5055 68.1804 86.2799C68.4146 86.0542 68.708 85.8996 69.0266 85.8339L84.909 82.3928C85.1842 82.3337 85.441 82.2089 85.6577 82.0291C85.8743 81.8494 86.0442 81.62 86.1531 81.3604L92.2678 66.378C92.3978 66.0903 92.6033 65.8431 92.8624 65.6628C93.1216 65.4826 93.4248 65.376 93.7398 65.3542C94.0548 65.3325 94.3697 65.3965 94.6512 65.5395C94.9327 65.6825 95.1702 65.8991 95.3384 66.1663Z" fill="#DA7C3C"/>
<path d="M112.333 114.606L97.5094 108.095C97.2496 107.985 96.967 107.939 96.6858 107.962C96.4046 107.985 96.1331 108.076 95.8947 108.227L92.427 110.371L82.1564 116.724C81.8787 116.893 81.5594 116.981 81.2343 116.979C80.9093 116.977 80.5914 116.883 80.3163 116.71C80.0413 116.537 79.82 116.29 79.6774 115.998C79.5349 115.706 79.4766 115.38 79.5093 115.056L79.7475 112.727L80.5152 104.918L81.1241 98.9622C81.1482 98.6845 81.1055 98.405 80.9996 98.1471C80.8937 97.8892 80.7276 97.6604 80.5152 97.4798L68.1799 87.024C67.928 86.8182 67.7396 86.5452 67.6365 86.2368C67.5335 85.9283 67.5199 85.5969 67.5975 85.281C67.6751 84.9652 67.8406 84.6778 68.0749 84.4522C68.3091 84.2266 68.6025 84.072 68.9211 84.0063L78.4505 81.9151L84.724 80.5651C85.0002 80.4993 85.2569 80.369 85.4731 80.185C85.6894 80.001 85.859 79.7683 85.9682 79.5062L91.2623 66.8004L92.1888 64.5503C92.3349 64.1879 92.6018 63.8871 92.9443 63.699C93.2869 63.5108 93.6839 63.4469 94.0682 63.518C94.3256 63.5469 94.5725 63.6363 94.7888 63.779C95.005 63.9216 95.1844 64.1134 95.3123 64.3386L103.254 77.9975L103.412 78.2886C103.553 78.5352 103.753 78.7436 103.992 78.8958C104.232 79.048 104.506 79.1395 104.789 79.1622L107.859 79.3739L117.918 80.1416L120.909 80.3533C121.235 80.3782 121.547 80.4937 121.81 80.687C122.074 80.8802 122.277 81.1433 122.399 81.4465C122.52 81.7496 122.554 82.0808 122.496 82.4022C122.439 82.7236 122.293 83.0226 122.074 83.2651L111.301 95.3092C111.114 95.5239 110.983 95.7807 110.919 96.0575C110.854 96.3343 110.858 96.6226 110.93 96.8975L114.742 112.595C114.831 112.914 114.827 113.252 114.728 113.569C114.63 113.885 114.442 114.167 114.188 114.379C113.933 114.592 113.623 114.726 113.294 114.767C112.965 114.807 112.631 114.751 112.333 114.606Z" fill="#FF9B50"/>
<path d="M103.201 77.9712L80.4367 104.918L81.0455 98.9624C81.0697 98.6846 81.027 98.4052 80.921 98.1473C80.8151 97.8894 80.6491 97.6606 80.4367 97.48L71.5955 89.9889L78.372 81.9153L84.6455 80.5653C84.9217 80.4995 85.1784 80.3692 85.3946 80.1852C85.6108 80.0011 85.7804 79.7685 85.8896 79.5064L91.1837 66.8005L93.9896 63.5182C94.2471 63.5471 94.494 63.6365 94.7102 63.7791C94.9264 63.9218 95.1058 64.1135 95.2337 64.3388L103.201 77.9712Z" fill="#FFB448"/>
<path d="M117.866 80.1411L92.427 110.371L82.1564 116.724C81.8787 116.893 81.5594 116.981 81.2343 116.979C80.9093 116.977 80.5914 116.883 80.3163 116.71C80.0413 116.537 79.82 116.29 79.6774 115.998C79.5349 115.706 79.4766 115.38 79.5093 115.056L79.7475 112.727L107.807 79.3735L117.866 80.1411Z" fill="#FFB448"/>
<path d="M122.789 45.9688L117.653 52.5864C120.196 54.0985 122.574 55.8729 124.747 57.8806L129.936 51.5011L122.789 45.9688Z" fill="#FFB448"/>
<path d="M74.1895 126.651L68.8953 133.296C66.3422 131.749 63.9326 129.977 61.6953 128.001L66.8041 121.437C69.074 123.432 71.5498 125.18 74.1895 126.651Z" fill="#FFB448"/>
<path d="M98.1969 38.054L90.7587 46.5775C91.2881 46.5775 91.844 46.5774 92.3734 46.4186C98.5207 45.975 104.691 46.8784 110.453 49.0657L116.065 42.3686C110.421 39.8535 104.366 38.3913 98.1969 38.054ZM52.8792 95.654L46.0762 103.595C47.7481 109.372 50.4373 114.804 54.0174 119.636L59.5762 113.019C56.1064 107.787 53.8209 101.861 52.8792 95.654Z" fill="#C95506"/>
<path d="M116.066 42.3416L110.454 49.0387C104.692 46.8513 98.5218 45.948 92.3745 46.3916C91.8451 46.3916 91.2892 46.3916 90.7598 46.5504L98.198 38.0269C104.367 38.3642 110.423 39.8265 116.066 42.3416Z" fill="#FFB448"/>
<path d="M59.4706 112.912L53.9118 119.53C50.3317 114.697 47.6425 109.265 45.9706 103.489L52.7735 95.5473C53.7152 101.754 56.0008 107.68 59.4706 112.912Z" fill="#FFB448"/>
<path d="M140.339 105.342C141.874 105.342 143.119 104.098 143.119 102.563C143.119 101.028 141.874 99.7835 140.339 99.7835C138.804 99.7835 137.56 101.028 137.56 102.563C137.56 104.098 138.804 105.342 140.339 105.342Z" fill="#FFF4CD"/>
<path d="M45.6587 151.783C65.3524 151.783 81.3174 135.818 81.3174 116.124C81.3174 96.4305 65.3524 80.4656 45.6587 80.4656C25.9649 80.4656 10 96.4305 10 116.124C10 135.818 25.9649 151.783 45.6587 151.783Z" fill="#FF9B50"/>
<path d="M46.7935 149.225C65.8007 149.225 81.2091 133.817 81.2091 114.81C81.2091 95.8024 65.8007 80.394 46.7935 80.394C27.7863 80.394 12.3779 95.8024 12.3779 114.81C12.3779 133.817 27.7863 149.225 46.7935 149.225Z" fill="#C95506"/>
<path d="M46.7935 149.225C65.8007 149.225 81.2091 133.817 81.2091 114.81C81.2091 95.8024 65.8007 80.394 46.7935 80.394C27.7863 80.394 12.3779 95.8024 12.3779 114.81C12.3779 133.817 27.7863 149.225 46.7935 149.225Z" fill="#DA7C3C"/>
<path d="M71.3109 129.981C79.7017 116.443 75.5289 98.6657 61.9906 90.2749C48.4524 81.8842 30.6754 86.057 22.2846 99.5952C13.8939 113.133 18.0667 130.91 31.6049 139.301C45.1431 147.692 62.9201 143.519 71.3109 129.981Z" fill="#FF9B50"/>
<path d="M46.9549 143.632C61.6075 143.632 73.4858 131.754 73.4858 117.101C73.4858 102.448 61.6075 90.57 46.9549 90.57C32.3023 90.57 20.424 102.448 20.424 117.101C20.424 131.754 32.3023 143.632 46.9549 143.632Z" fill="#C95506"/>
<path d="M46.7596 99.2887L52.2291 108.665C52.3222 108.83 52.4559 108.969 52.6174 109.069C52.7789 109.168 52.9631 109.225 53.1526 109.233L63.9674 110.05C64.1824 110.069 64.388 110.148 64.5615 110.276C64.735 110.405 64.8696 110.579 64.9504 110.779C65.0312 110.979 65.0551 111.198 65.0195 111.411C64.984 111.624 64.8903 111.823 64.7487 111.986L57.5211 120.084C57.3971 120.225 57.3083 120.393 57.262 120.576C57.2157 120.758 57.2132 120.948 57.2547 121.131L59.8296 131.68C59.8827 131.891 59.8751 132.112 59.8078 132.319C59.7405 132.526 59.6162 132.709 59.4492 132.848C59.2822 132.987 59.0793 133.077 58.8639 133.106C58.6484 133.134 58.4292 133.102 58.2314 133.012L48.3045 128.643C48.1302 128.569 47.9406 128.539 47.752 128.554C47.5633 128.57 47.3813 128.631 47.2213 128.732L37.9869 134.432C37.8032 134.552 37.5893 134.617 37.3701 134.619C37.151 134.621 36.9357 134.561 36.7494 134.446C36.5632 134.33 36.4136 134.164 36.3183 133.967C36.223 133.769 36.1858 133.549 36.2111 133.331L37.2943 122.534C37.3105 122.345 37.282 122.155 37.2111 121.979C37.1401 121.804 37.0287 121.647 36.8859 121.522L28.6106 114.508C28.4416 114.37 28.3152 114.186 28.2461 113.98C28.1769 113.773 28.1678 113.55 28.2198 113.338C28.2719 113.126 28.383 112.934 28.5401 112.782C28.6973 112.631 28.8941 112.527 29.1078 112.483L39.7628 110.175C39.9474 110.135 40.1197 110.051 40.2651 109.931C40.4104 109.81 40.5244 109.656 40.5974 109.482L44.6996 99.4308C44.7868 99.2378 44.9246 99.0719 45.0985 98.951C45.2724 98.8301 45.4758 98.7586 45.6871 98.744C45.8984 98.7294 46.1097 98.7723 46.2985 98.8683C46.4874 98.9642 46.6467 99.1095 46.7596 99.2887Z" fill="#DA7C3C"/>
<path d="M58.1582 131.786L48.2136 127.418C48.0393 127.344 47.8497 127.314 47.661 127.329C47.4724 127.345 47.2903 127.405 47.1303 127.507L44.804 128.945L37.9137 133.207C37.7275 133.321 37.5132 133.38 37.2952 133.378C37.0771 133.377 36.8638 133.314 36.6793 133.198C36.4948 133.082 36.3463 132.916 36.2507 132.72C36.155 132.524 36.116 132.305 36.1379 132.088L36.2977 130.526L36.8127 125.287L37.2212 121.291C37.2374 121.105 37.2087 120.917 37.1377 120.744C37.0666 120.571 36.9552 120.418 36.8127 120.297L28.5373 113.282C28.3684 113.144 28.242 112.961 28.1728 112.754C28.1037 112.547 28.0946 112.325 28.1467 112.113C28.1987 111.901 28.3097 111.708 28.4669 111.557C28.624 111.406 28.8209 111.302 29.0346 111.258L35.4276 109.855L39.6363 108.949C39.8216 108.905 39.9938 108.818 40.1388 108.694C40.2839 108.571 40.3977 108.415 40.4709 108.239L44.0226 99.7149L44.6441 98.2055C44.7422 97.9623 44.9212 97.7605 45.151 97.6343C45.3808 97.5081 45.6472 97.4652 45.905 97.5129C46.0777 97.5323 46.2433 97.5923 46.3884 97.688C46.5334 97.7836 46.6538 97.9123 46.7396 98.0634L52.0671 107.227L52.1736 107.422C52.2683 107.587 52.4019 107.727 52.5628 107.829C52.7237 107.931 52.9071 107.993 53.0971 108.008L55.157 108.15L61.9052 108.665L63.9119 108.807C64.1303 108.824 64.3397 108.901 64.5163 109.031C64.6929 109.161 64.8296 109.337 64.9109 109.541C64.9923 109.744 65.015 109.966 64.9766 110.182C64.9381 110.397 64.84 110.598 64.6933 110.761L57.4656 118.841C57.3407 118.985 57.2527 119.157 57.2094 119.343C57.166 119.528 57.1687 119.722 57.217 119.906L59.7742 130.437C59.8342 130.651 59.8311 130.878 59.7652 131.09C59.6992 131.303 59.5734 131.492 59.4026 131.634C59.2319 131.777 59.0237 131.867 58.8029 131.894C58.5821 131.921 58.3582 131.884 58.1582 131.786Z" fill="#FF9B50"/>
<path d="M52.0325 107.209L36.7604 125.287L37.1688 121.291C37.185 121.105 37.1564 120.917 37.0853 120.744C37.0143 120.571 36.9029 120.418 36.7604 120.297L30.8291 115.271L35.3752 109.855L39.5839 108.949C39.7692 108.905 39.9414 108.818 40.0865 108.694C40.2315 108.571 40.3453 108.415 40.4186 108.239L43.9702 99.715L45.8526 97.5129C46.0253 97.5323 46.191 97.5923 46.336 97.688C46.4811 97.7837 46.6015 97.9123 46.6873 98.0634L52.0325 107.209Z" fill="#FFB448"/>
<path d="M61.8696 108.666L44.804 128.945L37.9137 133.207C37.7275 133.321 37.5132 133.38 37.2952 133.378C37.0771 133.377 36.8638 133.314 36.6793 133.198C36.4948 133.082 36.3463 132.916 36.2507 132.72C36.155 132.524 36.116 132.305 36.1379 132.088L36.2977 130.526L55.1214 108.151L61.8696 108.666Z" fill="#FFB448"/>
<path d="M65.1756 85.7397L61.7305 90.1793C63.4366 91.1937 65.0317 92.3841 66.4897 93.731L69.9704 89.4512L65.1756 85.7397Z" fill="#FFB448"/>
<path d="M32.5696 139.867L29.0179 144.324C27.3051 143.287 25.6886 142.098 24.1877 140.773L27.615 136.369C29.1378 137.707 30.7987 138.88 32.5696 139.867Z" fill="#FFB448"/>
<path d="M48.6781 80.4305L43.688 86.1487C44.0432 86.1487 44.4161 86.1486 44.7713 86.0421C48.8953 85.7444 53.0346 86.3505 56.9002 87.8179L60.665 83.325C56.8791 81.6377 52.8167 80.6568 48.6781 80.4305ZM18.2759 119.073L13.712 124.4C14.8337 128.275 16.6378 131.92 19.0395 135.162L22.7687 130.722C20.441 127.212 18.9077 123.236 18.2759 119.073Z" fill="#C95506"/>
<path d="M60.6634 83.3062L56.8986 87.799C53.033 86.3316 48.8938 85.7256 44.7697 86.0232C44.4146 86.0232 44.0416 86.0232 43.6864 86.1298L48.6765 80.4116C52.8152 80.6379 56.8776 81.6189 60.6634 83.3062Z" fill="#FFB448"/>
<path d="M22.6954 130.651L18.9662 135.09C16.5644 131.849 14.7603 128.204 13.6387 124.329L18.2025 119.001C18.8343 123.165 20.3676 127.141 22.6954 130.651Z" fill="#FFB448"/>
<path d="M76.9484 125.571C77.9782 125.571 78.813 124.736 78.813 123.706C78.813 122.677 77.9782 121.842 76.9484 121.842C75.9186 121.842 75.0838 122.677 75.0838 123.706C75.0838 124.736 75.9186 125.571 76.9484 125.571Z" fill="#FFF4CD"/>
<path d="M146.246 151.783C165.94 151.783 181.905 135.818 181.905 116.124C181.905 96.4305 165.94 80.4656 146.246 80.4656C126.553 80.4656 110.588 96.4305 110.588 116.124C110.588 135.818 126.553 151.783 146.246 151.783Z" fill="#FF9B50"/>
<path d="M147.381 149.225C166.389 149.225 181.797 133.817 181.797 114.81C181.797 95.8024 166.389 80.394 147.381 80.394C128.374 80.394 112.966 95.8024 112.966 114.81C112.966 133.817 128.374 149.225 147.381 149.225Z" fill="#C95506"/>
<path d="M147.381 149.225C166.389 149.225 181.797 133.817 181.797 114.81C181.797 95.8024 166.389 80.394 147.381 80.394C128.374 80.394 112.966 95.8024 112.966 114.81C112.966 133.817 128.374 149.225 147.381 149.225Z" fill="#DA7C3C"/>
<path d="M171.899 129.981C180.29 116.443 176.117 98.6657 162.579 90.2749C149.04 81.8842 131.263 86.057 122.873 99.5952C114.482 113.133 118.655 130.91 132.193 139.301C145.731 147.692 163.508 143.519 171.899 129.981Z" fill="#FF9B50"/>
<path d="M147.543 143.632C162.195 143.632 174.074 131.754 174.074 117.101C174.074 102.448 162.195 90.5701 147.543 90.5701C132.89 90.5701 121.012 102.448 121.012 117.101C121.012 131.754 132.89 143.632 147.543 143.632Z" fill="#C95506"/>
<path d="M147.347 99.2888L152.817 108.665C152.91 108.83 153.044 108.969 153.205 109.069C153.367 109.168 153.551 109.225 153.74 109.234L164.555 110.05C164.77 110.069 164.976 110.148 165.149 110.276C165.323 110.405 165.457 110.579 165.538 110.779C165.619 110.979 165.643 111.198 165.607 111.411C165.572 111.624 165.478 111.823 165.336 111.986L158.109 120.084C157.985 120.225 157.896 120.394 157.85 120.576C157.803 120.758 157.801 120.948 157.842 121.132L160.417 131.68C160.47 131.891 160.463 132.112 160.396 132.319C160.328 132.526 160.204 132.709 160.037 132.848C159.87 132.987 159.667 133.077 159.452 133.106C159.236 133.135 159.017 133.102 158.819 133.012L148.892 128.643C148.718 128.57 148.528 128.539 148.34 128.555C148.151 128.57 147.969 128.631 147.809 128.732L138.575 134.432C138.391 134.552 138.177 134.617 137.958 134.619C137.739 134.621 137.523 134.561 137.337 134.446C137.151 134.33 137.001 134.164 136.906 133.967C136.811 133.77 136.774 133.549 136.799 133.331L137.882 122.534C137.898 122.346 137.87 122.155 137.799 121.98C137.728 121.804 137.616 121.647 137.474 121.522L129.198 114.508C129.029 114.37 128.903 114.187 128.834 113.98C128.765 113.773 128.756 113.55 128.808 113.338C128.86 113.127 128.971 112.934 129.128 112.782C129.285 112.631 129.482 112.527 129.696 112.483L140.351 110.175C140.535 110.135 140.707 110.051 140.853 109.931C140.998 109.81 141.112 109.656 141.185 109.482L145.287 99.4309C145.375 99.2379 145.512 99.072 145.686 98.9511C145.86 98.8302 146.064 98.7587 146.275 98.7441C146.486 98.7295 146.697 98.7724 146.886 98.8683C147.075 98.9643 147.234 99.1096 147.347 99.2888Z" fill="#DA7C3C"/>
<path d="M158.749 131.786L148.804 127.418C148.63 127.344 148.44 127.314 148.252 127.329C148.063 127.345 147.881 127.405 147.721 127.507L145.395 128.945L138.504 133.207C138.318 133.321 138.104 133.38 137.886 133.378C137.668 133.377 137.455 133.314 137.27 133.198C137.086 133.082 136.937 132.916 136.841 132.72C136.746 132.524 136.707 132.305 136.729 132.088L136.888 130.526L137.403 125.287L137.812 121.291C137.828 121.105 137.799 120.917 137.728 120.744C137.657 120.571 137.546 120.418 137.403 120.297L129.128 113.282C128.959 113.144 128.833 112.961 128.764 112.754C128.694 112.547 128.685 112.325 128.737 112.113C128.789 111.901 128.9 111.708 129.058 111.557C129.215 111.406 129.412 111.302 129.625 111.258L136.018 109.855L140.227 108.949C140.412 108.905 140.585 108.818 140.73 108.694C140.875 108.571 140.988 108.415 141.062 108.239L144.613 99.7149L145.235 98.2055C145.333 97.9623 145.512 97.7605 145.742 97.6343C145.972 97.5081 146.238 97.4652 146.496 97.5129C146.668 97.5323 146.834 97.5923 146.979 97.688C147.124 97.7836 147.245 97.9123 147.33 98.0634L152.658 107.227L152.764 107.422C152.859 107.587 152.993 107.727 153.154 107.829C153.314 107.931 153.498 107.993 153.688 108.008L155.748 108.15L162.496 108.665L164.503 108.807C164.721 108.824 164.93 108.901 165.107 109.031C165.284 109.161 165.42 109.337 165.502 109.541C165.583 109.744 165.606 109.966 165.567 110.182C165.529 110.397 165.431 110.598 165.284 110.761L158.056 118.841C157.931 118.985 157.843 119.157 157.8 119.343C157.757 119.528 157.759 119.722 157.808 119.906L160.365 130.437C160.425 130.651 160.422 130.878 160.356 131.09C160.29 131.303 160.164 131.492 159.993 131.634C159.823 131.777 159.614 131.867 159.394 131.894C159.173 131.921 158.949 131.884 158.749 131.786Z" fill="#FF9B50"/>
<path d="M152.621 107.209L137.349 125.287L137.758 121.291C137.774 121.105 137.745 120.917 137.674 120.744C137.603 120.571 137.492 120.418 137.349 120.297L131.418 115.271L135.964 109.855L140.173 108.949C140.358 108.905 140.53 108.818 140.675 108.694C140.82 108.571 140.934 108.415 141.007 108.239L144.559 99.715L146.441 97.5129C146.614 97.5323 146.78 97.5923 146.925 97.688C147.07 97.7837 147.19 97.9123 147.276 98.0634L152.621 107.209Z" fill="#FFB448"/>
<path d="M162.461 108.666L145.395 128.945L138.504 133.207C138.318 133.321 138.104 133.38 137.886 133.378C137.668 133.377 137.455 133.314 137.27 133.198C137.086 133.082 136.937 132.916 136.841 132.72C136.746 132.524 136.707 132.305 136.729 132.088L136.888 130.526L155.712 108.151L162.461 108.666Z" fill="#FFB448"/>
<path d="M165.763 85.7397L162.318 90.1793C164.024 91.1937 165.62 92.3841 167.078 93.731L170.558 89.4512L165.763 85.7397Z" fill="#FFB448"/>
<path d="M133.157 139.867L129.606 144.324C127.893 143.287 126.276 142.098 124.775 140.773L128.203 136.369C129.726 137.707 131.386 138.88 133.157 139.867Z" fill="#FFB448"/>
<path d="M149.266 80.4305L144.276 86.1487C144.631 86.1487 145.004 86.1486 145.359 86.0421C149.483 85.7444 153.623 86.3505 157.488 87.8179L161.253 83.325C157.467 81.6377 153.405 80.6568 149.266 80.4305ZM118.864 119.073L114.3 124.4C115.422 128.275 117.226 131.92 119.628 135.162L123.357 130.722C121.029 127.212 119.496 123.236 118.864 119.073Z" fill="#C95506"/>
<path d="M161.251 83.3062L157.487 87.799C153.621 86.3316 149.482 85.7256 145.358 86.0232C145.003 86.0232 144.63 86.0232 144.274 86.1298L149.265 80.4116C153.403 80.6379 157.466 81.6189 161.251 83.3062Z" fill="#FFB448"/>
<path d="M123.284 130.651L119.555 135.09C117.153 131.849 115.349 128.204 114.228 124.329L118.791 119.001C119.423 123.165 120.956 127.141 123.284 130.651Z" fill="#FFB448"/>
<path d="M177.536 125.571C178.566 125.571 179.401 124.736 179.401 123.706C179.401 122.677 178.566 121.842 177.536 121.842C176.507 121.842 175.672 122.677 175.672 123.706C175.672 124.736 176.507 125.571 177.536 125.571Z" fill="#FFF4CD"/>
</g>
</svg>
