<svg width="72" height="72" viewBox="0 0 72 72" fill="none" xmlns="http://www.w3.org/2000/svg">
<mask id="mask0_637_4941" style="mask-type:alpha" maskUnits="userSpaceOnUse" x="0" y="0" width="72" height="72">
<circle cx="36" cy="36" r="36" fill="#D9D9D9"/>
</mask>
<g mask="url(#mask0_637_4941)">
<circle cx="36" cy="36" r="34" fill="#D9D9D9" stroke="#18A0FB" stroke-width="2"/>
<path d="M35.3251 50.3539C45.9431 50.3539 54.5507 41.7463 54.5507 31.1284C54.5507 20.5104 45.9431 11.9028 35.3251 11.9028C24.7072 11.9028 16.0996 20.5104 16.0996 31.1284C16.0996 41.7463 24.7072 50.3539 35.3251 50.3539Z" fill="#FF9B50"/>
<path d="M35.9381 48.9749C46.186 48.9749 54.4935 40.6674 54.4935 30.4196C54.4935 20.1718 46.186 11.8643 35.9381 11.8643C25.6903 11.8643 17.3828 20.1718 17.3828 30.4196C17.3828 40.6674 25.6903 48.9749 35.9381 48.9749Z" fill="#C95506"/>
<path d="M35.9381 48.9749C46.186 48.9749 54.4935 40.6674 54.4935 30.4196C54.4935 20.1718 46.186 11.8643 35.9381 11.8643C25.6903 11.8643 17.3828 20.1718 17.3828 30.4196C17.3828 40.6674 25.6903 48.9749 35.9381 48.9749Z" fill="#DA7C3C"/>
<path d="M49.1562 38.5988C53.6801 31.2997 51.4304 21.7151 44.1312 17.1912C36.832 12.6673 27.2474 14.9171 22.7235 22.2163C18.1996 29.5155 20.4494 39.1 27.7486 43.6239C35.0478 48.1478 44.6323 45.898 49.1562 38.5988Z" fill="#FF9B50"/>
<path d="M36.025 45.9591C43.925 45.9591 50.3292 39.5549 50.3292 31.6548C50.3292 23.7548 43.925 17.3506 36.025 17.3506C28.1249 17.3506 21.7207 23.7548 21.7207 31.6548C21.7207 39.5549 28.1249 45.9591 36.025 45.9591Z" fill="#C95506"/>
<path d="M35.919 22.052L38.8679 27.1074C38.9181 27.1964 38.9902 27.2713 39.0773 27.3249C39.1644 27.3785 39.2637 27.4091 39.3658 27.4138L45.1967 27.8542C45.3126 27.8645 45.4235 27.9066 45.517 27.976C45.6105 28.0453 45.6831 28.1391 45.7267 28.247C45.7702 28.355 45.7831 28.4729 45.764 28.5877C45.7448 28.7026 45.6943 28.8099 45.6179 28.8978L41.7211 33.2637C41.6543 33.3399 41.6064 33.4307 41.5815 33.5289C41.5565 33.6271 41.5551 33.7298 41.5775 33.8286L42.9658 39.5159C42.9944 39.6295 42.9903 39.7489 42.954 39.8604C42.9177 39.9718 42.8507 40.0707 42.7607 40.1458C42.6706 40.2208 42.5612 40.2689 42.4451 40.2845C42.3289 40.3001 42.2107 40.2826 42.1041 40.2339L36.752 37.8786C36.658 37.8389 36.5558 37.8224 36.4541 37.8308C36.3524 37.8391 36.2542 37.872 36.1679 37.9265L31.1892 40.9999C31.0902 41.0643 30.9748 41.0992 30.8566 41.1005C30.7385 41.1018 30.6224 41.0694 30.522 41.0071C30.4216 40.9448 30.341 40.8553 30.2896 40.7489C30.2382 40.6425 30.2181 40.5237 30.2318 40.4063L30.8158 34.585C30.8245 34.4831 30.8091 34.3807 30.7709 34.2858C30.7326 34.191 30.6726 34.1066 30.5956 34.0393L26.1339 30.2573C26.0428 30.1829 25.9747 30.0842 25.9374 29.9726C25.9001 29.8611 25.8952 29.7412 25.9232 29.6269C25.9513 29.5127 26.0112 29.4088 26.0959 29.3272C26.1806 29.2455 26.2868 29.1896 26.402 29.1659L32.1467 27.9212C32.2462 27.8998 32.3391 27.8547 32.4175 27.7897C32.4958 27.7246 32.5573 27.6417 32.5967 27.5478L34.8084 22.1286C34.8554 22.0246 34.9297 21.9352 35.0234 21.87C35.1172 21.8047 35.2269 21.7662 35.3408 21.7583C35.4547 21.7505 35.5686 21.7736 35.6704 21.8253C35.7723 21.8771 35.8582 21.9554 35.919 22.052Z" fill="#DA7C3C"/>
<path d="M42.066 39.5729L36.7043 37.2176C36.6103 37.1778 36.5081 37.1614 36.4064 37.1698C36.3047 37.1781 36.2065 37.2109 36.1203 37.2655L34.866 38.041L31.1511 40.3389C31.0507 40.4001 30.9352 40.432 30.8176 40.4311C30.7 40.4302 30.585 40.3966 30.4856 40.3339C30.3861 40.2712 30.306 40.182 30.2545 40.0763C30.2029 39.9706 30.1818 39.8527 30.1937 39.7357L30.2798 38.8931L30.5575 36.0687L30.7777 33.9144C30.7865 33.814 30.771 33.7129 30.7327 33.6196C30.6944 33.5263 30.6343 33.4436 30.5575 33.3782L27.3596 30.6687L26.0958 29.5963C26.0047 29.5219 25.9365 29.4232 25.8993 29.3116C25.862 29.2 25.8571 29.0802 25.8852 28.9659C25.9132 28.8517 25.9731 28.7477 26.0578 28.6661C26.1425 28.5845 26.2487 28.5286 26.3639 28.5048L29.8107 27.7485L32.0798 27.2602C32.1797 27.2364 32.2726 27.1892 32.3508 27.1227C32.429 27.0561 32.4903 26.972 32.5298 26.8772L34.4447 22.2814L34.7798 21.4676C34.8327 21.3365 34.9292 21.2277 35.0531 21.1597C35.177 21.0916 35.3206 21.0685 35.4596 21.0942C35.5527 21.1047 35.642 21.137 35.7203 21.1886C35.7985 21.2402 35.8634 21.3095 35.9096 21.391L38.782 26.3314L38.8394 26.4368C38.8905 26.5259 38.9625 26.6013 39.0492 26.6564C39.136 26.7114 39.2349 26.7445 39.3373 26.7527L40.4479 26.8293L44.0862 27.107L45.1681 27.1836C45.2859 27.1925 45.3988 27.2343 45.494 27.3042C45.5892 27.3741 45.6629 27.4693 45.7068 27.579C45.7506 27.6886 45.7629 27.8084 45.7422 27.9246C45.7214 28.0409 45.6685 28.149 45.5894 28.2368L41.6926 32.5931C41.6252 32.6708 41.5778 32.7637 41.5544 32.8638C41.5311 32.9639 41.5325 33.0682 41.5586 33.1676L42.9373 38.8453C42.9696 38.9607 42.9679 39.0831 42.9324 39.1976C42.8969 39.3122 42.829 39.414 42.737 39.4908C42.6449 39.5677 42.5326 39.6164 42.4136 39.6309C42.2946 39.6455 42.1739 39.6253 42.066 39.5729Z" fill="#FF9B50"/>
<path d="M38.763 26.3214L30.5289 36.0682L30.7491 33.9139C30.7579 33.8135 30.7424 33.7124 30.7041 33.6191C30.6658 33.5259 30.6057 33.4431 30.5289 33.3778L27.3311 30.6682L29.7821 27.748L32.0513 27.2597C32.1512 27.2359 32.244 27.1888 32.3222 27.1222C32.4004 27.0556 32.4618 26.9715 32.5013 26.8767L34.4162 22.281L35.431 21.0938C35.5242 21.1042 35.6135 21.1365 35.6917 21.1881C35.7699 21.2397 35.8348 21.3091 35.881 21.3906L38.763 26.3214Z" fill="#FFB448"/>
<path d="M44.0671 27.1068L34.866 38.0408L31.1511 40.3387C31.0507 40.3999 30.9352 40.4318 30.8176 40.4309C30.7 40.43 30.585 40.3963 30.4855 40.3337C30.386 40.271 30.306 40.1818 30.2544 40.0761C30.2029 39.9704 30.1818 39.8525 30.1936 39.7355L30.2798 38.8929L40.4287 26.8291L44.0671 27.1068Z" fill="#FFB448"/>
<path d="M45.8477 14.7461L43.9902 17.1397C44.9101 17.6866 45.7701 18.3284 46.5562 19.0546L48.4328 16.7472L45.8477 14.7461Z" fill="#FFB448"/>
<path d="M28.2692 43.9291L26.3543 46.3323C25.4308 45.773 24.5592 45.1321 23.75 44.4174L25.5979 42.043C26.4189 42.7646 27.3144 43.3969 28.2692 43.9291V43.9291Z" fill="#FFB448"/>
<path d="M36.9527 11.8838L34.2623 14.9668C34.4538 14.9668 34.6549 14.9667 34.8464 14.9093C37.0698 14.7488 39.3015 15.0756 41.3857 15.8667L43.4155 13.4444C41.3743 12.5347 39.1841 12.0058 36.9527 11.8838V11.8838ZM20.5612 32.7178L18.1006 35.5902C18.7053 37.6796 19.678 39.6445 20.9729 41.3923L22.9836 38.9987C21.7285 37.1063 20.9018 34.9628 20.5612 32.7178V32.7178Z" fill="#C95506"/>
<path d="M43.4159 13.4347L41.3861 15.857C39.3019 15.0658 37.0702 14.7391 34.8468 14.8996C34.6553 14.8996 34.4542 14.8996 34.2627 14.957L36.9531 11.874C39.1845 11.996 41.3747 12.525 43.4159 13.4347V13.4347Z" fill="#FFB448"/>
<path d="M22.9455 38.96L20.9348 41.3537C19.6399 39.6058 18.6673 37.641 18.0625 35.5515L20.5231 32.6792C20.8637 34.9242 21.6904 37.0677 22.9455 38.96V38.96Z" fill="#FFB448"/>
<path d="M52.1957 36.2216C52.751 36.2216 53.2011 35.7715 53.2011 35.2163C53.2011 34.661 52.751 34.2109 52.1957 34.2109C51.6405 34.2109 51.1904 34.661 51.1904 35.2163C51.1904 35.7715 51.6405 36.2216 52.1957 36.2216Z" fill="#FFF4CD"/>
<path d="M17.9495 53.0192C25.0728 53.0192 30.8473 47.2447 30.8473 40.1214C30.8473 32.9982 25.0728 27.2236 17.9495 27.2236C10.8263 27.2236 5.05176 32.9982 5.05176 40.1214C5.05176 47.2447 10.8263 53.0192 17.9495 53.0192Z" fill="#FF9B50"/>
<path d="M18.3603 52.0946C25.2352 52.0946 30.8084 46.5213 30.8084 39.6464C30.8084 32.7715 25.2352 27.1982 18.3603 27.1982C11.4853 27.1982 5.91211 32.7715 5.91211 39.6464C5.91211 46.5213 11.4853 52.0946 18.3603 52.0946Z" fill="#C95506"/>
<path d="M18.3603 52.0946C25.2352 52.0946 30.8084 46.5213 30.8084 39.6464C30.8084 32.7715 25.2352 27.1982 18.3603 27.1982C11.4853 27.1982 5.91211 32.7715 5.91211 39.6464C5.91211 46.5213 11.4853 52.0946 18.3603 52.0946Z" fill="#DA7C3C"/>
<path d="M27.2281 45.1339C30.2631 40.2371 28.7538 33.8071 23.857 30.7722C18.9602 27.7372 12.5302 29.2466 9.49527 34.1433C6.46032 39.0401 7.96963 45.4701 12.8664 48.505C17.7632 51.54 24.1932 50.0307 27.2281 45.1339Z" fill="#FF9B50"/>
<path d="M18.4185 50.0714C23.7184 50.0714 28.0148 45.775 28.0148 40.4752C28.0148 35.1753 23.7184 30.8789 18.4185 30.8789C13.1187 30.8789 8.82227 35.1753 8.82227 40.4752C8.82227 45.775 13.1187 50.0714 18.4185 50.0714Z" fill="#C95506"/>
<path d="M18.3478 34.0325L20.3261 37.424C20.3598 37.4837 20.4081 37.5339 20.4666 37.5699C20.525 37.6059 20.5916 37.6264 20.6601 37.6295L24.5719 37.925C24.6496 37.9319 24.724 37.9602 24.7868 38.0067C24.8495 38.0532 24.8982 38.1161 24.9274 38.1885C24.9567 38.261 24.9653 38.3401 24.9524 38.4171C24.9396 38.4941 24.9057 38.5661 24.8545 38.6251L22.2402 41.5541C22.1954 41.6052 22.1633 41.6661 22.1465 41.732C22.1298 41.7979 22.1289 41.8668 22.1439 41.933L23.0752 45.7484C23.0944 45.8247 23.0917 45.9048 23.0673 45.9796C23.043 46.0543 22.998 46.1207 22.9376 46.171C22.8772 46.2213 22.8038 46.2536 22.7259 46.2641C22.648 46.2745 22.5687 46.2628 22.4972 46.2302L18.9066 44.6501C18.8435 44.6234 18.775 44.6124 18.7067 44.618C18.6385 44.6236 18.5726 44.6456 18.5148 44.6822L15.1747 46.744C15.1083 46.7872 15.0309 46.8107 14.9516 46.8115C14.8723 46.8124 14.7945 46.7906 14.7271 46.7489C14.6597 46.7071 14.6056 46.647 14.5712 46.5756C14.5367 46.5042 14.5232 46.4245 14.5324 46.3458L14.9242 42.4405C14.93 42.3721 14.9197 42.3034 14.8941 42.2398C14.8684 42.1762 14.8281 42.1195 14.7765 42.0744L11.7833 39.5372C11.7221 39.4873 11.6764 39.421 11.6514 39.3462C11.6264 39.2713 11.6231 39.1909 11.6419 39.1143C11.6608 39.0376 11.7009 38.9679 11.7578 38.9132C11.8146 38.8584 11.8858 38.8209 11.9631 38.805L15.817 37.9699C15.8838 37.9556 15.9461 37.9253 15.9987 37.8817C16.0513 37.8381 16.0925 37.7824 16.1189 37.7194L17.6027 34.0839C17.6342 34.0141 17.6841 33.9541 17.747 33.9104C17.8099 33.8666 17.8834 33.8407 17.9599 33.8355C18.0363 33.8302 18.1127 33.8457 18.181 33.8804C18.2493 33.9151 18.307 33.9677 18.3478 34.0325Z" fill="#DA7C3C"/>
<path d="M22.4708 45.7869L18.8738 44.2068C18.8107 44.1801 18.7422 44.1691 18.6739 44.1747C18.6057 44.1803 18.5398 44.2023 18.482 44.2389L17.6405 44.7592L15.1483 46.3008C15.081 46.3418 15.0035 46.3633 14.9246 46.3627C14.8457 46.3621 14.7686 46.3395 14.7018 46.2974C14.6351 46.2554 14.5814 46.1955 14.5468 46.1246C14.5122 46.0537 14.4981 45.9746 14.506 45.8961L14.5638 45.3309L14.7501 43.436L14.8978 41.9908C14.9037 41.9234 14.8933 41.8556 14.8676 41.793C14.8419 41.7305 14.8016 41.6749 14.7501 41.6311L12.6047 39.8134L11.7569 39.094C11.6958 39.044 11.65 38.9778 11.625 38.9029C11.6 38.8281 11.5967 38.7477 11.6156 38.671C11.6344 38.5944 11.6746 38.5247 11.7314 38.4699C11.7882 38.4152 11.8594 38.3776 11.9367 38.3617L14.2491 37.8543L15.7714 37.5267C15.8384 37.5107 15.9007 37.4791 15.9532 37.4345C16.0056 37.3898 16.0468 37.3334 16.0733 37.2698L17.3579 34.1866L17.5827 33.6407C17.6182 33.5527 17.683 33.4797 17.7661 33.4341C17.8492 33.3884 17.9455 33.3729 18.0388 33.3902C18.1012 33.3972 18.1611 33.4189 18.2136 33.4535C18.2661 33.4881 18.3096 33.5346 18.3407 33.5893L20.2676 36.9037L20.3062 36.9743C20.3404 37.0341 20.3887 37.0847 20.4469 37.1216C20.5051 37.1586 20.5715 37.1808 20.6402 37.1863L21.3853 37.2377L23.8261 37.4239L24.5519 37.4753C24.6309 37.4813 24.7066 37.5094 24.7705 37.5563C24.8344 37.6032 24.8838 37.667 24.9133 37.7406C24.9427 37.8141 24.9509 37.8945 24.937 37.9725C24.9231 38.0505 24.8876 38.123 24.8345 38.1819L22.2203 41.1044C22.1751 41.1565 22.1433 41.2188 22.1276 41.286C22.1119 41.3531 22.1129 41.4231 22.1303 41.4898L23.0553 45.2988C23.077 45.3762 23.0759 45.4583 23.052 45.5352C23.0282 45.612 22.9826 45.6803 22.9209 45.7319C22.8592 45.7834 22.7838 45.8161 22.704 45.8258C22.6241 45.8356 22.5431 45.8221 22.4708 45.7869Z" fill="#FF9B50"/>
<path d="M20.2552 36.8972L14.7313 43.436L14.879 41.9908C14.8849 41.9234 14.8745 41.8556 14.8488 41.793C14.8231 41.7304 14.7828 41.6749 14.7313 41.6311L12.5859 39.8133L14.2303 37.8542L15.7526 37.5267C15.8196 37.5107 15.8819 37.4791 15.9343 37.4344C15.9868 37.3898 16.028 37.3333 16.0545 37.2697L17.3391 34.1866L18.02 33.3901C18.0824 33.3971 18.1423 33.4188 18.1948 33.4535C18.2473 33.4881 18.2908 33.5346 18.3219 33.5893L20.2552 36.8972Z" fill="#FFB448"/>
<path d="M23.8133 37.4236L17.6406 44.7589L15.1484 46.3005C15.081 46.3415 15.0035 46.3629 14.9246 46.3623C14.8458 46.3617 14.7686 46.3391 14.7019 46.2971C14.6351 46.255 14.5814 46.1952 14.5468 46.1243C14.5123 46.0534 14.4981 45.9743 14.5061 45.8958L14.5639 45.3305L21.3725 37.2373L23.8133 37.4236Z" fill="#FFB448"/>
<path d="M25.0088 29.1318L23.7627 30.7376C24.3798 31.1045 24.9567 31.5351 25.4841 32.0223L26.7431 30.4743L25.0088 29.1318Z" fill="#FFB448"/>
<path d="M13.2153 48.7097L11.9307 50.3219C11.3112 49.9467 10.7265 49.5168 10.1836 49.0373L11.4233 47.4443C11.9741 47.9285 12.5748 48.3527 13.2153 48.7097V48.7097Z" fill="#FFB448"/>
<path d="M19.0418 27.2109L17.2369 29.2792C17.3654 29.2792 17.5003 29.2792 17.6287 29.2407C19.1204 29.133 20.6176 29.3522 22.0158 29.883L23.3775 28.2579C22.0081 27.6476 20.5388 27.2928 19.0418 27.2109V27.2109ZM8.0453 41.1878L6.39453 43.1148C6.80024 44.5165 7.45278 45.8347 8.32149 47.0072L9.67037 45.4014C8.82841 44.1319 8.27381 42.6939 8.0453 41.1878V41.1878Z" fill="#C95506"/>
<path d="M23.3769 28.2516L22.0152 29.8766C20.617 29.3459 19.1198 29.1267 17.6282 29.2343C17.4997 29.2343 17.3648 29.2343 17.2363 29.2729L19.0412 27.2046C20.5382 27.2865 22.0076 27.6413 23.3769 28.2516V28.2516Z" fill="#FFB448"/>
<path d="M9.64398 45.3757L8.29512 46.9815C7.42642 45.809 6.77387 44.4908 6.36816 43.0891L8.01891 41.1621C8.24742 42.6682 8.80203 44.1062 9.64398 45.3757V45.3757Z" fill="#FFB448"/>
<path d="M29.2672 43.5388C29.6397 43.5388 29.9416 43.2369 29.9416 42.8644C29.9416 42.4919 29.6397 42.1899 29.2672 42.1899C28.8947 42.1899 28.5928 42.4919 28.5928 42.8644C28.5928 43.2369 28.8947 43.5388 29.2672 43.5388Z" fill="#FFF4CD"/>
<path d="M54.3324 53.0192C61.4556 53.0192 67.2301 47.2447 67.2301 40.1214C67.2301 32.9982 61.4556 27.2236 54.3324 27.2236C47.2091 27.2236 41.4346 32.9982 41.4346 40.1214C41.4346 47.2447 47.2091 53.0192 54.3324 53.0192Z" fill="#FF9B50"/>
<path d="M54.7431 52.0946C61.618 52.0946 67.1912 46.5213 67.1912 39.6464C67.1912 32.7715 61.618 27.1982 54.7431 27.1982C47.8682 27.1982 42.2949 32.7715 42.2949 39.6464C42.2949 46.5213 47.8682 52.0946 54.7431 52.0946Z" fill="#C95506"/>
<path d="M54.7431 52.0946C61.618 52.0946 67.1912 46.5213 67.1912 39.6464C67.1912 32.7715 61.618 27.1982 54.7431 27.1982C47.8682 27.1982 42.2949 32.7715 42.2949 39.6464C42.2949 46.5213 47.8682 52.0946 54.7431 52.0946Z" fill="#DA7C3C"/>
<path d="M63.6109 45.1339C66.6459 40.2371 65.1366 33.8071 60.2398 30.7722C55.343 27.7372 48.913 29.2466 45.8781 34.1433C42.8431 39.0401 44.3524 45.4701 49.2492 48.505C54.146 51.54 60.576 50.0307 63.6109 45.1339Z" fill="#FF9B50"/>
<path d="M54.8013 50.0714C60.1012 50.0714 64.3976 45.775 64.3976 40.4752C64.3976 35.1753 60.1012 30.8789 54.8013 30.8789C49.5015 30.8789 45.2051 35.1753 45.2051 40.4752C45.2051 45.775 49.5015 50.0714 54.8013 50.0714Z" fill="#C95506"/>
<path d="M54.7306 34.0325L56.7089 37.424C56.7426 37.4837 56.7909 37.5339 56.8494 37.5699C56.9078 37.6059 56.9744 37.6264 57.0429 37.6295L60.9547 37.925C61.0325 37.9319 61.1068 37.9602 61.1696 38.0067C61.2323 38.0532 61.281 38.1161 61.3102 38.1885C61.3395 38.261 61.3481 38.3401 61.3352 38.4171C61.3224 38.4941 61.2885 38.5661 61.2373 38.6251L58.623 41.5541C58.5782 41.6052 58.5461 41.6661 58.5293 41.732C58.5126 41.7979 58.5117 41.8668 58.5267 41.933L59.4581 45.7484C59.4772 45.8247 59.4745 45.9048 59.4502 45.9796C59.4258 46.0543 59.3808 46.1207 59.3204 46.171C59.26 46.2213 59.1866 46.2536 59.1087 46.2641C59.0308 46.2745 58.9515 46.2628 58.88 46.2302L55.2894 44.6501C55.2264 44.6234 55.1578 44.6124 55.0895 44.618C55.0213 44.6236 54.9555 44.6456 54.8976 44.6822L51.5575 46.744C51.4911 46.7872 51.4137 46.8107 51.3344 46.8115C51.2551 46.8124 51.1773 46.7906 51.1099 46.7489C51.0425 46.7071 50.9885 46.647 50.954 46.5756C50.9195 46.5042 50.906 46.4245 50.9152 46.3458L51.307 42.4405C51.3129 42.3721 51.3025 42.3034 51.2769 42.2398C51.2512 42.1762 51.2109 42.1195 51.1593 42.0744L48.1661 39.5372C48.105 39.4873 48.0592 39.421 48.0342 39.3462C48.0092 39.2713 48.0059 39.1909 48.0247 39.1143C48.0436 39.0376 48.0837 38.9679 48.1406 38.9132C48.1974 38.8584 48.2686 38.8209 48.3459 38.805L52.1998 37.9699C52.2666 37.9556 52.3289 37.9253 52.3815 37.8817C52.4341 37.8381 52.4753 37.7824 52.5017 37.7194L53.9855 34.0839C54.017 34.0141 54.0669 33.9541 54.1298 33.9104C54.1927 33.8666 54.2663 33.8407 54.3427 33.8355C54.4191 33.8302 54.4955 33.8457 54.5638 33.8804C54.6321 33.9151 54.6898 33.9677 54.7306 34.0325Z" fill="#DA7C3C"/>
<path d="M58.8546 45.7869L55.2576 44.2068C55.1945 44.1801 55.126 44.1691 55.0577 44.1747C54.9895 44.1803 54.9236 44.2023 54.8658 44.2389L54.0243 44.7592L51.5321 46.3008C51.4647 46.3418 51.3873 46.3633 51.3084 46.3627C51.2295 46.3621 51.1524 46.3395 51.0856 46.2974C51.0189 46.2554 50.9652 46.1955 50.9306 46.1246C50.896 46.0537 50.8819 45.9746 50.8898 45.8961L50.9476 45.3309L51.1339 43.436L51.2816 41.9908C51.2875 41.9234 51.2771 41.8556 51.2514 41.793C51.2257 41.7305 51.1854 41.6749 51.1339 41.6311L48.9885 39.8134L48.1407 39.094C48.0795 39.044 48.0338 38.9778 48.0088 38.9029C47.9838 38.8281 47.9805 38.7477 47.9994 38.671C48.0182 38.5944 48.0583 38.5247 48.1152 38.4699C48.172 38.4152 48.2432 38.3776 48.3205 38.3617L50.6329 37.8543L52.1552 37.5267C52.2222 37.5107 52.2845 37.4791 52.3369 37.4345C52.3894 37.3898 52.4306 37.3334 52.4571 37.2698L53.7417 34.1866L53.9665 33.6407C54.002 33.5527 54.0667 33.4797 54.1499 33.4341C54.233 33.3884 54.3293 33.3729 54.4226 33.3902C54.485 33.3972 54.5449 33.4189 54.5974 33.4535C54.6499 33.4881 54.6934 33.5346 54.7244 33.5893L56.6514 36.9037L56.6899 36.9743C56.7242 37.0341 56.7725 37.0847 56.8307 37.1216C56.8889 37.1586 56.9553 37.1808 57.024 37.1863L57.769 37.2377L60.2099 37.4239L60.9357 37.4753C61.0147 37.4813 61.0904 37.5094 61.1543 37.5563C61.2182 37.6032 61.2676 37.667 61.297 37.7406C61.3265 37.8141 61.3347 37.8945 61.3208 37.9725C61.3069 38.0505 61.2714 38.123 61.2183 38.1819L58.6041 41.1044C58.5589 41.1565 58.527 41.2188 58.5114 41.286C58.4957 41.3531 58.4966 41.4231 58.5141 41.4898L59.4391 45.2988C59.4608 45.3762 59.4596 45.4583 59.4358 45.5352C59.412 45.612 59.3664 45.6803 59.3047 45.7319C59.2429 45.7834 59.1676 45.8161 59.0878 45.8258C59.0079 45.8356 58.9269 45.8221 58.8546 45.7869Z" fill="#FF9B50"/>
<path d="M56.6381 36.8972L51.1141 43.436L51.2618 41.9908C51.2677 41.9234 51.2573 41.8556 51.2316 41.793C51.2059 41.7304 51.1656 41.6749 51.1141 41.6311L48.9688 39.8133L50.6131 37.8542L52.1354 37.5267C52.2024 37.5107 52.2647 37.4791 52.3172 37.4344C52.3696 37.3898 52.4108 37.3333 52.4373 37.2697L53.7219 34.1866L54.4028 33.3901C54.4652 33.3971 54.5252 33.4188 54.5776 33.4535C54.6301 33.4881 54.6736 33.5346 54.7047 33.5893L56.6381 36.8972Z" fill="#FFB448"/>
<path d="M60.1971 37.4236L54.0244 44.7589L51.5322 46.3005C51.4648 46.3415 51.3873 46.3629 51.3084 46.3623C51.2295 46.3617 51.1524 46.3391 51.0857 46.2971C51.0189 46.255 50.9652 46.1952 50.9306 46.1243C50.896 46.0534 50.8819 45.9743 50.8898 45.8958L50.9476 45.3305L57.7562 37.2373L60.1971 37.4236Z" fill="#FFB448"/>
<path d="M61.3916 29.1318L60.1455 30.7376C60.7626 31.1045 61.3396 31.5351 61.8669 32.0223L63.1259 30.4743L61.3916 29.1318Z" fill="#FFB448"/>
<path d="M49.5982 48.7097L48.3135 50.3219C47.694 49.9467 47.1093 49.5168 46.5664 49.0373L47.8061 47.4443C48.3569 47.9285 48.9576 48.3527 49.5982 48.7097V48.7097Z" fill="#FFB448"/>
<path d="M55.4246 27.2109L53.6197 29.2792C53.7482 29.2792 53.8831 29.2792 54.0115 29.2407C55.5032 29.133 57.0004 29.3522 58.3986 29.883L59.7603 28.2579C58.3909 27.6476 56.9216 27.2928 55.4246 27.2109V27.2109ZM44.4281 41.1878L42.7773 43.1148C43.1831 44.5165 43.8356 45.8347 44.7043 47.0072L46.0532 45.4014C45.2112 44.1319 44.6566 42.6939 44.4281 41.1878V41.1878Z" fill="#C95506"/>
<path d="M59.7597 28.2516L58.398 29.8766C56.9998 29.3459 55.5026 29.1267 54.011 29.2343C53.8825 29.2343 53.7476 29.2343 53.6191 29.2729L55.4241 27.2046C56.921 27.2865 58.3904 27.6413 59.7597 28.2516V28.2516Z" fill="#FFB448"/>
<path d="M46.0268 45.3757L44.6779 46.9815C43.8092 45.809 43.1567 44.4908 42.751 43.0891L44.4017 41.1621C44.6302 42.6682 45.1848 44.1062 46.0268 45.3757V45.3757Z" fill="#FFB448"/>
<path d="M65.65 43.5388C66.0225 43.5388 66.3245 43.2369 66.3245 42.8644C66.3245 42.4919 66.0225 42.1899 65.65 42.1899C65.2775 42.1899 64.9756 42.4919 64.9756 42.8644C64.9756 43.2369 65.2775 43.5388 65.65 43.5388Z" fill="#FFF4CD"/>
</g>
</svg>
