<svg width="192" height="190" viewBox="0 0 192 190" fill="none" xmlns="http://www.w3.org/2000/svg">
<mask id="mask0_637_6285" style="mask-type:alpha" maskUnits="userSpaceOnUse" x="0" y="0" width="192" height="190">
<rect width="192" height="190" fill="#D9D9D9"/>
</mask>
<g mask="url(#mask0_637_6285)">
<path d="M89.9557 147.331C119.311 147.331 143.109 123.534 143.109 94.1783C143.109 64.8228 119.311 41.0254 89.9557 41.0254C60.6001 41.0254 36.8027 64.8228 36.8027 94.1783C36.8027 123.534 60.6001 147.331 89.9557 147.331Z" fill="#79756B"/>
<path d="M91.6496 143.519C119.982 143.519 142.95 120.551 142.95 92.219C142.95 63.8867 119.982 40.9189 91.6496 40.9189C63.3174 40.9189 40.3496 63.8867 40.3496 92.219C40.3496 120.551 63.3174 143.519 91.6496 143.519Z" fill="#C2BEB7"/>
<path d="M91.6496 143.519C119.982 143.519 142.95 120.551 142.95 92.219C142.95 63.8867 119.982 40.9189 91.6496 40.9189C63.3174 40.9189 40.3496 63.8867 40.3496 92.219C40.3496 120.551 63.3174 143.519 91.6496 143.519Z" fill="#C2BEB7"/>
<path d="M95.2248 143.413C83.6651 144.216 72.1739 141.084 62.6206 134.526C53.0673 127.968 46.0141 118.371 42.6086 107.295C39.203 96.2193 39.6455 84.3171 43.8639 73.5247C48.0824 62.7324 55.8286 53.685 65.8424 47.8545V53.8898H71.7454V44.9957C76.9355 42.8003 82.4552 41.4853 88.0777 41.1046C94.4595 40.6563 100.869 41.4014 106.978 43.3016V51.4811H112.907V45.6575C123.309 50.3783 131.838 58.4339 137.145 68.5488C142.452 78.6638 144.234 90.26 142.207 101.501C140.181 112.743 134.462 122.987 125.957 130.612C117.452 138.237 106.646 142.807 95.2513 143.599L95.2248 143.413Z" fill="#C2BEB7"/>
<path d="M128.196 114.832C140.703 94.6522 134.483 68.1537 114.303 55.6464C94.123 43.1391 67.6245 49.3592 55.1172 69.5393C42.6099 89.7194 48.8299 116.218 69.01 128.725C89.1901 141.232 115.689 135.012 128.196 114.832Z" fill="#79756B"/>
<path d="M91.8908 135.181C113.732 135.181 131.438 117.475 131.438 95.634C131.438 73.7927 113.732 56.0869 91.8908 56.0869C70.0496 56.0869 52.3438 73.7927 52.3438 95.634C52.3438 117.475 70.0496 135.181 91.8908 135.181Z" fill="#C2BEB7"/>
<path d="M91.6001 69.0842L99.753 83.0607C99.8918 83.307 100.091 83.5139 100.332 83.6621C100.573 83.8103 100.847 83.8948 101.129 83.9078L117.25 85.1254C117.571 85.1539 117.877 85.2704 118.136 85.4621C118.394 85.6538 118.595 85.9131 118.715 86.2116C118.836 86.5101 118.871 86.836 118.818 87.1535C118.765 87.471 118.626 87.7676 118.415 88.0107L107.641 100.081C107.456 100.292 107.324 100.543 107.255 100.814C107.186 101.086 107.182 101.37 107.244 101.643L111.082 117.367C111.161 117.681 111.15 118.011 111.05 118.319C110.949 118.627 110.764 118.901 110.515 119.108C110.266 119.315 109.964 119.448 109.643 119.492C109.322 119.535 108.995 119.486 108.7 119.352L93.903 112.84C93.6432 112.73 93.3605 112.685 93.0793 112.708C92.7981 112.731 92.5268 112.822 92.2883 112.972L78.5236 121.469C78.2497 121.648 77.9308 121.744 77.6041 121.748C77.2775 121.751 76.9566 121.662 76.6789 121.489C76.4013 121.317 76.1784 121.07 76.0363 120.775C75.8942 120.481 75.8388 120.153 75.8765 119.828L77.4912 103.734C77.5153 103.453 77.4728 103.169 77.367 102.907C77.2613 102.645 77.0952 102.411 76.8824 102.225L64.5471 91.7695C64.2952 91.5637 64.1069 91.2908 64.0038 90.9823C63.9007 90.6738 63.8871 90.3425 63.9647 90.0266C64.0423 89.7107 64.2078 89.4234 64.4421 89.1978C64.6764 88.9722 64.9697 88.8175 65.2883 88.7519L81.1706 85.3107C81.4458 85.2516 81.7027 85.1268 81.9193 84.947C82.1359 84.7673 82.3059 84.5379 82.4148 84.2783L88.5295 69.296C88.6594 69.0082 88.8649 68.7611 89.1241 68.5808C89.3833 68.4005 89.6865 68.2939 90.0015 68.2722C90.3164 68.2505 90.6314 68.3145 90.9129 68.4574C91.1943 68.6004 91.4318 68.8171 91.6001 69.0842Z" fill="#9E9A90"/>
<path d="M108.592 117.525L93.7681 111.013C93.5083 110.903 93.2257 110.858 92.9445 110.881C92.6633 110.904 92.3918 110.995 92.1534 111.146L88.6857 113.29L78.4151 119.643C78.1375 119.812 77.8182 119.9 77.4931 119.898C77.168 119.895 76.8501 119.802 76.5751 119.629C76.3 119.456 76.0787 119.209 75.9362 118.917C75.7936 118.625 75.7354 118.299 75.7681 117.975L76.0063 115.646L76.774 107.837L77.3828 101.881C77.407 101.603 77.3643 101.324 77.2583 101.066C77.1524 100.808 76.9864 100.579 76.774 100.399L67.9328 92.9076L64.4387 89.9429C64.1868 89.7371 63.9984 89.4641 63.8953 89.1556C63.7922 88.8472 63.7787 88.5158 63.8563 88.1999C63.9339 87.8841 64.0994 87.5967 64.3336 87.3711C64.5679 87.1455 64.8613 86.9908 65.1798 86.9252L74.7093 84.834L80.9828 83.484C81.259 83.4182 81.5157 83.2879 81.7319 83.1039C81.9481 82.9199 82.1177 82.6873 82.2269 82.4252L87.521 69.7193L88.4475 67.4693C88.5936 67.1068 88.8605 66.8061 89.2031 66.6179C89.5456 66.4298 89.9426 66.3659 90.3269 66.437C90.5843 66.4659 90.8312 66.5553 91.0475 66.6979C91.2637 66.8405 91.4431 67.0323 91.571 67.2576L99.5122 80.9164L99.671 81.2075C99.8121 81.4541 100.011 81.6625 100.251 81.8147C100.491 81.9669 100.764 82.0584 101.048 82.0811L104.118 82.2928L114.177 83.0605L117.168 83.2722C117.494 83.2971 117.806 83.4126 118.069 83.6059C118.332 83.7991 118.536 84.0622 118.657 84.3654C118.779 84.6685 118.812 84.9997 118.755 85.3211C118.698 85.6425 118.551 85.9415 118.333 86.184L107.559 98.2281C107.373 98.4427 107.242 98.6996 107.177 98.9764C107.113 99.2531 107.117 99.5414 107.189 99.8163L111 115.513C111.09 115.833 111.085 116.171 110.987 116.488C110.889 116.804 110.701 117.086 110.447 117.298C110.192 117.511 109.882 117.645 109.553 117.686C109.223 117.726 108.89 117.67 108.592 117.525Z" fill="#79756B"/>
<path d="M99.4604 80.8894L76.6957 107.836L77.3045 101.881C77.3287 101.603 77.2859 101.323 77.18 101.066C77.0741 100.808 76.9081 100.579 76.6957 100.398L67.8545 92.9071L74.631 84.8335L80.9045 83.4836C81.1807 83.4177 81.4373 83.2875 81.6536 83.1034C81.8698 82.9194 82.0394 82.6868 82.1486 82.4247L87.4427 69.7189L90.2486 66.4365C90.506 66.4654 90.7529 66.5548 90.9692 66.6974C91.1854 66.8401 91.3648 67.0318 91.4927 67.2571L99.4604 80.8894Z" fill="#D9D9D9"/>
<path d="M114.125 83.0602L88.6863 113.29L78.4157 119.643C78.138 119.812 77.8187 119.9 77.4936 119.897C77.1686 119.895 76.8507 119.802 76.5756 119.629C76.3006 119.455 76.0793 119.209 75.9367 118.917C75.7942 118.624 75.7359 118.298 75.7686 117.975L76.0068 115.645L104.066 82.2925L114.125 83.0602Z" fill="#D9D9D9"/>
<path d="M119.049 48.8867L113.914 55.5044C116.457 57.0164 118.835 58.7908 121.008 60.7985L126.196 54.4191L119.049 48.8867Z" fill="#D9D9D9"/>
<path d="M70.4482 129.569L65.1541 136.213C62.601 134.667 60.1914 132.895 57.9541 130.919L63.0629 124.354C65.3328 126.35 67.8085 128.098 70.4482 129.569V129.569Z" fill="#D9D9D9"/>
<path d="M94.4556 40.9722L87.0173 49.4957C87.5467 49.4957 88.1027 49.4956 88.6321 49.3368C94.7794 48.8932 100.949 49.7965 106.711 51.9839L112.323 45.2868C106.68 42.7717 100.625 41.3095 94.4556 40.9722V40.9722ZM49.1379 98.5721L42.335 106.513C44.0069 112.29 46.6961 117.722 50.2761 122.554L55.835 115.937C52.3652 110.705 50.0796 104.779 49.1379 98.5721V98.5721Z" fill="#C2BEB7"/>
<path d="M112.325 45.2605L106.714 51.9576C100.952 49.7703 94.7816 48.8669 88.6343 49.3105C88.1049 49.3105 87.5489 49.3105 87.0195 49.4693L94.4578 40.9458C100.627 41.2832 106.682 42.7454 112.325 45.2605V45.2605Z" fill="#D9D9D9"/>
<path d="M55.7314 115.831L50.1726 122.449C46.5926 117.616 43.9034 112.184 42.2314 106.407L49.0343 98.4663C49.976 104.673 52.2616 110.599 55.7314 115.831V115.831Z" fill="#D9D9D9"/>
<path d="M136.598 108.261C138.133 108.261 139.377 107.017 139.377 105.482C139.377 103.947 138.133 102.702 136.598 102.702C135.063 102.702 133.818 103.947 133.818 105.482C133.818 107.017 135.063 108.261 136.598 108.261Z" fill="#D8D6CF"/>
<path d="M44.5668 154.701C64.2605 154.701 80.2254 138.736 80.2254 119.042C80.2254 99.3487 64.2605 83.3838 44.5668 83.3838C24.8731 83.3838 8.9082 99.3487 8.9082 119.042C8.9082 138.736 24.8731 154.701 44.5668 154.701Z" fill="#79756B"/>
<path d="M45.7019 152.144C64.7091 152.144 80.1174 136.736 80.1174 117.729C80.1174 98.7213 64.7091 83.313 45.7019 83.313C26.6947 83.313 11.2864 98.7213 11.2864 117.729C11.2864 136.736 26.6947 152.144 45.7019 152.144Z" fill="#C2BEB7"/>
<path d="M45.7019 152.144C64.7091 152.144 80.1174 136.736 80.1174 117.729C80.1174 98.7213 64.7091 83.313 45.7019 83.313C26.6947 83.313 11.2864 98.7213 11.2864 117.729C11.2864 136.736 26.6947 152.144 45.7019 152.144Z" fill="#C2BEB7"/>
<path d="M48.1005 152.073C40.3455 152.612 32.6363 150.51 26.2274 146.111C19.8184 141.712 15.0866 135.273 12.802 127.843C10.5173 120.412 10.8141 112.427 13.6441 105.187C16.4742 97.9468 21.6708 91.8772 28.3888 87.9658V92.0147H32.3489V86.0479C35.8308 84.5751 39.5338 83.6928 43.3057 83.4374C47.587 83.1367 51.8869 83.6365 55.9851 84.9113V90.3987H59.963V86.4919C66.941 89.6589 72.6632 95.0631 76.2236 101.849C79.7839 108.635 80.9789 116.414 79.6194 123.956C78.2599 131.497 74.4235 138.37 68.7178 143.485C63.012 148.601 55.7629 151.666 48.1182 152.197L48.1005 152.073Z" fill="#C2BEB7"/>
<path d="M70.2189 132.899C78.6097 119.361 74.4369 101.584 60.8987 93.193C47.3605 84.8023 29.5836 88.9751 21.1928 102.513C12.802 116.052 16.9749 133.828 30.5131 142.219C44.0512 150.61 61.8282 146.437 70.2189 132.899Z" fill="#79756B"/>
<path d="M45.8619 146.55C60.5145 146.55 72.3928 134.672 72.3928 120.019C72.3928 105.367 60.5145 93.4883 45.8619 93.4883C31.2093 93.4883 19.3311 105.367 19.3311 120.019C19.3311 134.672 31.2093 146.55 45.8619 146.55Z" fill="#C2BEB7"/>
<path d="M45.6667 102.208L51.1363 111.584C51.2294 111.749 51.363 111.888 51.5246 111.988C51.6861 112.087 51.8703 112.144 52.0597 112.152L62.8745 112.969C63.0896 112.988 63.2952 113.066 63.4686 113.195C63.6421 113.324 63.7767 113.498 63.8575 113.698C63.9384 113.898 63.9623 114.117 63.9267 114.33C63.8911 114.543 63.7974 114.742 63.6559 114.905L56.4282 123.003C56.3043 123.144 56.2155 123.312 56.1692 123.494C56.1229 123.677 56.1204 123.867 56.1619 124.05L58.7368 134.599C58.7898 134.81 58.7823 135.031 58.715 135.238C58.6476 135.444 58.5233 135.628 58.3564 135.767C58.1894 135.906 57.9864 135.995 57.771 136.024C57.5556 136.053 57.3364 136.021 57.1386 135.931L47.2117 131.562C47.0374 131.488 46.8478 131.458 46.6591 131.473C46.4705 131.489 46.2884 131.55 46.1285 131.651L36.8942 137.351C36.7104 137.471 36.4965 137.535 36.2773 137.538C36.0582 137.54 35.8429 137.48 35.6566 137.365C35.4704 137.249 35.3208 137.083 35.2255 136.886C35.1302 136.688 35.093 136.468 35.1183 136.25L36.2016 125.453C36.2177 125.264 36.1892 125.074 36.1183 124.898C36.0473 124.723 35.9359 124.566 35.7931 124.441L27.5178 117.426C27.3488 117.288 27.2224 117.105 27.1533 116.898C27.0841 116.691 27.075 116.469 27.1271 116.257C27.1791 116.045 27.2902 115.853 27.4473 115.701C27.6045 115.55 27.8013 115.446 28.015 115.402L38.67 113.094C38.8546 113.054 39.0269 112.97 39.1722 112.85C39.3176 112.729 39.4316 112.575 39.5046 112.401L43.6068 102.35C43.694 102.157 43.8318 101.991 44.0057 101.87C44.1796 101.749 44.383 101.678 44.5943 101.663C44.8056 101.648 45.0169 101.691 45.2057 101.787C45.3945 101.883 45.5539 102.028 45.6667 102.208Z" fill="#9E9A90"/>
<path d="M57.0692 134.705L47.1246 130.337C46.9503 130.263 46.7607 130.233 46.572 130.248C46.3834 130.264 46.2013 130.325 46.0413 130.426L43.715 131.864L36.8248 136.126C36.6385 136.24 36.4243 136.299 36.2062 136.297C35.9881 136.296 35.7749 136.233 35.5904 136.117C35.4058 136.001 35.2574 135.835 35.1617 135.639C35.0661 135.443 35.027 135.224 35.049 135.007L35.2088 133.445L35.7238 128.206L36.1322 124.21C36.1484 124.024 36.1198 123.837 36.0487 123.664C35.9777 123.491 35.8663 123.337 35.7238 123.216L29.7925 118.19L27.4484 116.201C27.2794 116.063 27.1531 115.88 27.0839 115.673C27.0148 115.466 27.0057 115.244 27.0577 115.032C27.1098 114.82 27.2208 114.627 27.378 114.476C27.5351 114.325 27.7319 114.221 27.9456 114.177L34.3386 112.774L38.5473 111.868C38.7326 111.824 38.9048 111.737 39.0499 111.613C39.1949 111.49 39.3087 111.334 39.382 111.158L42.9336 102.634L43.5552 101.125C43.6532 100.881 43.8323 100.68 44.0621 100.553C44.2918 100.427 44.5582 100.384 44.816 100.432C44.9887 100.451 45.1543 100.511 45.2994 100.607C45.4445 100.703 45.5648 100.831 45.6506 100.983L50.9781 110.146L51.0847 110.341C51.1793 110.507 51.3129 110.646 51.4738 110.748C51.6347 110.851 51.8182 110.912 52.0081 110.927L54.068 111.069L60.8162 111.584L62.8229 111.726C63.0413 111.743 63.2507 111.82 63.4273 111.95C63.6039 112.08 63.7406 112.256 63.8219 112.46C63.9033 112.663 63.926 112.885 63.8875 113.101C63.8491 113.316 63.7509 113.517 63.6043 113.68L56.3767 121.76C56.2517 121.904 56.1637 122.076 56.1204 122.262C56.077 122.447 56.0797 122.641 56.128 122.825L58.6852 133.356C58.7452 133.57 58.7421 133.797 58.6762 134.009C58.6102 134.222 58.4844 134.411 58.3136 134.553C58.1429 134.696 57.9347 134.786 57.7139 134.813C57.4931 134.84 57.2692 134.803 57.0692 134.705Z" fill="#79756B"/>
<path d="M50.9417 110.128L35.6695 128.206L36.078 124.21C36.0942 124.024 36.0655 123.836 35.9945 123.663C35.9234 123.49 35.812 123.337 35.6695 123.215L29.7383 118.19L34.2844 112.774L38.4931 111.868C38.6784 111.824 38.8506 111.736 38.9956 111.613C39.1407 111.489 39.2545 111.333 39.3277 111.158L42.8794 102.634L44.7618 100.432C44.9345 100.451 45.1001 100.511 45.2452 100.607C45.3902 100.702 45.5106 100.831 45.5964 100.982L50.9417 110.128Z" fill="#D9D9D9"/>
<path d="M60.7807 111.584L43.7149 131.864L36.8247 136.126C36.6385 136.239 36.4242 136.298 36.2062 136.297C35.9881 136.295 35.7748 136.233 35.5903 136.116C35.4058 136 35.2573 135.835 35.1617 135.639C35.066 135.443 35.027 135.224 35.0489 135.007L35.2087 133.444L54.0325 111.069L60.7807 111.584Z" fill="#D9D9D9"/>
<path d="M64.0821 88.6582L60.637 93.0978C62.3431 94.1122 63.9382 95.3026 65.3962 96.6494L68.8768 92.3697L64.0821 88.6582Z" fill="#D9D9D9"/>
<path d="M31.4796 142.785L27.9279 147.243C26.2151 146.205 24.5986 145.017 23.0977 143.691L26.525 139.287C28.0478 140.626 29.7087 141.798 31.4796 142.785V142.785Z" fill="#D9D9D9"/>
<path d="M47.5832 83.3486L42.5931 89.0668C42.9483 89.0668 43.3213 89.0667 43.6764 88.9602C47.8004 88.6626 51.9397 89.2686 55.8053 90.736L59.57 86.2432C55.7842 84.5559 51.7218 83.575 47.5832 83.3486V83.3486ZM17.1811 121.991L12.6172 127.318C13.7388 131.194 15.5429 134.838 17.9447 138.08L21.6739 133.64C19.3462 130.13 17.8128 126.154 17.1811 121.991V121.991Z" fill="#C2BEB7"/>
<path d="M59.5726 86.2247L55.8079 90.7175C51.9423 89.2501 47.803 88.6441 43.679 88.9417C43.3238 88.9417 42.9509 88.9417 42.5957 89.0482L47.5858 83.3301C51.7244 83.5564 55.7868 84.5374 59.5726 86.2247V86.2247Z" fill="#D9D9D9"/>
<path d="M21.6045 133.569L17.8753 138.008C15.4736 134.767 13.6695 131.122 12.5479 127.247L17.1117 121.919C17.7434 126.083 19.2768 130.059 21.6045 133.569V133.569Z" fill="#D9D9D9"/>
<path d="M75.8558 128.489C76.8856 128.489 77.7204 127.655 77.7204 126.625C77.7204 125.595 76.8856 124.76 75.8558 124.76C74.826 124.76 73.9912 125.595 73.9912 126.625C73.9912 127.655 74.826 128.489 75.8558 128.489Z" fill="#D8D6CF"/>
<path d="M145.155 154.701C164.848 154.701 180.813 138.736 180.813 119.042C180.813 99.3487 164.848 83.3838 145.155 83.3838C125.461 83.3838 109.496 99.3487 109.496 119.042C109.496 138.736 125.461 154.701 145.155 154.701Z" fill="#79756B"/>
<path d="M146.291 152.144C165.298 152.144 180.706 136.735 180.706 117.728C180.706 98.7209 165.298 83.3125 146.291 83.3125C127.283 83.3125 111.875 98.7209 111.875 117.728C111.875 136.735 127.283 152.144 146.291 152.144Z" fill="#C2BEB7"/>
<path d="M146.291 152.144C165.298 152.144 180.706 136.735 180.706 117.728C180.706 98.7209 165.298 83.3125 146.291 83.3125C127.283 83.3125 111.875 98.7209 111.875 117.728C111.875 136.735 127.283 152.144 146.291 152.144Z" fill="#C2BEB7"/>
<path d="M148.688 152.073C140.933 152.612 133.224 150.51 126.815 146.111C120.406 141.712 115.675 135.273 113.39 127.843C111.105 120.412 111.402 112.427 114.232 105.187C117.062 97.9468 122.259 91.8772 128.977 87.9658V92.0147H132.937V86.0479C136.419 84.5751 140.122 83.6928 143.894 83.4374C148.175 83.1367 152.475 83.6365 156.573 84.9113V90.3987H160.551V86.4919C167.529 89.6589 173.251 95.0631 176.811 101.849C180.372 108.635 181.567 116.414 180.207 123.956C178.848 131.497 175.011 138.37 169.306 143.485C163.6 148.601 156.351 151.666 148.706 152.197L148.688 152.073Z" fill="#C2BEB7"/>
<path d="M170.807 132.899C179.198 119.361 175.025 101.584 161.487 93.193C147.948 84.8023 130.171 88.9751 121.781 102.513C113.39 116.052 117.563 133.828 131.101 142.219C144.639 150.61 162.416 146.437 170.807 132.899Z" fill="#79756B"/>
<path d="M146.45 146.55C161.102 146.55 172.981 134.672 172.981 120.019C172.981 105.367 161.102 93.4883 146.45 93.4883C131.797 93.4883 119.919 105.367 119.919 120.019C119.919 134.672 131.797 146.55 146.45 146.55Z" fill="#C2BEB7"/>
<path d="M146.255 102.208L151.724 111.584C151.817 111.749 151.951 111.888 152.112 111.988C152.274 112.087 152.458 112.144 152.648 112.152L163.462 112.969C163.677 112.988 163.883 113.066 164.057 113.195C164.23 113.324 164.365 113.498 164.445 113.698C164.526 113.898 164.55 114.117 164.515 114.33C164.479 114.543 164.385 114.742 164.244 114.905L157.016 123.003C156.892 123.144 156.803 123.312 156.757 123.494C156.711 123.677 156.708 123.867 156.75 124.05L159.325 134.599C159.378 134.81 159.37 135.031 159.303 135.238C159.236 135.444 159.111 135.628 158.944 135.767C158.777 135.906 158.574 135.995 158.359 136.024C158.143 136.053 157.924 136.021 157.726 135.931L147.8 131.562C147.625 131.488 147.436 131.458 147.247 131.473C147.058 131.489 146.876 131.55 146.716 131.651L137.482 137.351C137.298 137.471 137.084 137.535 136.865 137.538C136.646 137.54 136.431 137.48 136.245 137.365C136.058 137.249 135.909 137.083 135.813 136.886C135.718 136.688 135.681 136.468 135.706 136.25L136.789 125.453C136.806 125.264 136.777 125.074 136.706 124.898C136.635 124.723 136.524 124.566 136.381 124.441L128.106 117.426C127.937 117.288 127.81 117.105 127.741 116.898C127.672 116.691 127.663 116.469 127.715 116.257C127.767 116.045 127.878 115.853 128.035 115.701C128.192 115.55 128.389 115.446 128.603 115.402L139.258 113.094C139.442 113.054 139.615 112.97 139.76 112.85C139.905 112.729 140.019 112.575 140.093 112.401L144.195 102.35C144.282 102.157 144.42 101.991 144.594 101.87C144.767 101.749 144.971 101.678 145.182 101.663C145.393 101.648 145.605 101.691 145.794 101.787C145.982 101.883 146.142 102.028 146.255 102.208Z" fill="#9E9A90"/>
<path d="M157.657 134.705L147.712 130.336C147.538 130.263 147.349 130.232 147.16 130.248C146.971 130.263 146.789 130.324 146.629 130.425L144.303 131.864L137.413 136.126C137.226 136.239 137.012 136.298 136.794 136.297C136.576 136.295 136.363 136.233 136.178 136.116C135.994 136 135.845 135.835 135.75 135.639C135.654 135.443 135.615 135.224 135.637 135.007L135.797 133.444L136.312 128.205L136.72 124.21C136.736 124.024 136.708 123.836 136.637 123.663C136.566 123.49 136.454 123.337 136.312 123.215L130.38 118.19L128.036 116.201C127.867 116.063 127.741 115.88 127.672 115.673C127.603 115.466 127.594 115.244 127.646 115.032C127.698 114.82 127.809 114.627 127.966 114.476C128.123 114.324 128.32 114.22 128.534 114.176L134.927 112.774L139.135 111.868C139.321 111.824 139.493 111.736 139.638 111.613C139.783 111.489 139.897 111.333 139.97 111.158L143.522 102.634L144.143 101.124C144.241 100.881 144.42 100.679 144.65 100.553C144.88 100.427 145.146 100.384 145.404 100.432C145.577 100.451 145.742 100.511 145.887 100.607C146.032 100.702 146.153 100.831 146.239 100.982L151.566 110.145L151.673 110.341C151.767 110.506 151.901 110.646 152.062 110.748C152.223 110.85 152.406 110.911 152.596 110.927L154.656 111.069L161.404 111.584L163.411 111.726C163.629 111.742 163.839 111.82 164.015 111.95C164.192 112.079 164.328 112.256 164.41 112.459C164.491 112.663 164.514 112.885 164.475 113.1C164.437 113.316 164.339 113.517 164.192 113.679L156.965 121.759C156.84 121.903 156.752 122.076 156.708 122.261C156.665 122.447 156.668 122.64 156.716 122.825L159.273 133.355C159.333 133.57 159.33 133.797 159.264 134.009C159.198 134.221 159.072 134.41 158.902 134.553C158.731 134.695 158.523 134.786 158.302 134.813C158.081 134.84 157.857 134.802 157.657 134.705Z" fill="#79756B"/>
<path d="M151.53 110.128L136.257 128.206L136.666 124.21C136.682 124.024 136.653 123.836 136.582 123.663C136.511 123.49 136.4 123.337 136.257 123.215L130.326 118.19L134.872 112.774L139.081 111.868C139.266 111.824 139.438 111.736 139.584 111.613C139.729 111.489 139.842 111.333 139.916 111.158L143.467 102.634L145.35 100.432C145.522 100.451 145.688 100.511 145.833 100.607C145.978 100.702 146.098 100.831 146.184 100.982L151.53 110.128Z" fill="#D9D9D9"/>
<path d="M161.369 111.584L144.303 131.864L137.413 136.126C137.226 136.239 137.012 136.298 136.794 136.297C136.576 136.295 136.363 136.233 136.178 136.116C135.994 136 135.845 135.835 135.75 135.639C135.654 135.443 135.615 135.224 135.637 135.007L135.797 133.444L154.62 111.069L161.369 111.584Z" fill="#D9D9D9"/>
<path d="M164.671 88.6582L161.226 93.0978C162.932 94.1122 164.527 95.3026 165.985 96.6494L169.465 92.3697L164.671 88.6582Z" fill="#D9D9D9"/>
<path d="M132.067 142.785L128.516 147.243C126.803 146.205 125.186 145.017 123.686 143.691L127.113 139.287C128.636 140.626 130.297 141.798 132.067 142.785V142.785Z" fill="#D9D9D9"/>
<path d="M148.172 83.3486L143.182 89.0668C143.537 89.0668 143.91 89.0667 144.265 88.9602C148.389 88.6626 152.529 89.2686 156.394 90.736L160.159 86.2432C156.373 84.5559 152.311 83.575 148.172 83.3486V83.3486ZM117.77 121.991L113.206 127.318C114.328 131.194 116.132 134.838 118.534 138.08L122.263 133.64C119.935 130.13 118.402 126.154 117.77 121.991V121.991Z" fill="#C2BEB7"/>
<path d="M160.161 86.2247L156.396 90.7175C152.531 89.2501 148.392 88.6441 144.268 88.9417C143.912 88.9417 143.539 88.9417 143.184 89.0482L148.174 83.3301C152.313 83.5564 156.375 84.5374 160.161 86.2247V86.2247Z" fill="#D9D9D9"/>
<path d="M122.192 133.569L118.463 138.008C116.061 134.767 114.257 131.122 113.136 127.247L117.7 121.919C118.331 126.083 119.865 130.059 122.192 133.569V133.569Z" fill="#D9D9D9"/>
<path d="M176.444 128.49C177.474 128.49 178.308 127.655 178.308 126.625C178.308 125.596 177.474 124.761 176.444 124.761C175.414 124.761 174.579 125.596 174.579 126.625C174.579 127.655 175.414 128.49 176.444 128.49Z" fill="#D8D6CF"/>
</g>
</svg>
