<svg width="178" height="256" viewBox="0 0 178 256" fill="none" xmlns="http://www.w3.org/2000/svg">
<mask id="mask0_637_5747" style="mask-type:alpha" maskUnits="userSpaceOnUse" x="0" y="0" width="178" height="256">
<rect width="178" height="256" fill="#D9D9D9"/>
</mask>
<g mask="url(#mask0_637_5747)">
<path d="M7.00003 -12.0806L63.0869 86.7533L67.1109 86.7378L70.7538 86.7067L98.4014 86.5745L102.052 86.5589L107.52 86.5278L54.0054 -19.2207L48.6987 -18.4196L44.4182 -17.7662L15.6491 -13.395L11.4052 -12.7495L7.00003 -12.0806Z" fill="#18A0FB"/>
<path d="M86.3935 240.548C125.758 240.548 157.669 208.637 157.669 169.272C157.669 129.908 125.758 97.9971 86.3935 97.9971C47.0292 97.9971 15.1182 129.908 15.1182 169.272C15.1182 208.637 47.0292 240.548 86.3935 240.548Z" fill="#F2960F"/>
<path d="M88.7319 235.497C126.736 235.497 157.545 204.688 157.545 166.684C157.545 128.679 126.736 97.8706 88.7319 97.8706C50.7275 97.8706 19.9189 128.679 19.9189 166.684C19.9189 204.688 50.7275 235.497 88.7319 235.497Z" fill="#FCDE24"/>
<path d="M88.7319 235.497C126.736 235.497 157.545 204.688 157.545 166.684C157.545 128.679 126.736 97.8706 88.7319 97.8706C50.7275 97.8706 19.9189 128.679 19.9189 166.684C19.9189 204.688 50.7275 235.497 88.7319 235.497Z" fill="#FCDE24"/>
<path d="M92.3393 235.405C76.8198 236.214 61.4832 231.748 48.8248 222.732C36.1663 213.717 26.9309 200.684 22.621 185.753C18.3112 170.822 19.1805 154.872 25.0875 140.497C30.9945 126.123 41.5917 114.171 55.1549 106.585L55.1004 114.704L63.0407 114.743L63.1108 102.798C78.2172 96.745 94.9782 96.2343 110.425 101.356L110.363 112.304L118.303 112.343L118.342 104.551C132.166 111.126 143.403 122.123 150.274 135.803C157.145 149.482 159.258 165.062 156.279 180.078C153.299 195.093 145.397 208.686 133.824 218.706C122.25 228.725 107.666 234.599 92.3783 235.398L92.3393 235.405Z" fill="#FCDE24"/>
<path d="M88.7327 224.315C120.562 224.315 146.364 198.513 146.364 166.684C146.364 134.855 120.562 109.053 88.7327 109.053C56.9039 109.053 31.1016 134.855 31.1016 166.684C31.1016 198.513 56.9039 224.315 88.7327 224.315Z" fill="#F2960F"/>
<path d="M88.9722 224.314C118.271 224.314 142.022 200.563 142.022 171.264C142.022 141.966 118.271 118.215 88.9722 118.215C59.6738 118.215 35.9229 141.966 35.9229 171.264C35.9229 200.563 59.6738 224.314 88.9722 224.314Z" fill="#FCCD1D"/>
<path d="M89.1992 135.681L99.8044 154.616C99.9889 154.945 100.25 155.225 100.567 155.431C100.883 155.638 101.244 155.764 101.62 155.8L123.22 157.795C123.65 157.839 124.06 158.001 124.404 158.263C124.748 158.526 125.012 158.879 125.167 159.283C125.322 159.687 125.362 160.126 125.282 160.551C125.203 160.976 125.007 161.371 124.716 161.691L109.997 177.603C109.741 177.881 109.556 178.217 109.458 178.582C109.36 178.947 109.353 179.33 109.436 179.699L114.22 200.855C114.312 201.278 114.285 201.719 114.141 202.128C113.997 202.537 113.742 202.897 113.405 203.17C113.068 203.442 112.662 203.616 112.232 203.671C111.802 203.725 111.365 203.66 110.971 203.481L91.2719 194.411C90.9283 194.254 90.5517 194.182 90.1744 194.203C89.7971 194.223 89.4305 194.334 89.1057 194.528L70.4589 205.608C70.0842 205.828 69.6555 205.94 69.221 205.93C68.7865 205.92 68.3634 205.789 67.9992 205.552C67.635 205.314 67.3441 204.98 67.1592 204.587C66.9743 204.194 66.9027 203.757 66.9525 203.325L69.5005 181.795C69.5441 181.42 69.496 181.039 69.3603 180.686C69.2245 180.333 69.0053 180.019 68.7213 179.769L52.42 165.463C52.0937 165.175 51.8543 164.802 51.7286 164.385C51.6029 163.969 51.5959 163.525 51.7085 163.105C51.821 162.685 52.0487 162.304 52.3657 162.006C52.6827 161.708 53.0767 161.505 53.5031 161.418L74.768 157.187C75.14 157.113 75.4883 156.949 75.7829 156.71C76.0775 156.472 76.3095 156.164 76.4589 155.816L85.0303 135.899C85.2047 135.503 85.4857 135.163 85.8419 134.917C86.198 134.671 86.6154 134.529 87.0476 134.507C87.4798 134.484 87.9098 134.582 88.2897 134.789C88.6695 134.996 88.9844 135.305 89.1992 135.681V135.681Z" fill="#F2960F"/>
<path d="M110.845 201.018L91.1389 191.94C90.7946 191.784 90.4177 191.714 90.0404 191.736C89.6632 191.758 89.2967 191.87 88.9726 192.065L84.2973 194.862L70.3649 203.145C69.9902 203.366 69.5614 203.477 69.1269 203.467C68.6924 203.457 68.2693 203.326 67.9051 203.089C67.5409 202.852 67.25 202.518 67.0651 202.124C66.8802 201.731 66.8086 201.294 66.8584 200.862L67.2402 197.745L68.4558 187.312L69.3986 179.34C69.4422 178.965 69.3942 178.584 69.2584 178.231C69.1227 177.878 68.9034 177.564 68.6194 177.314L56.9311 167.067L52.3259 163.008C52.0019 162.719 51.7645 162.347 51.6401 161.931C51.5158 161.516 51.5095 161.074 51.6219 160.655C51.7343 160.236 51.9609 159.857 52.2765 159.56C52.5921 159.262 52.9842 159.059 53.409 158.971L66.2194 156.423L74.6661 154.74C75.0373 154.661 75.3847 154.496 75.6799 154.258C75.9751 154.02 76.2098 153.715 76.3648 153.369L83.6194 136.452L84.9207 133.444C85.1232 132.965 85.483 132.57 85.9407 132.323C86.3983 132.077 86.9264 131.994 87.4376 132.088C87.786 132.131 88.1192 132.257 88.4092 132.455C88.6992 132.653 88.9378 132.917 89.1051 133.226L99.4921 151.748L99.7025 152.145C99.8878 152.476 100.151 152.756 100.468 152.962C100.786 153.169 101.149 153.295 101.526 153.33L105.64 153.704L119.121 154.958L123.11 155.325C123.541 155.368 123.951 155.53 124.294 155.793C124.638 156.056 124.902 156.408 125.057 156.812C125.212 157.216 125.252 157.655 125.173 158.08C125.093 158.505 124.897 158.9 124.606 159.221L109.903 175.14C109.645 175.417 109.459 175.753 109.36 176.118C109.261 176.483 109.252 176.867 109.334 177.236L114.11 198.4C114.203 198.825 114.175 199.267 114.029 199.677C113.884 200.087 113.628 200.448 113.288 200.72C112.949 200.992 112.541 201.164 112.109 201.216C111.678 201.269 111.24 201.2 110.845 201.018V201.018Z" fill="#FCDE24"/>
<path d="M99.4614 151.732L68.4329 187.296L69.3757 179.324C69.4194 178.949 69.3712 178.568 69.2355 178.215C69.0998 177.862 68.8805 177.548 68.5965 177.298L56.9082 167.052L66.1965 156.407L74.6433 154.724C75.0145 154.646 75.3618 154.48 75.657 154.242C75.9522 154.004 76.1869 153.699 76.342 153.353L83.5965 136.436L87.4147 132.072C87.7631 132.115 88.0962 132.241 88.3863 132.439C88.6763 132.637 88.9149 132.901 89.0822 133.21L99.4614 151.732Z" fill="#FFE48D"/>
<path d="M119.09 154.943L84.2747 194.863L70.3422 203.146C69.9675 203.366 69.5388 203.477 69.1043 203.467C68.6698 203.457 68.2467 203.326 67.8825 203.089C67.5183 202.852 67.2273 202.518 67.0424 202.125C66.8575 201.731 66.7859 201.294 66.8357 200.863L67.2175 197.746L105.61 153.704L119.09 154.943Z" fill="#FFE48D"/>
<path d="M126.57 109.226L119.519 117.992C122.899 120.124 126.047 122.605 128.908 125.395L135.921 116.668L126.57 109.226Z" fill="#FFE48D"/>
<path d="M59.4176 216.291L52.3345 225.057C48.9403 222.957 45.7406 220.558 42.7734 217.888L49.7864 209.177C52.7335 211.885 55.9623 214.27 59.4176 216.291Z" fill="#FFE48D"/>
<path d="M93.6948 98.0439L83.565 109.288C84.2896 109.218 85.0065 109.171 85.7468 109.132C93.9856 108.671 102.227 110 109.903 113.028L117.601 104.184C110.076 100.689 101.973 98.6074 93.6948 98.0439ZM31.5987 174.221L22.248 184.553C24.3164 192.326 27.746 199.671 32.3779 206.247L39.9909 197.519C35.5292 190.457 32.665 182.506 31.5987 174.221V174.221Z" fill="#FCDE24"/>
<path d="M117.563 104.208L109.864 113.052C102.188 110.024 93.9471 108.694 85.7082 109.156C84.968 109.195 84.251 109.241 83.5264 109.312L93.6562 98.0674C101.934 98.6308 110.038 100.712 117.563 104.208V104.208Z" fill="#FFE48D"/>
<path d="M40.03 197.519L32.417 206.247C27.7851 199.671 24.3554 192.326 22.2871 184.553L31.6378 174.221C32.7041 182.506 35.5683 190.457 40.03 197.519V197.519Z" fill="#FFE48D"/>
<path d="M148.686 189.236C150.738 189.236 152.403 187.572 152.403 185.52C152.403 183.467 150.738 181.803 148.686 181.803C146.633 181.803 144.969 183.467 144.969 185.52C144.969 187.572 146.633 189.236 148.686 189.236Z" fill="#FFF4CD"/>
<path d="M118.302 104.559C115.754 103.31 113.121 102.24 110.425 101.356L110.479 86.1691L63.2427 85.9431L63.1648 102.798C60.4311 103.892 57.7688 105.157 55.1934 106.585L55.318 81.9302C55.3283 80.8775 55.7542 79.8715 56.503 79.1315C57.2518 78.3915 58.2627 77.9774 59.3154 77.9795L114.492 78.2444C115.545 78.2527 116.553 78.678 117.293 79.4272C118.033 80.1764 118.447 81.1885 118.443 82.2418L118.302 104.559Z" fill="#FCCD1D"/>
<path d="M132.488 189.737C136.362 188.252 138.299 183.908 136.814 180.034C135.33 176.16 130.986 174.224 127.112 175.708C123.238 177.193 121.301 181.537 122.786 185.411C124.271 189.284 128.615 191.221 132.488 189.737Z" fill="#FFF4CD"/>
<path d="M170.066 -12.8468L110.44 86.1689L106.163 86.1533L102.29 86.1221L72.8976 85.9896L69.0171 85.974L63.2041 85.9429L120.095 -20L125.737 -19.1974L130.287 -18.5429L160.872 -14.1636L165.383 -13.5169L170.066 -12.8468Z" fill="#18A0FB"/>
<path d="M106.163 86.1533L165.384 -13.5168L160.872 -14.1636L102.29 86.1222L106.163 86.1533Z" fill="white"/>
<path d="M130.288 -18.5427L72.8981 85.9898L69.0176 85.9742L125.737 -19.1973L130.288 -18.5427Z" fill="white"/>
</g>
</svg>
