<svg width="72" height="72" viewBox="0 0 72 72" fill="none" xmlns="http://www.w3.org/2000/svg">
<mask id="mask0_637_6270" style="mask-type:alpha" maskUnits="userSpaceOnUse" x="0" y="0" width="72" height="72">
<circle cx="36" cy="36" r="36" fill="#D9D9D9"/>
</mask>
<g mask="url(#mask0_637_6270)">
<circle cx="36" cy="36" r="34" fill="#D9D9D9" stroke="#18A0FB" stroke-width="2"/>
<path d="M30.427 16.0003H31.487L39.547 15.9203H42.207L34.487 2.03027C30.2547 2.11704 26.076 2.99551 22.167 4.62027L29.257 16.0403L30.427 16.0003Z" fill="#18A0FB"/>
<path d="M35.7167 59.4701C46.8066 59.4701 55.7967 50.4799 55.7967 39.3901C55.7967 28.3002 46.8066 19.3101 35.7167 19.3101C24.6268 19.3101 15.6367 28.3002 15.6367 39.3901C15.6367 50.4799 24.6268 59.4701 35.7167 59.4701Z" fill="#6B7679"/>
<path d="M36.3566 58.03C47.0598 58.03 55.7366 49.3533 55.7366 38.65C55.7366 27.9467 47.0598 19.27 36.3566 19.27C25.6533 19.27 16.9766 27.9467 16.9766 38.65C16.9766 49.3533 25.6533 58.03 36.3566 58.03Z" fill="#B7BAC2"/>
<path d="M36.3566 58.03C47.0598 58.03 55.7366 49.3533 55.7366 38.65C55.7366 27.9467 47.0598 19.27 36.3566 19.27C25.6533 19.27 16.9766 27.9467 16.9766 38.65C16.9766 49.3533 25.6533 58.03 36.3566 58.03Z" fill="#B7BAC2"/>
<path d="M37.7072 57.9898C33.3402 58.2931 28.9991 57.1098 25.3901 54.6324C21.781 52.155 19.1165 48.5293 17.83 44.3451C16.5434 40.1609 16.7106 35.6645 18.3042 31.5874C19.8978 27.5103 22.8242 24.0924 26.6072 21.8898V24.1698H28.8372V20.8098C30.7979 19.9804 32.8831 19.4836 35.0072 19.3398C37.4181 19.1705 39.8394 19.4519 42.1472 20.1698V23.2598H44.3872V21.0598C48.3166 22.8432 51.5389 25.8864 53.5438 29.7076C55.5487 33.5288 56.2217 37.9096 55.4561 42.1564C54.6905 46.4032 52.5302 50.2732 49.3172 53.1538C46.1042 56.0343 42.0221 57.7608 37.7172 58.0598L37.7072 57.9898Z" fill="#B7BAC2"/>
<path d="M50.1628 47.1927C54.8878 39.5691 52.5381 29.5586 44.9145 24.8336C37.2909 20.1086 27.2803 22.4584 22.5553 30.082C17.8304 37.7056 20.1801 47.7161 27.8037 52.4411C35.4273 57.1661 45.4378 54.8163 50.1628 47.1927Z" fill="#6B7679"/>
<path d="M36.4478 54.88C44.6989 54.88 51.3878 48.1911 51.3878 39.94C51.3878 31.6889 44.6989 25 36.4478 25C28.1967 25 21.5078 31.6889 21.5078 39.94C21.5078 48.1911 28.1967 54.88 36.4478 54.88Z" fill="#B7BAC2"/>
<path d="M36.3377 29.9099L39.4177 35.1899C39.4701 35.2829 39.5454 35.3611 39.6363 35.4171C39.7273 35.4731 39.831 35.505 39.9377 35.5099L46.0277 35.9699C46.1488 35.9807 46.2646 36.0247 46.3623 36.0971C46.4599 36.1695 46.5357 36.2675 46.5813 36.3802C46.6268 36.493 46.6402 36.6161 46.6202 36.7361C46.6002 36.856 46.5474 36.9681 46.4677 37.0599L42.3977 41.6199C42.3279 41.6994 42.2779 41.7943 42.2518 41.8969C42.2257 41.9994 42.2243 42.1067 42.2477 42.2099L43.6977 48.1499C43.7275 48.2686 43.7233 48.3933 43.6854 48.5097C43.6475 48.6261 43.5775 48.7294 43.4834 48.8078C43.3894 48.8861 43.2751 48.9364 43.1538 48.9527C43.0325 48.969 42.9091 48.9507 42.7977 48.8999L37.2077 46.4399C37.1095 46.3983 37.0028 46.3812 36.8965 46.3899C36.7903 46.3986 36.6878 46.4329 36.5977 46.4899L31.3977 49.6999C31.2942 49.7671 31.1737 49.8036 31.0503 49.8049C30.9269 49.8063 30.8057 49.7724 30.7008 49.7074C30.5959 49.6424 30.5117 49.5488 30.4581 49.4377C30.4044 49.3266 30.3834 49.2025 30.3977 49.0799L31.0077 42.9999C31.0168 42.8935 31.0007 42.7864 30.9608 42.6874C30.9208 42.5884 30.8581 42.5002 30.7777 42.4299L26.1177 38.4799C26.0225 38.4021 25.9514 38.299 25.9124 38.1825C25.8735 38.066 25.8684 37.9408 25.8977 37.8215C25.927 37.7021 25.9895 37.5936 26.078 37.5083C26.1665 37.4231 26.2773 37.3647 26.3977 37.3399L32.3977 36.0399C32.5017 36.0176 32.5987 35.9704 32.6805 35.9025C32.7624 35.8346 32.8266 35.7479 32.8677 35.6499L35.1777 29.9899C35.2268 29.8812 35.3044 29.7878 35.4023 29.7197C35.5002 29.6516 35.6148 29.6113 35.7338 29.6031C35.8528 29.5949 35.9717 29.6191 36.0781 29.6731C36.1844 29.7271 36.2741 29.809 36.3377 29.9099Z" fill="#9E9A90"/>
<path d="M42.7566 48.2101L37.1567 45.7501C37.0585 45.7086 36.9517 45.6914 36.8455 45.7001C36.7393 45.7088 36.6367 45.7431 36.5467 45.8001L35.2367 46.6101L31.3567 49.0101C31.2518 49.074 31.1311 49.1073 31.0083 49.1064C30.8855 49.1055 30.7654 49.0703 30.6615 49.0049C30.5576 48.9394 30.474 48.8462 30.4202 48.7358C30.3663 48.6255 30.3443 48.5023 30.3567 48.3801L30.4467 47.5001L30.7367 44.5501L30.9667 42.3001C30.9758 42.1952 30.9597 42.0896 30.9196 41.9922C30.8796 41.8947 30.8169 41.8083 30.7367 41.7401L27.3967 38.9101L26.0767 37.7901C25.9815 37.7124 25.9103 37.6092 25.8714 37.4927C25.8325 37.3762 25.8273 37.251 25.8567 37.1317C25.886 37.0123 25.9485 36.9038 26.037 36.8185C26.1255 36.7333 26.2363 36.6749 26.3567 36.6501L29.9567 35.8601L32.3267 35.3501C32.431 35.3252 32.528 35.276 32.6096 35.2065C32.6913 35.137 32.7554 35.0491 32.7967 34.9501L34.7967 30.1501L35.1467 29.3001C35.2019 29.1632 35.3027 29.0495 35.4321 28.9785C35.5615 28.9074 35.7115 28.8832 35.8567 28.9101C35.9539 28.921 36.0472 28.9548 36.1289 29.0087C36.2106 29.0625 36.2783 29.135 36.3267 29.2201L39.3267 34.3801L39.3867 34.4901C39.44 34.5832 39.5152 34.662 39.6058 34.7195C39.6964 34.777 39.7997 34.8115 39.9067 34.8201L41.0666 34.9001L44.8667 35.1901L45.9967 35.2701C46.1197 35.2795 46.2376 35.3231 46.337 35.3961C46.4364 35.4691 46.5134 35.5685 46.5592 35.683C46.605 35.7976 46.6179 35.9227 46.5962 36.0441C46.5745 36.1655 46.5193 36.2785 46.4367 36.3701L42.3667 40.9201C42.2963 41.0012 42.2467 41.0982 42.2223 41.2028C42.198 41.3073 42.1994 41.4162 42.2267 41.5201L43.6667 47.4501C43.7004 47.5707 43.6987 47.6985 43.6616 47.8181C43.6244 47.9377 43.5536 48.0441 43.4574 48.1244C43.3613 48.2046 43.244 48.2555 43.1197 48.2707C42.9954 48.2859 42.8693 48.2648 42.7566 48.2101Z" fill="#6B7679"/>
<path d="M39.3072 34.3701L30.7072 44.5501L30.9372 42.3001C30.9463 42.1952 30.9302 42.0896 30.8902 41.9922C30.8502 41.8948 30.7874 41.8084 30.7072 41.7401L27.3672 38.9102L29.9272 35.8601L32.2972 35.3502C32.4015 35.3253 32.4985 35.2761 32.5802 35.2065C32.6619 35.137 32.7259 35.0492 32.7672 34.9501L34.7672 30.1501L35.8272 28.9102C35.9244 28.9211 36.0177 28.9548 36.0994 29.0087C36.1811 29.0626 36.2489 29.1351 36.2972 29.2202L39.3072 34.3701Z" fill="white"/>
<path d="M44.8469 35.1899L35.2369 46.6099L31.3569 49.0099C31.252 49.0738 31.1313 49.1072 31.0085 49.1062C30.8857 49.1053 30.7656 49.0701 30.6617 49.0047C30.5578 48.9392 30.4742 48.846 30.4204 48.7357C30.3665 48.6253 30.3445 48.5021 30.3569 48.3799L30.4469 47.4999L41.0469 34.8999L44.8469 35.1899Z" fill="white"/>
<path d="M46.7076 22.2803L44.7676 24.7803C45.7283 25.3515 46.6265 26.0218 47.4476 26.7803L49.4076 24.3703L46.7076 22.2803Z" fill="white"/>
<path d="M28.347 52.76L26.347 55.27C25.3824 54.6858 24.4721 54.0165 23.627 53.27L25.5569 50.79C26.4145 51.5438 27.3497 52.2042 28.347 52.76V52.76Z" fill="white"/>
<path d="M37.4166 19.29L34.6066 22.51C34.8066 22.51 35.0166 22.51 35.2166 22.45C37.5389 22.2824 39.8698 22.6237 42.0466 23.45L44.1666 20.92C42.0347 19.9699 39.7471 19.4175 37.4166 19.29V19.29ZM20.2966 41.05L17.7266 44.05C18.3582 46.2324 19.3741 48.2845 20.7266 50.11L22.8266 47.61C21.5158 45.6336 20.6523 43.3948 20.2966 41.05V41.05Z" fill="#B7BAC2"/>
<path d="M44.1674 20.9103L42.0474 23.4403C39.8706 22.614 37.5397 22.2727 35.2174 22.4403C35.0174 22.4403 34.8074 22.4403 34.6074 22.5003L37.4174 19.2803C39.748 19.4077 42.0356 19.9601 44.1674 20.9103V20.9103Z" fill="white"/>
<path d="M22.7875 47.5698L20.6875 50.0698C19.335 48.2443 18.3191 46.1921 17.6875 44.0098L20.2575 41.0098C20.6132 43.3545 21.4767 45.5933 22.7875 47.5698V47.5698Z" fill="white"/>
<path d="M53.3371 44.7104C53.917 44.7104 54.3871 44.2402 54.3871 43.6604C54.3871 43.0805 53.917 42.6104 53.3371 42.6104C52.7572 42.6104 52.2871 43.0805 52.2871 43.6604C52.2871 44.2402 52.7572 44.7104 53.3371 44.7104Z" fill="white"/>
<path d="M44.3777 20.9999C43.6501 20.666 42.9018 20.3787 42.1377 20.1399L42.0777 15.8599L28.7677 16.0299L28.8277 20.7799C28.0626 21.0975 27.3207 21.4684 26.6077 21.8899L26.5177 14.9399C26.5158 14.7936 26.5431 14.6483 26.5981 14.5126C26.653 14.377 26.7345 14.2537 26.8377 14.1499C26.939 14.0422 27.0615 13.9564 27.1974 13.8979C27.3333 13.8394 27.4797 13.8095 27.6277 13.8099L43.1677 13.6099C43.3147 13.6086 43.4607 13.6363 43.597 13.6913C43.7334 13.7464 43.8577 13.8278 43.9626 13.9309C44.0675 14.0339 44.1511 14.1567 44.2086 14.2921C44.2661 14.4275 44.2964 14.5728 44.2977 14.7199L44.3777 20.9999Z" fill="#B7BAC2"/>
<path d="M40.9978 13.7198L36.7378 6.0498L31.5078 15.9898L33.9278 15.9598L39.7878 15.8898L40.9978 13.7198Z" fill="#18A0FB"/>
<path d="M40.8771 15.8802L39.7871 15.8902L40.8771 15.8802L42.0771 15.8602L42.1371 15.7602L41.5471 14.7002L40.8771 15.8802Z" fill="#18A0FB"/>
<path d="M30.4171 16.0002L36.1271 4.95016L35.2671 3.41016L28.9971 15.5902L29.2571 16.0102L30.4171 16.0002Z" fill="#18A0FB"/>
<path d="M39.7871 15.8897L40.8771 15.8797L41.5471 14.6997L40.9971 13.7197L39.7871 15.8897Z" fill="white"/>
<path d="M31.497 15.9902H31.507L36.737 6.0502L36.127 4.9502L30.417 16.0002H30.427L31.497 15.9902Z" fill="white"/>
<path d="M31.5078 15.99L33.9278 15.96L31.5078 15.99Z" fill="#18A0FB"/>
<path d="M30.4073 16.0098L30.4173 15.9998L29.2573 16.0098L28.9973 15.5898L28.7773 16.0298L30.4073 16.0098Z" fill="#18A0FB"/>
<path d="M31.4972 15.9902L30.4272 16.0002H30.4172L30.4072 16.0102L31.5072 15.9902H31.4972Z" fill="white"/>
<path d="M41.5469 14.7L42.1369 15.76L48.5469 4.68002L47.5469 4.27002L41.5469 14.7Z" fill="#18A0FB"/>
<path d="M40.997 13.7199L46.507 3.89993C44.0109 3.0209 41.4196 2.44019 38.787 2.16992L36.707 6.04993L40.997 13.7199Z" fill="#18A0FB"/>
<path d="M37.6176 2.07001C37.0776 2.07001 36.5376 2.01 35.9876 2L35.2676 3.41L36.1276 4.94998L37.6176 2.07001Z" fill="#18A0FB"/>
<path d="M41.5471 14.6999L47.5471 4.2699L46.5471 3.8999L41.0371 13.7199L41.5471 14.6999Z" fill="white"/>
<path d="M38.7869 2.17029L37.6169 2.07031L36.127 4.95029L36.7369 6.05029L38.7869 2.17029Z" fill="white"/>
<circle cx="36" cy="36" r="34" fill="black" fill-opacity="0.6"/>
</g>
</svg>
