<svg width="72" height="72" viewBox="0 0 72 72" fill="none" xmlns="http://www.w3.org/2000/svg">
<mask id="mask0_637_4859" style="mask-type:alpha" maskUnits="userSpaceOnUse" x="0" y="0" width="72" height="72">
<circle cx="36" cy="36" r="36" fill="#D9D9D9"/>
</mask>
<g mask="url(#mask0_637_4859)">
<circle cx="36" cy="36" r="34" fill="#D9D9D9" stroke="#18A0FB" stroke-width="2"/>
<path d="M38.0231 53.0449H33.3027L31.4512 60.7294H39.8854L38.0231 53.0449Z" fill="#FFCF03"/>
<path d="M37.4512 60.7294H39.8851L38.0242 53.0449H33.3037C33.3037 53.0449 35.5368 53.393 36.5716 54.4533C37.3254 55.2258 37.4431 58.8337 37.4512 60.7294Z" fill="#FF9E03"/>
<path d="M45.8906 37.3198C48.777 35.2742 53.9875 30.7893 52.9205 25.6619C52.476 23.5293 49.3634 22.8893 47.7689 24.9095C46.2816 26.7932 47.9724 28.484 48.1706 28.6714C48.7837 29.2444 47.9189 30.1722 47.3044 29.6005C46.879 29.2154 46.5294 28.754 46.2735 28.2404V24.9269C48.0233 21.2293 53.4145 21.8009 54.1642 25.4035C55.6529 32.5512 47.0594 38.19 45.082 39.3828C45.423 38.7253 45.694 38.0339 45.8906 37.3198V37.3198Z" fill="#F58500"/>
<path d="M23.5996 21.5908V22.714H47.7401V21.5908H23.5996Z" fill="#FFEC03"/>
<path d="M40.5642 16.9297H30.7739C29.5375 16.9297 28.3518 17.4208 27.4776 18.295C26.6034 19.1692 26.1123 20.3549 26.1123 21.5912H45.2258C45.2258 20.3549 44.7346 19.1692 43.8604 18.295C42.9862 17.4208 41.8005 16.9297 40.5642 16.9297V16.9297Z" fill="#FFCF03"/>
<path d="M37.8505 14.2275H33.4848L30.7832 16.9292H40.5561L37.8505 14.2275Z" fill="#FFEC03"/>
<path d="M34.6768 12.6543V14.2273H36.6581V12.6543H34.6768Z" fill="#FF8B00"/>
<path d="M34.6769 13.1349C35.0785 13.2099 35.5431 13.3612 35.6676 13.6704C35.7362 13.8518 35.7812 14.0412 35.8014 14.234H36.6542V12.6543H34.6729L34.6769 13.1349Z" fill="#E67D00"/>
<path d="M25.0615 22.7139V34.4749C25.0606 36.2481 25.5016 37.9937 26.3447 39.5537C27.1878 41.1137 28.4064 42.439 29.8904 43.4097H41.4479C42.9302 42.438 44.1471 41.1123 44.9885 39.5523C45.83 37.9923 46.2695 36.2473 46.2674 34.4749V22.7139H25.0615Z" fill="#FFB600"/>
<g style="mix-blend-mode:screen" opacity="0.49">
<path d="M25.0615 34.4748C25.0566 37.281 26.1604 39.9755 28.1326 41.9718C37.9056 41.4765 45.1576 32.5001 43.4105 22.7178H25.0615V34.4748Z" fill="#FFB600"/>
</g>
<path d="M29.8906 43.4102L33.3192 51.6395H38.0196L41.4455 43.4102H29.8906Z" fill="#FFCF03"/>
<path d="M30.7756 45.5348C33.1626 45.4946 36.077 45.7048 36.6581 46.9699C37.1146 47.9633 36.9339 49.875 36.6085 51.6395H38.0196L41.4455 43.4102H29.8906L30.7756 45.5348Z" fill="#FF9E03"/>
<path d="M38.0143 51.6392H33.3286C33.2428 51.6409 33.1581 51.6596 33.0795 51.6943C33.001 51.729 32.9301 51.7789 32.8709 51.8411C32.8118 51.9034 32.7656 51.9768 32.735 52.057C32.7044 52.1372 32.69 52.2227 32.6927 52.3085V52.5509H38.6568V52.3085C38.6593 52.2222 38.6446 52.1362 38.6136 52.0557C38.5825 51.9751 38.5356 51.9015 38.4758 51.8392C38.416 51.7769 38.3444 51.7271 38.2651 51.6927C38.1859 51.6584 38.1006 51.6402 38.0143 51.6392Z" fill="#FFEC03"/>
<path d="M32.6859 52.5454V52.5642C32.6832 52.65 32.6976 52.7355 32.7282 52.8157C32.7588 52.8959 32.8049 52.9693 32.8641 53.0316C32.9232 53.0938 32.9942 53.1437 33.0727 53.1784C33.1513 53.2131 33.2359 53.2318 33.3218 53.2335H38.0074C38.0932 53.2316 38.1778 53.2128 38.2563 53.178C38.3347 53.1433 38.4056 53.0934 38.4647 53.0312C38.5238 52.969 38.57 52.8957 38.6007 52.8155C38.6313 52.7354 38.6458 52.6499 38.6433 52.5642V52.5454H32.6859Z" fill="#FF8B00"/>
<path d="M40.5849 60.7295H30.7517C30.6015 60.7295 30.4527 60.7591 30.3139 60.8166C30.1751 60.8742 30.049 60.9585 29.9428 61.0648C29.8366 61.1711 29.7524 61.2973 29.695 61.4362C29.6377 61.5751 29.6082 61.7239 29.6084 61.8741H41.7282C41.7284 61.7239 41.6989 61.5751 41.6415 61.4362C41.5842 61.2973 41.5 61.1711 41.3938 61.0648C41.2876 60.9585 41.1615 60.8742 41.0227 60.8166C40.8839 60.7591 40.7351 60.7295 40.5849 60.7295Z" fill="#FF8B00"/>
<path d="M43.4142 61.874H27.9274C27.6185 61.874 27.3127 61.9349 27.0273 62.0531C26.7419 62.1713 26.4826 62.3445 26.2642 62.563C26.0457 62.7814 25.8725 63.0407 25.7542 63.3261C25.636 63.6115 25.5752 63.9173 25.5752 64.2262H45.7704C45.7704 63.917 45.7094 63.6108 45.5909 63.3251C45.4725 63.0395 45.2989 62.78 45.08 62.5615C44.8612 62.3431 44.6014 62.1699 44.3155 62.0519C44.0297 61.9339 43.7234 61.8735 43.4142 61.874V61.874Z" fill="#893003"/>
<path d="M25.4461 37.3198C22.5597 35.2742 17.3493 30.7893 18.4163 25.6619C18.8607 23.5293 21.9733 22.8893 23.5678 24.9095C25.0552 26.7932 23.3643 28.484 23.1662 28.6714C22.553 29.2444 23.4179 30.1722 24.0324 29.6005C24.4574 29.2153 24.8066 28.754 25.0619 28.2404V24.9269C23.3135 21.2293 17.9223 21.8009 17.1726 25.4035C15.6825 32.5512 24.2774 38.19 26.2547 39.3828C25.9137 38.7253 25.6427 38.0339 25.4461 37.3198V37.3198Z" fill="#FF8B00"/>
<path d="M45.8902 37.3196C45.6953 38.0334 45.426 38.7249 45.0869 39.3826C45.3386 39.23 45.6974 39.0064 46.1298 38.7132C46.3908 38.0637 46.5911 37.3915 46.7282 36.7051C46.431 36.9313 46.1512 37.1335 45.8902 37.3196Z" fill="#DB7700"/>
<path d="M30.1678 44.0795H41.167L41.4455 43.4102H29.8906L30.1678 44.0795Z" fill="#F08300"/>
<path d="M24.6133 36.708C24.7504 37.3944 24.9507 38.0666 25.2117 38.7161C25.6441 39.0053 26.0029 39.2289 26.2546 39.3855C25.9155 38.7278 25.6463 38.0364 25.4513 37.3225C25.1849 37.1337 24.9051 36.9316 24.6133 36.708Z" fill="#F08300"/>
<path d="M35.6687 13.1724C37.3508 13.1724 38.7144 11.8088 38.7144 10.1267C38.7144 8.44465 37.3508 7.08105 35.6687 7.08105C33.9866 7.08105 32.623 8.44465 32.623 10.1267C32.623 11.8088 33.9866 13.1724 35.6687 13.1724Z" fill="#FF8B00"/>
<path d="M35.6686 13.0389C37.2768 13.0389 38.5804 11.7353 38.5804 10.1271C38.5804 8.51899 37.2768 7.21533 35.6686 7.21533C34.0605 7.21533 32.7568 8.51899 32.7568 10.1271C32.7568 11.7353 34.0605 13.0389 35.6686 13.0389Z" fill="#FFCF03"/>
<path d="M35.6689 11.9677C36.6856 11.9677 37.5097 11.1436 37.5097 10.1269C37.5097 9.11028 36.6856 8.28613 35.6689 8.28613C34.6523 8.28613 33.8281 9.11028 33.8281 10.1269C33.8281 11.1436 34.6523 11.9677 35.6689 11.9677Z" fill="#FFEC03"/>
<path d="M37.9194 10.1618C37.9194 10.1296 37.9194 10.0748 37.9101 9.83511C37.9372 9.90535 37.9825 9.96714 38.0413 10.0142C38.1001 10.0612 38.1703 10.0918 38.2448 10.1029C38.2435 10.0004 38.2059 9.90166 38.1387 9.82422C38.0716 9.74678 37.9792 9.69562 37.8779 9.67981C37.8633 9.60387 37.8445 9.52879 37.8217 9.4549C37.8639 9.50529 37.9165 9.54597 37.9759 9.57416C38.0353 9.60235 38.1 9.61738 38.1658 9.61823C38.1486 9.51998 38.098 9.43066 38.0227 9.36531C37.9474 9.29995 37.8518 9.26257 37.7521 9.25944C37.7199 9.17955 37.6828 9.10175 37.641 9.0265C37.69 9.07744 37.7503 9.11611 37.8171 9.13937C37.8838 9.16263 37.9551 9.16982 38.0252 9.16037C37.9909 9.06386 37.9272 8.98053 37.8431 8.92208C37.7532 8.87175 37.6495 8.85158 37.5473 8.86451C37.497 8.78914 37.4425 8.71672 37.3839 8.64763C37.4416 8.67868 37.5054 8.69691 37.5707 8.70107C37.6361 8.70523 37.7016 8.69522 37.7628 8.67173C37.71 8.586 37.6291 8.52116 37.534 8.48823C37.4388 8.45529 37.3352 8.45626 37.2407 8.491C37.1665 8.41823 37.0878 8.35027 37.0051 8.28751C37.069 8.3045 37.1358 8.30742 37.201 8.2961C37.2662 8.28477 37.3281 8.25946 37.3826 8.2219C37.311 8.15188 37.2174 8.10872 37.1176 8.0997C37.0179 8.09067 36.9181 8.11634 36.835 8.17237C36.7661 8.12992 36.6951 8.09104 36.6222 8.0559C36.744 8.05608 36.861 8.00794 36.9475 7.92202C36.8657 7.86884 36.7683 7.8448 36.6711 7.85379C36.574 7.86277 36.4826 7.90426 36.412 7.97156C36.3098 7.93506 36.2051 7.90598 36.0987 7.88454C36.1706 7.87864 36.24 7.85532 36.3009 7.8166C36.3618 7.77788 36.4123 7.72492 36.4481 7.6623C36.3521 7.62802 36.2471 7.62854 36.1514 7.66377C36.0558 7.69901 35.9755 7.76672 35.9247 7.85508C35.843 7.84571 35.7587 7.83902 35.673 7.83768C35.7744 7.81402 35.8636 7.7539 35.9236 7.66874C35.9836 7.58358 36.0101 7.47934 35.9982 7.37587C35.9863 7.2724 35.9368 7.17692 35.859 7.10761C35.7813 7.0383 35.6807 7 35.5766 7C35.4724 7 35.3719 7.0383 35.2942 7.10761C35.2165 7.17692 35.1669 7.2724 35.155 7.37587C35.1431 7.47934 35.1696 7.58358 35.2296 7.66874C35.2896 7.7539 35.3788 7.81402 35.4802 7.83768C35.424 7.83768 35.3691 7.84705 35.3155 7.85508C35.3958 7.78136 35.4479 7.68194 35.4628 7.57395C35.369 7.57853 35.2792 7.61334 35.2068 7.67318C35.1344 7.73302 35.0833 7.81468 35.0612 7.90596C34.9742 7.92862 34.8888 7.95679 34.8055 7.9903C34.8743 7.89654 34.9062 7.78076 34.8952 7.66498C34.8036 7.69176 34.7234 7.74798 34.667 7.82494C34.6106 7.90191 34.5812 7.99532 34.5832 8.09071C34.5065 8.13146 34.4319 8.17615 34.3597 8.22458C34.406 8.11664 34.4098 7.99519 34.3704 7.88454C34.2888 7.93212 34.225 8.00517 34.189 8.09249C34.153 8.17981 34.1466 8.27655 34.1709 8.36783C34.1267 8.40398 34.0839 8.44414 34.037 8.4843C34.0489 8.38327 34.0298 8.281 33.9821 8.19111C33.9118 8.24937 33.8616 8.32837 33.8387 8.41684C33.8159 8.50531 33.8216 8.59873 33.855 8.68378C33.8072 8.74117 33.7625 8.80106 33.7211 8.86317C33.7151 8.75935 33.6756 8.66025 33.6086 8.58069C33.5505 8.65278 33.517 8.74165 33.5131 8.8342C33.5093 8.92675 33.5353 9.01809 33.5872 9.09478C33.5469 9.17479 33.5111 9.25703 33.4801 9.34111C33.4565 9.22944 33.392 9.13061 33.2994 9.06399C33.2583 9.14999 33.2468 9.24714 33.2667 9.34035C33.2865 9.43356 33.3366 9.5176 33.4091 9.57941C33.388 9.66766 33.3719 9.75706 33.361 9.84716C33.3127 9.73815 33.2238 9.65222 33.1133 9.60752C33.094 9.70101 33.1062 9.79827 33.1481 9.88404C33.19 9.96981 33.2593 10.0392 33.3449 10.0814C33.3449 10.139 33.3449 10.1993 33.3449 10.2622C33.2763 10.1791 33.1822 10.1212 33.0771 10.0975C33.073 10.1907 33.0993 10.2827 33.1519 10.3597C33.2045 10.4367 33.2807 10.4945 33.369 10.5246C33.381 10.5875 33.3944 10.6504 33.4105 10.712C33.3718 10.6637 33.3238 10.6237 33.2693 10.5945C33.2147 10.5653 33.1548 10.5474 33.0932 10.542C33.1029 10.6418 33.1469 10.7351 33.2177 10.8062C33.2885 10.8772 33.3817 10.9215 33.4814 10.9316C33.5123 11.0124 33.5476 11.0915 33.5872 11.1685C33.5189 11.0987 33.4275 11.0561 33.3301 11.0488C33.2326 11.0415 33.1359 11.07 33.058 11.1289C32.98 11.1878 32.9262 11.2731 32.9066 11.3688C32.887 11.4645 32.903 11.5641 32.9515 11.6489C33.0001 11.7337 33.0779 11.7979 33.1703 11.8294C33.2628 11.861 33.3636 11.8578 33.4538 11.8204C33.5441 11.783 33.6176 11.714 33.6606 11.6263C33.7037 11.5385 33.7133 11.4382 33.6876 11.3439C33.7482 11.4364 33.8134 11.5258 33.8831 11.6116C33.8222 11.5682 33.751 11.5414 33.6766 11.5339C33.6021 11.5263 33.527 11.5384 33.4587 11.5688C33.515 11.654 33.5995 11.7168 33.6973 11.7461C33.7952 11.7755 33.9003 11.7696 33.9942 11.7295C34.0512 11.7878 34.1115 11.8428 34.1749 11.8941C34.083 11.8557 33.9802 11.8522 33.8859 11.8843C33.7916 11.9163 33.7123 11.9818 33.6629 12.0683C33.6135 12.1548 33.5974 12.2563 33.6176 12.3539C33.6379 12.4514 33.6931 12.5382 33.7728 12.5978C33.8526 12.6575 33.9514 12.6859 34.0507 12.6778C34.15 12.6697 34.2429 12.6255 34.3119 12.5537C34.3809 12.4818 34.4213 12.3872 34.4254 12.2877C34.4295 12.1882 34.3971 12.0906 34.3343 12.0133C34.3973 12.0563 34.4626 12.0961 34.5297 12.1324C34.5451 12.1453 34.5612 12.1574 34.5779 12.1686C34.5055 12.1504 34.4296 12.1518 34.3578 12.1725C34.2861 12.1932 34.2212 12.2325 34.1696 12.2864C34.2553 12.3424 34.3565 12.37 34.4587 12.3654C34.5604 12.3517 34.6546 12.3046 34.7265 12.2315C34.8028 12.2636 34.8818 12.2917 34.9635 12.3172C34.9882 12.3312 35.0142 12.3429 35.0411 12.352C34.9663 12.3517 34.8929 12.3711 34.828 12.4082C34.7632 12.4454 34.7092 12.4989 34.6716 12.5635C34.7682 12.5976 34.8732 12.6004 34.9715 12.5715C35.0687 12.5339 35.15 12.4639 35.2018 12.3734C35.2903 12.3895 35.3797 12.4007 35.4695 12.4069C35.4894 12.4113 35.5095 12.4144 35.5298 12.4162C35.4574 12.4343 35.391 12.471 35.3372 12.5226C35.2834 12.5743 35.2441 12.6392 35.2232 12.7108C35.3241 12.7232 35.4263 12.7 35.512 12.6453C35.5978 12.5906 35.6618 12.5077 35.6931 12.4109C35.7654 12.4109 35.8363 12.4029 35.9073 12.3935C35.8557 12.4288 35.812 12.4744 35.7788 12.5274C35.7457 12.5803 35.7238 12.6396 35.7145 12.7014C35.8121 12.6985 35.9058 12.6626 35.9804 12.5997C36.0551 12.5367 36.1062 12.4504 36.1255 12.3547C36.2531 12.3253 36.378 12.2854 36.499 12.2355C36.453 12.2811 36.4173 12.336 36.3942 12.3964C36.3711 12.4569 36.3612 12.5216 36.3651 12.5863C36.4618 12.5613 36.5468 12.5033 36.6055 12.4225C36.6641 12.3416 36.6927 12.2428 36.6864 12.1431C36.7878 12.0898 36.8846 12.028 36.9756 11.9584C36.9274 12.0155 36.8951 12.0843 36.882 12.1579C36.8688 12.2314 36.8753 12.3071 36.9006 12.3774C36.9898 12.3278 37.0589 12.2486 37.096 12.1536C37.1331 12.0586 37.136 11.9536 37.1041 11.8566C37.2126 11.7616 37.2527 11.712 37.3384 11.6277C37.3059 11.6948 37.2914 11.7692 37.2963 11.8436C37.3012 11.918 37.3254 11.9899 37.3665 12.0521C37.4416 11.9831 37.4901 11.8899 37.5033 11.7888C37.5165 11.6877 37.4937 11.5851 37.4388 11.4992C37.4867 11.4382 37.5314 11.3747 37.5727 11.3091C37.5643 11.3737 37.5698 11.4393 37.5887 11.5016C37.6076 11.5639 37.6396 11.6215 37.6825 11.6705C37.7435 11.5922 37.776 11.4953 37.7745 11.396C37.773 11.2967 37.7377 11.2009 37.6744 11.1243C37.7162 11.0375 37.7525 10.948 37.7829 10.8566C37.7794 10.9545 37.8118 11.0502 37.874 11.1259C37.9361 11.2016 38.0238 11.2519 38.1205 11.2675C38.2172 11.283 38.3163 11.2627 38.399 11.2103C38.4818 11.1579 38.5426 11.0771 38.5699 10.9831C38.5973 10.889 38.5893 10.7882 38.5475 10.6996C38.5057 10.6111 38.433 10.5408 38.3431 10.5021C38.2531 10.4633 38.1521 10.4588 38.059 10.4893C37.966 10.5198 37.8873 10.5833 37.8378 10.6678C37.8793 10.4991 37.8766 10.455 37.8993 10.3345C37.9102 10.4082 37.94 10.4779 37.9857 10.5368C38.0314 10.5957 38.0916 10.6417 38.1604 10.6705C38.1861 10.57 38.1742 10.4637 38.1268 10.3714C38.0795 10.2792 38 10.2075 37.9034 10.1698L37.9194 10.1618ZM37.8833 10.1778C37.7949 10.2152 37.7218 10.2816 37.676 10.366C37.6303 10.4504 37.6146 10.5479 37.6316 10.6424C37.7204 10.6089 37.798 10.5508 37.8552 10.475C37.8458 10.5366 37.8324 10.5982 37.8177 10.6584C37.72 10.6738 37.6305 10.7219 37.5638 10.7949C37.4971 10.8679 37.4573 10.9614 37.4509 11.0601C37.5594 11.0465 37.6602 10.997 37.7374 10.9195C37.7133 10.9824 37.6878 11.0427 37.6584 11.1029C37.5592 11.0959 37.4606 11.1234 37.3794 11.1807C37.2981 11.238 37.2392 11.3217 37.2126 11.4175C37.3273 11.4261 37.4412 11.3933 37.5339 11.3251C37.4991 11.38 37.4629 11.4323 37.4241 11.4818C37.329 11.4631 37.2304 11.4769 37.1442 11.5211C37.0579 11.5654 36.9891 11.6373 36.9488 11.7254C37.0374 11.746 37.1299 11.7423 37.2166 11.7147C37.1751 11.7549 37.1322 11.7951 37.0827 11.8325C36.9954 11.7913 36.8967 11.7808 36.8027 11.8026C36.7086 11.8245 36.6248 11.8775 36.5646 11.953C36.6526 11.9992 36.7525 12.0174 36.8511 12.0052C36.7966 12.0409 36.7404 12.0744 36.6824 12.1056C36.6065 12.0421 36.5113 12.0062 36.4123 12.0038C36.3134 12.0014 36.2165 12.0326 36.1376 12.0923C36.2252 12.1703 36.3388 12.2128 36.4562 12.2114C36.3513 12.2531 36.2435 12.2867 36.1335 12.3118C36.0741 12.2316 35.9914 12.1717 35.8966 12.1405C35.797 12.117 35.6926 12.1255 35.598 12.1645C35.6672 12.2644 35.7731 12.3327 35.8926 12.3547C35.8243 12.3627 35.7587 12.368 35.685 12.3694C35.6377 12.2848 35.5637 12.2184 35.4745 12.1806C35.3853 12.1428 35.286 12.1357 35.1924 12.1605C35.2318 12.239 35.2908 12.3059 35.3637 12.3547C35.3075 12.348 35.254 12.3399 35.1991 12.3292C35.1731 12.238 35.1173 12.1581 35.0407 12.1023C34.964 12.0465 34.8708 12.018 34.776 12.0213C34.7955 12.1052 34.8355 12.183 34.8925 12.2476C34.839 12.2288 34.7854 12.2087 34.7345 12.186C34.7309 12.0909 34.6956 11.9997 34.6342 11.9269C34.5729 11.8541 34.489 11.804 34.3958 11.7843C34.3926 11.8781 34.4158 11.9709 34.4628 12.0521L34.3543 11.9811C34.3742 11.8856 34.3614 11.7861 34.318 11.6987C34.2745 11.6112 34.2029 11.541 34.1147 11.4992C34.0895 11.6063 34.1003 11.7188 34.1455 11.8191C34.1013 11.7803 34.0584 11.7388 34.0116 11.6973C34.0454 11.6067 34.0477 11.5073 34.0181 11.4152C33.9885 11.3232 33.9286 11.2438 33.8483 11.1899C33.8116 11.2784 33.8009 11.3754 33.8175 11.4697C33.7813 11.4215 33.7465 11.372 33.7144 11.3211C33.7707 11.2417 33.7984 11.1455 33.7931 11.0482C33.7877 10.951 33.7496 10.8584 33.6849 10.7856C33.6184 10.8741 33.5844 10.9829 33.5886 11.0935C33.5618 11.0373 33.5363 10.9811 33.5149 10.9222C33.5905 10.858 33.6418 10.7697 33.6601 10.6722C33.6783 10.5747 33.6625 10.4739 33.6153 10.3867C33.5672 10.4246 33.5273 10.472 33.498 10.5258C33.4688 10.5797 33.4509 10.6389 33.4453 10.6999C33.4306 10.6477 33.4185 10.5942 33.4078 10.5393C33.5039 10.4944 33.5791 10.4144 33.618 10.3157C33.6495 10.2182 33.6495 10.1133 33.618 10.0158C33.554 10.0533 33.5004 10.1063 33.4623 10.17C33.4242 10.2336 33.4026 10.3058 33.3998 10.38C33.3998 10.3666 33.3891 10.3519 33.3824 10.3371C33.3752 10.2584 33.3721 10.1793 33.373 10.1002C33.4693 10.0639 33.5508 9.99652 33.6046 9.90874C33.6505 9.81689 33.6665 9.71293 33.6501 9.61154C33.5867 9.63589 33.5297 9.67434 33.4833 9.72397C33.4369 9.7736 33.4024 9.83312 33.3824 9.89803C33.3918 9.80251 33.4075 9.7077 33.4292 9.61422C33.5306 9.59951 33.6244 9.55256 33.697 9.48034C33.7631 9.40209 33.8033 9.30527 33.8121 9.20322C33.7385 9.21247 33.6683 9.24014 33.6082 9.28366C33.5481 9.32718 33.4999 9.38515 33.468 9.45222C33.5013 9.34277 33.5434 9.23621 33.5939 9.1336C33.6454 9.14554 33.6988 9.1472 33.7509 9.13847C33.8031 9.12974 33.853 9.11079 33.8978 9.08272C33.9807 9.02223 34.0429 8.9376 34.0758 8.84041C34.002 8.83167 33.9272 8.84183 33.8583 8.86993C33.7895 8.89803 33.7289 8.94315 33.6823 9.00106C33.6883 8.9841 33.6928 8.96662 33.6957 8.94885C33.7439 8.87204 33.7962 8.79786 33.8523 8.72662C33.8999 8.75117 33.9522 8.76541 34.0057 8.76841C34.0593 8.77141 34.1128 8.7631 34.1629 8.74402C34.2561 8.70185 34.3337 8.63165 34.3851 8.54321C34.3145 8.51981 34.2391 8.51478 34.166 8.5286C34.0929 8.54242 34.0246 8.57464 33.9674 8.6222C33.9791 8.60261 33.989 8.58199 33.9969 8.56061C34.0478 8.5084 34.1013 8.45887 34.1575 8.41067C34.2483 8.4627 34.3546 8.48074 34.4574 8.46155C34.5562 8.43448 34.6438 8.37683 34.7077 8.29687C34.6436 8.2638 34.5722 8.2471 34.5001 8.24827C34.4279 8.24944 34.3571 8.26844 34.2941 8.30357C34.3789 8.24095 34.4684 8.18501 34.5618 8.13623C34.6392 8.20488 34.7371 8.24585 34.8403 8.2527C34.9423 8.25025 35.041 8.21609 35.1228 8.15497C35.069 8.1069 35.0042 8.07304 34.934 8.05644C34.8639 8.03984 34.7907 8.04103 34.7211 8.05992C34.8211 8.01541 34.9245 7.97914 35.0304 7.95148C35.0852 8.04092 35.171 8.10713 35.2714 8.13756C35.3719 8.15928 35.4766 8.14947 35.5713 8.10945C35.5284 8.0486 35.4707 7.99962 35.4038 7.96708C35.3368 7.93454 35.2627 7.91949 35.1884 7.92336L35.2165 7.90864C35.3002 7.89405 35.3847 7.88421 35.4695 7.87918C35.5115 7.96627 35.5817 8.03664 35.6687 8.07891C35.7556 8.12118 35.8543 8.13288 35.9488 8.11212C35.9057 8.01143 35.8297 7.92836 35.7332 7.87651C35.7922 7.87651 35.8497 7.88454 35.9073 7.89257C35.9357 7.98534 35.9941 8.06605 36.0733 8.12203C36.1525 8.178 36.2481 8.20607 36.345 8.20183C36.3198 8.1025 36.2641 8.01355 36.1857 7.94746V7.94746C36.2491 7.96352 36.3107 7.98226 36.3705 8.00368C36.3714 8.10379 36.4067 8.20053 36.4706 8.2776C36.5345 8.35466 36.623 8.40734 36.7212 8.42674C36.7223 8.36393 36.7102 8.30161 36.6858 8.24374C36.6613 8.18588 36.6251 8.13375 36.5793 8.09071C36.6548 8.12662 36.7281 8.16685 36.7989 8.2112C36.7832 8.30884 36.8012 8.40891 36.8498 8.49502C36.8985 8.58112 36.9749 8.64814 37.0666 8.68512C37.0963 8.57292 37.0835 8.4537 37.0305 8.35043C37.0956 8.40219 37.1577 8.45762 37.2166 8.51643C37.1783 8.60668 37.1716 8.70722 37.1976 8.80174C37.2236 8.89627 37.2808 8.97924 37.3598 9.03721C37.4093 8.93307 37.4183 8.8143 37.3853 8.70386C37.4333 8.76431 37.478 8.82732 37.5191 8.89262C37.4626 8.97045 37.4342 9.06517 37.4386 9.16125C37.443 9.25732 37.4799 9.34906 37.5433 9.42143C37.6108 9.33552 37.6475 9.22947 37.6477 9.12021C37.6718 9.16841 37.6932 9.21661 37.7133 9.26614C37.6443 9.33549 37.6007 9.42605 37.5896 9.52321C37.5784 9.62036 37.6003 9.71845 37.6517 9.80164C37.7343 9.72487 37.7862 9.62066 37.7976 9.50846C37.8137 9.56736 37.8284 9.6276 37.8405 9.68919C37.7634 9.74716 37.7082 9.82953 37.6839 9.92288C37.6595 10.0162 37.6676 10.1151 37.7066 10.2033C37.78 10.152 37.8387 10.0823 37.8766 10.0011C37.8846 10.0667 37.8846 10.1216 37.8833 10.1778Z" fill="#FF8B00"/>
<g style="mix-blend-mode:screen">
<path d="M27.2657 36.7322C27.5147 38.3856 28.259 39.6641 28.9846 40.3388C28.2255 39.7002 27.4076 38.4552 27.0675 36.7657C26.6298 34.8794 26.7061 26.4064 26.7315 24.4585C26.7354 24.3519 26.7814 24.2513 26.8595 24.1788C26.9376 24.1062 27.0413 24.0677 27.1478 24.0716C27.2543 24.0755 27.355 24.1215 27.4275 24.1996C27.5001 24.2777 27.5387 24.3814 27.5348 24.4879C27.4196 26.4238 26.9189 34.8312 27.2657 36.7322Z" fill="#F9C569"/>
</g>
<g style="mix-blend-mode:screen">
<path d="M27.7566 18.9884C27.9687 18.6246 28.2659 18.3178 28.6226 18.0942C28.9794 17.8706 29.3851 17.7368 29.8049 17.7045C31.4047 17.5586 36.891 17.7741 38.5068 17.8384C36.9231 17.825 31.4114 17.7848 29.8397 17.9722C29.7058 17.987 29.5934 18.0218 29.4702 18.0445C29.347 18.0673 29.2373 18.1275 29.1208 18.1677C27.7245 18.7902 27.6174 20.6123 27.6241 20.5895C27.6194 20.6428 27.5939 20.692 27.5529 20.7264C27.512 20.7608 27.4591 20.7775 27.4059 20.7729C27.3526 20.7683 27.3033 20.7427 27.2689 20.7018C27.2345 20.6609 27.2178 20.608 27.2224 20.5547C27.2896 20.0011 27.4715 19.4676 27.7566 18.9884Z" fill="#F9C569"/>
</g>
</g>
</svg>
