<svg width="178" height="256" viewBox="0 0 178 256" fill="none" xmlns="http://www.w3.org/2000/svg">
<mask id="mask0_637_6290" style="mask-type:alpha" maskUnits="userSpaceOnUse" x="0" y="0" width="178" height="256">
<rect width="178" height="256" fill="#D9D9D9"/>
</mask>
<g mask="url(#mask0_637_6290)">
<path d="M95.9758 176.744L96.191 176.287H81.8135C83.2077 179.074 83.9336 182.148 83.9336 185.264C83.9336 188.38 83.2077 191.454 81.8135 194.241H96.191C94.8305 191.532 94.1041 188.548 94.0668 185.517C94.0295 182.486 94.6823 179.486 95.9758 176.744V176.744Z" fill="#D67205"/>
<path d="M96.191 194.241C94.8305 191.532 94.1041 188.548 94.0668 185.517C94.0295 182.486 94.6823 179.486 95.9758 176.744L96.191 176.287H81.8135C82.2935 177.247 82.694 178.244 83.0107 179.27C85.5575 179.706 89.081 180.693 90.5986 182.946C92.2474 185.366 92.4313 190.822 92.363 194.256L96.191 194.241Z" fill="#BA6304"/>
<path d="M118.036 87.6434H127.415C145.269 87.6434 159.793 72.0739 159.793 52.9389V36.3926C159.793 31.2202 151.775 31.1992 151.775 36.3926V39.5433C151.775 42.7727 149.323 45.3983 146.309 45.3983H134.725V40.8875H146.309C146.653 40.8752 146.979 40.7268 147.214 40.4748C147.449 40.2228 147.575 39.8878 147.564 39.5433V36.3926C147.564 25.2077 163.999 25.1972 163.999 36.3926V52.9389C163.999 74.5629 147.59 92.1594 127.415 92.1594H110.317C113.058 90.9609 115.649 89.4452 118.036 87.6434V87.6434Z" fill="#FFC003"/>
<path d="M59.9683 87.6434H50.5845C32.7307 87.6434 18.2114 72.0739 18.2114 52.9389V36.3926C18.2114 31.2202 26.2299 31.1992 26.2299 36.3926V39.5433C26.2299 42.7727 28.6769 45.3983 31.691 45.3983H43.2749V40.8875H31.691C31.3465 40.8752 31.0209 40.7268 30.7857 40.4748C30.5504 40.2228 30.4247 39.8878 30.436 39.5433V36.3926C30.436 25.2077 14 25.1972 14 36.3926V52.9389C14 74.5629 30.4097 92.1594 50.5845 92.1594H67.6822C64.9432 90.9608 62.3542 89.4451 59.9683 87.6434Z" fill="#FFCF03"/>
<path d="M127.415 87.6436H118.036C115.649 89.4453 113.058 90.961 110.317 92.1595H122.474C124.385 90.7886 126.192 89.2792 127.882 87.6436H127.415Z" fill="#FFA303"/>
<path d="M142.491 40.9014H134.725V45.4121H142.491V40.9014Z" fill="#FFA303"/>
<path d="M43.2801 40.9014H35.5137V45.4121H43.2801V40.9014Z" fill="#FFA303"/>
<path d="M50.5848 87.6436H50.1174C51.8085 89.278 53.6162 90.7873 55.5261 92.1595H67.6824C64.9434 90.961 62.3544 89.4453 59.9685 87.6436H50.5848Z" fill="#FFA303"/>
<path d="M134.317 28.2744H43.6833C41.6903 28.2744 39.779 29.0661 38.3698 30.4753C36.9606 31.8845 36.1689 33.7958 36.1689 35.7888H141.832C141.832 33.7958 141.04 31.8845 139.631 30.4753C138.222 29.0661 136.31 28.2744 134.317 28.2744Z" fill="#FFDC01"/>
<path d="M41.4141 35.7881V53.2585C41.4335 63.7674 45.3864 73.8881 52.4947 81.6281C59.603 89.3681 69.3515 94.1665 79.8207 95.0784H98.1996C108.669 94.1665 118.417 89.3681 125.526 81.6281C132.634 73.8881 136.587 63.7674 136.606 53.2585V35.7881H41.4141Z" fill="#FFB600"/>
<g style="mix-blend-mode:screen" opacity="0.27">
<path d="M49.2094 50.2822C46.5366 50.2822 43.9268 50.3925 41.4063 50.5973V53.2596C41.4006 58.8078 42.5006 64.3016 44.6419 69.42C46.7832 74.5384 49.9229 79.1788 53.8777 83.0702C73.6481 82.1145 88.9918 75.162 88.9918 66.7339C89.0023 57.6443 71.1906 50.2822 49.2094 50.2822Z" fill="#FFB600"/>
</g>
<path d="M124.037 35.7881V45.4659C124.037 67.3998 107.233 86.3458 85.6299 87.291C81.1349 87.4853 71.977 87.4958 67.251 87.291C63.1528 87.0219 59.1288 86.067 55.3467 84.4659C62.1327 90.56 70.715 94.2845 79.8011 95.0784H98.18C108.649 94.1665 118.398 89.3681 125.506 81.6281C132.614 73.8881 136.567 63.7674 136.587 53.2585V35.7881H124.037Z" fill="#FF8800"/>
<path d="M80.3613 95.0801V105.057H97.6428V95.0801H80.3613Z" fill="#D67205"/>
<path d="M80.3574 101.014H97.6441V95.0801H80.3574V101.014Z" fill="#C96B05"/>
<path d="M76.4512 105.081V113.777H101.552V105.081H76.4512Z" fill="#FFCF03"/>
<path d="M103.373 113.778H74.6282C74.3091 113.778 73.9932 113.841 73.6985 113.963C73.4038 114.086 73.1362 114.265 72.9108 114.491C72.6855 114.717 72.5069 114.985 72.3853 115.28C72.2637 115.575 72.2015 115.891 72.2022 116.21V118.111H105.809V116.21C105.81 115.89 105.747 115.573 105.625 115.277C105.503 114.982 105.323 114.713 105.097 114.487C104.87 114.261 104.602 114.082 104.306 113.96C104.01 113.839 103.693 113.777 103.373 113.778V113.778Z" fill="#FFDC01"/>
<path d="M68.9639 118.11L82.0916 163.433H96.0176L109.019 118.11H68.9639Z" fill="#FF8B00"/>
<g style="mix-blend-mode:screen" opacity="0.47">
<path d="M82.1127 163.433H83.5094C89.3959 157.761 93.2818 147.968 93.2818 136.846C93.348 130.366 91.9271 123.956 89.1282 118.11H68.9639L82.1127 163.433Z" fill="#FF8B00"/>
</g>
<path d="M95.9436 163.432H82.0597C80.3622 163.429 78.7323 164.096 77.5246 165.289C76.3169 166.482 75.6293 168.104 75.6113 169.801H102.392C102.373 168.104 101.685 166.483 100.477 165.291C99.2698 164.098 97.6407 163.43 95.9436 163.432V163.432Z" fill="#FFDC01"/>
<path d="M102.395 169.804H75.6145C75.6069 170.655 75.7681 171.499 76.0889 172.288C76.4096 173.076 76.8836 173.793 77.4832 174.397C78.0829 175.001 78.7964 175.48 79.5825 175.807C80.3686 176.133 81.2116 176.301 82.0628 176.299H95.9416C96.793 176.301 97.6363 176.133 98.4226 175.807C99.209 175.48 99.9229 175.001 100.523 174.397C101.123 173.793 101.598 173.076 101.919 172.288C102.24 171.499 102.402 170.655 102.395 169.804V169.804Z" fill="#FF8B00"/>
<path d="M101.847 194.241H76.1486C74.9374 194.243 73.7762 194.724 72.9197 195.581C72.0633 196.437 71.5815 197.598 71.5801 198.81V200.385H106.442V198.81C106.442 198.208 106.322 197.612 106.091 197.056C105.859 196.5 105.52 195.996 105.093 195.572C104.666 195.147 104.16 194.811 103.603 194.583C103.046 194.355 102.449 194.238 101.847 194.241V194.241Z" fill="#FFDC01"/>
<path d="M64.7659 200.368V223.473H113.239V200.368H64.7659Z" fill="#FFB600"/>
<g style="mix-blend-mode:screen" opacity="0.35">
<path d="M64.7659 221.547C66.4725 221.688 68.2211 221.757 70.017 221.757C88.921 221.757 104.27 213.591 104.27 203.509C104.265 202.437 104.088 201.374 103.745 200.358H64.7659V221.547Z" fill="#FFB600"/>
</g>
<path d="M114.07 223.459H63.9111C62.7969 223.459 61.7284 223.902 60.9406 224.689C60.1528 225.477 59.7102 226.546 59.7102 227.66V228.106H118.26V227.66C118.26 226.548 117.819 225.481 117.033 224.693C116.248 223.906 115.182 223.462 114.07 223.459Z" fill="#FFDC01"/>
<g style="mix-blend-mode:screen">
<g style="mix-blend-mode:screen">
<path d="M130.669 32.9158H76.3356C76.2136 32.9252 76.0911 32.9093 75.9756 32.8691C75.8601 32.8289 75.7542 32.7652 75.6644 32.6822C75.5747 32.5991 75.5031 32.4984 75.4541 32.3863C75.4051 32.2742 75.3799 32.1533 75.3799 32.031C75.3799 31.9087 75.4051 31.7877 75.4541 31.6757C75.5031 31.5636 75.5747 31.4629 75.6644 31.3798C75.7542 31.2967 75.8601 31.2331 75.9756 31.1929C76.0911 31.1527 76.2136 31.1368 76.3356 31.1462H130.669C130.892 31.1634 131.1 31.264 131.252 31.4281C131.404 31.5921 131.488 31.8074 131.488 32.031C131.488 32.2545 131.404 32.4698 131.252 32.6339C131.1 32.7979 130.892 32.8986 130.669 32.9158V32.9158Z" fill="#FFED78"/>
</g>
</g>
<g style="mix-blend-mode:screen">
<g style="mix-blend-mode:screen">
<path d="M71.3134 32.9158H58.3221C58.2002 32.9252 58.0776 32.9093 57.9621 32.8691C57.8467 32.8289 57.7407 32.7652 57.651 32.6822C57.5613 32.5991 57.4897 32.4984 57.4407 32.3863C57.3918 32.2742 57.3665 32.1533 57.3665 32.031C57.3665 31.9087 57.3918 31.7877 57.4407 31.6757C57.4897 31.5636 57.5613 31.4629 57.651 31.3798C57.7407 31.2967 57.8467 31.2331 57.9621 31.1929C58.0776 31.1527 58.2002 31.1368 58.3221 31.1462H71.3134C71.4353 31.1368 71.5579 31.1527 71.6734 31.1929C71.7889 31.2331 71.8948 31.2967 71.9845 31.3798C72.0742 31.4629 72.1459 31.5636 72.1948 31.6757C72.2438 31.7877 72.269 31.9087 72.269 32.031C72.269 32.1533 72.2438 32.2742 72.1948 32.3863C72.1459 32.4984 72.0742 32.5991 71.9845 32.6822C71.8948 32.7652 71.7889 32.8289 71.6734 32.8691C71.5579 32.9093 71.4353 32.9252 71.3134 32.9158V32.9158Z" fill="#FFED78"/>
</g>
</g>
<g style="mix-blend-mode:screen">
<g style="mix-blend-mode:screen">
<path d="M52.2844 32.9158H42.3072C42.1853 32.9252 42.0627 32.9093 41.9472 32.8691C41.8318 32.8289 41.7258 32.7652 41.6361 32.6822C41.5464 32.5991 41.4748 32.4984 41.4259 32.3863C41.3769 32.2742 41.3516 32.1533 41.3516 32.031C41.3516 31.9087 41.3769 31.7877 41.4259 31.6757C41.4748 31.5636 41.5464 31.4629 41.6361 31.3798C41.7258 31.2967 41.8318 31.2331 41.9472 31.1929C42.0627 31.1527 42.1853 31.1368 42.3072 31.1462H52.2844C52.4063 31.1368 52.5288 31.1527 52.6443 31.1929C52.7598 31.2331 52.8658 31.2967 52.9555 31.3798C53.0452 31.4629 53.1168 31.5636 53.1658 31.6757C53.2148 31.7877 53.24 31.9087 53.24 32.031C53.24 32.1533 53.2148 32.2742 53.1658 32.3863C53.1168 32.4984 53.0452 32.5991 52.9555 32.6822C52.8658 32.7652 52.7598 32.8289 52.6443 32.8691C52.5288 32.9093 52.4063 32.9252 52.2844 32.9158V32.9158Z" fill="#FFED78"/>
</g>
</g>
</g>
</svg>
