<svg width="70" height="70" viewBox="0 0 70 70" fill="none" xmlns="http://www.w3.org/2000/svg">
<circle cx="35" cy="35" r="34" fill="#D9D9D9" stroke="#18A0FB" stroke-width="2"/>
<path d="M32.7172 51.1919C43.8071 51.1919 52.7972 42.2017 52.7972 31.1119C52.7972 20.022 43.8071 11.0319 32.7172 11.0319C21.6273 11.0319 12.6372 20.022 12.6372 31.1119C12.6372 42.2017 21.6273 51.1919 32.7172 51.1919Z" fill="#79756B"/>
<path d="M33.357 49.7518C44.0603 49.7518 52.737 41.0751 52.737 30.3718C52.737 19.6685 44.0603 10.9918 33.357 10.9918C22.6538 10.9918 13.9771 19.6685 13.9771 30.3718C13.9771 41.0751 22.6538 49.7518 33.357 49.7518Z" fill="#C2BEB7"/>
<path d="M33.357 49.7518C44.0603 49.7518 52.737 41.0751 52.737 30.3718C52.737 19.6685 44.0603 10.9918 33.357 10.9918C22.6538 10.9918 13.9771 19.6685 13.9771 30.3718C13.9771 41.0751 22.6538 49.7518 33.357 49.7518Z" fill="#C2BEB7"/>
<path d="M34.7072 49.7118C30.3402 50.0152 25.9991 48.8319 22.3901 46.3545C18.781 43.8771 16.1165 40.2513 14.83 36.0672C13.5434 31.883 13.7106 27.3866 15.3042 23.3095C16.8979 19.2324 19.8242 15.8145 23.6072 13.6118V15.8918H25.8372V12.5318C27.7979 11.7025 29.8831 11.2057 32.0072 11.0618C34.4181 10.8925 36.8394 11.174 39.1472 11.8918V14.9819H41.3872V12.7818C45.3166 14.5652 48.5389 17.6085 50.5438 21.4297C52.5487 25.2509 53.2217 29.6317 52.4561 33.8784C51.6905 38.1252 49.5302 41.9952 46.3172 44.8758C43.1042 47.7564 39.0221 49.4828 34.7172 49.7818L34.7072 49.7118Z" fill="#C2BEB7"/>
<path d="M47.1628 38.9145C51.8878 31.2909 49.5381 21.2804 41.9145 16.5554C34.2909 11.8304 24.2803 14.1802 19.5553 21.8038C14.8304 29.4274 17.1801 39.4379 24.8037 44.1629C32.4273 48.8879 42.4378 46.5381 47.1628 38.9145Z" fill="#79756B"/>
<path d="M33.4473 46.6018C41.6985 46.6018 48.3873 39.9129 48.3873 31.6618C48.3873 23.4107 41.6985 16.7218 33.4473 16.7218C25.1962 16.7218 18.5073 23.4107 18.5073 31.6618C18.5073 39.9129 25.1962 46.6018 33.4473 46.6018Z" fill="#C2BEB7"/>
<path d="M33.3372 21.6319L36.4172 26.9119C36.4696 27.005 36.5449 27.0832 36.6358 27.1391C36.7268 27.1951 36.8305 27.2271 36.9372 27.2319L43.0272 27.6919C43.1483 27.7027 43.2641 27.7467 43.3618 27.8191C43.4594 27.8915 43.5352 27.9895 43.5808 28.1023C43.6263 28.215 43.6397 28.3382 43.6197 28.4581C43.5997 28.578 43.5469 28.6901 43.4672 28.7819L39.3972 33.3419C39.3274 33.4214 39.2774 33.5164 39.2513 33.6189C39.2253 33.7215 39.2238 33.8287 39.2472 33.9319L40.6972 39.8719C40.727 39.9906 40.7228 40.1154 40.6849 40.2318C40.647 40.3482 40.577 40.4515 40.483 40.5298C40.3889 40.6082 40.2747 40.6584 40.1533 40.6747C40.032 40.691 39.9086 40.6727 39.7972 40.6219L34.2072 38.1619C34.109 38.1204 34.0023 38.1032 33.896 38.1119C33.7898 38.1207 33.6873 38.155 33.5972 38.2119L28.3972 41.4219C28.2937 41.4892 28.1733 41.5257 28.0498 41.527C27.9264 41.5283 27.8052 41.4945 27.7003 41.4295C27.5954 41.3644 27.5112 41.2709 27.4576 41.1597C27.4039 41.0486 27.3829 40.9245 27.3972 40.8019L28.0072 34.7219C28.0163 34.6155 28.0002 34.5085 27.9603 34.4095C27.9203 34.3104 27.8576 34.2222 27.7772 34.1519L23.1172 30.2019C23.022 30.1242 22.9509 30.0211 22.9119 29.9045C22.873 29.788 22.8679 29.6628 22.8972 29.5435C22.9265 29.4242 22.989 29.3156 23.0775 29.2304C23.166 29.1452 23.2769 29.0867 23.3972 29.0619L29.3972 27.7619C29.5012 27.7396 29.5982 27.6925 29.68 27.6246C29.7619 27.5566 29.8261 27.47 29.8672 27.3719L32.1772 21.7119C32.2263 21.6032 32.3039 21.5099 32.4018 21.4418C32.4998 21.3736 32.6143 21.3334 32.7333 21.3252C32.8523 21.317 32.9713 21.3411 33.0776 21.3952C33.1839 21.4492 33.2737 21.531 33.3372 21.6319Z" fill="#9E9A90"/>
<path d="M39.7571 39.9319L34.1572 37.4719C34.059 37.4304 33.9522 37.4132 33.846 37.4219C33.7398 37.4306 33.6372 37.4649 33.5471 37.5219L32.2371 38.3319L28.3571 40.7319C28.2523 40.7958 28.1316 40.8291 28.0088 40.8282C27.886 40.8273 27.7659 40.7921 27.662 40.7267C27.5581 40.6612 27.4745 40.568 27.4207 40.4576C27.3668 40.3473 27.3448 40.2241 27.3571 40.1019L27.4471 39.2219L27.7371 36.2719L27.9672 34.0219C27.9763 33.917 27.9601 33.8114 27.9201 33.714C27.8801 33.6165 27.8174 33.5301 27.7371 33.4619L24.3972 30.6319L23.0771 29.5119C22.982 29.4342 22.9108 29.331 22.8719 29.2145C22.8329 29.098 22.8278 28.9728 22.8571 28.8535C22.8865 28.7341 22.949 28.6256 23.0375 28.5403C23.126 28.4551 23.2368 28.3967 23.3571 28.3719L26.9571 27.5819L29.3271 27.0719C29.4315 27.047 29.5284 26.9978 29.6101 26.9283C29.6918 26.8588 29.7559 26.7709 29.7971 26.6719L31.7971 21.8719L32.1472 21.0219C32.2024 20.885 32.3032 20.7713 32.4326 20.7003C32.562 20.6292 32.712 20.605 32.8571 20.6319C32.9544 20.6428 33.0477 20.6766 33.1294 20.7305C33.211 20.7844 33.2788 20.8568 33.3271 20.9419L36.3271 26.1019L36.3871 26.2119C36.4405 26.305 36.5157 26.3838 36.6063 26.4413C36.6969 26.4988 36.8002 26.5333 36.9072 26.5419L38.0671 26.6219L41.8672 26.9119L42.9972 26.9919C43.1202 27.0013 43.2381 27.0449 43.3375 27.1179C43.4369 27.1909 43.5139 27.2903 43.5597 27.4048C43.6055 27.5194 43.6183 27.6445 43.5967 27.7659C43.575 27.8873 43.5198 28.0003 43.4372 28.0919L39.3672 32.6419C39.2968 32.723 39.2472 32.82 39.2228 32.9246C39.1984 33.0291 39.1999 33.138 39.2271 33.2419L40.6671 39.1719C40.7009 39.2925 40.6992 39.4203 40.662 39.5399C40.6249 39.6595 40.554 39.7659 40.4579 39.8462C40.3618 39.9264 40.2445 39.9773 40.1202 39.9925C39.9959 40.0077 39.8698 39.9866 39.7571 39.9319Z" fill="#79756B"/>
<path d="M36.3072 26.0917L27.7072 36.2717L27.9372 34.0217C27.9463 33.9168 27.9302 33.8112 27.8902 33.7138C27.8502 33.6164 27.7874 33.5299 27.7072 33.4617L24.3672 30.6317L26.9272 27.5817L29.2972 27.0717C29.4015 27.0468 29.4985 26.9976 29.5802 26.9281C29.6619 26.8586 29.7259 26.7707 29.7672 26.6717L31.7672 21.8717L32.8272 20.6317C32.9244 20.6426 33.0177 20.6764 33.0994 20.7303C33.1811 20.7842 33.2489 20.8566 33.2972 20.9417L36.3072 26.0917Z" fill="#D9D9D9"/>
<path d="M41.8474 26.9117L32.2374 38.3317L28.3573 40.7317C28.2525 40.7956 28.1318 40.829 28.009 40.828C27.8862 40.8271 27.7661 40.7919 27.6622 40.7265C27.5583 40.661 27.4747 40.5678 27.4209 40.4575C27.367 40.3471 27.345 40.2239 27.3573 40.1017L27.4473 39.2217L38.0473 26.6217L41.8474 26.9117Z" fill="#D9D9D9"/>
<path d="M43.7071 14.0018L41.7671 16.5018C42.7278 17.0731 43.6261 17.7434 44.4471 18.5018L46.4071 16.0918L43.7071 14.0018Z" fill="#D9D9D9"/>
<path d="M25.3474 44.4818L23.3474 46.9918C22.3829 46.4076 21.4726 45.7383 20.6274 44.9918L22.5574 42.5118C23.415 43.2656 24.3502 43.926 25.3474 44.4818Z" fill="#D9D9D9"/>
<path d="M34.4171 11.0118L31.6071 14.2318C31.8071 14.2318 32.0171 14.2318 32.2171 14.1718C34.5394 14.0042 36.8703 14.3455 39.0471 15.1718L41.1671 12.6418C39.0352 11.6917 36.7476 11.1393 34.4171 11.0118ZM17.2971 32.7718L14.7271 35.7718C15.3587 37.9542 16.3746 40.0063 17.7271 41.8318L19.8271 39.3318C18.5163 37.3554 17.6528 35.1166 17.2971 32.7718Z" fill="#C2BEB7"/>
<path d="M41.1674 12.6318L39.0474 15.1618C36.8706 14.3355 34.5397 13.9942 32.2174 14.1618C32.0174 14.1618 31.8074 14.1618 31.6074 14.2218L34.4174 11.0018C36.748 11.1293 39.0356 11.6817 41.1674 12.6318Z" fill="#D9D9D9"/>
<path d="M19.787 39.2918L17.687 41.7918C16.3346 39.9663 15.3186 37.9142 14.687 35.7318L17.257 32.7318C17.6127 35.0766 18.4762 37.3154 19.787 39.2918Z" fill="#D9D9D9"/>
<path d="M50.3371 36.4319C50.917 36.4319 51.3871 35.9618 51.3871 35.3819C51.3871 34.802 50.917 34.3319 50.3371 34.3319C49.7572 34.3319 49.2871 34.802 49.2871 35.3819C49.2871 35.9618 49.7572 36.4319 50.3371 36.4319Z" fill="#D8D6CF"/>
<path d="M15.5692 53.976C23.009 53.976 29.0402 47.9448 29.0402 40.505C29.0402 33.0651 23.009 27.0339 15.5692 27.0339C8.12933 27.0339 2.09814 33.0651 2.09814 40.505C2.09814 47.9448 8.12933 53.976 15.5692 53.976Z" fill="#79756B"/>
<path d="M15.9985 53.0099C23.179 53.0099 28.9999 47.189 28.9999 40.0085C28.9999 32.828 23.179 27.0071 15.9985 27.0071C8.818 27.0071 2.99707 32.828 2.99707 40.0085C2.99707 47.189 8.818 53.0099 15.9985 53.0099Z" fill="#C2BEB7"/>
<path d="M15.9985 53.0099C23.179 53.0099 28.9999 47.189 28.9999 40.0085C28.9999 32.828 23.179 27.0071 15.9985 27.0071C8.818 27.0071 2.99707 32.828 2.99707 40.0085C2.99707 47.189 8.818 53.0099 15.9985 53.0099Z" fill="#C2BEB7"/>
<path d="M16.9046 52.9831C13.9749 53.1866 11.0626 52.3927 8.64142 50.7307C6.22025 49.0687 4.43271 46.6363 3.5696 43.8293C2.7065 41.0223 2.81864 38.0058 3.88776 35.2706C4.95688 32.5354 6.92008 30.2424 9.45796 28.7647V30.2943H10.954V28.0402C12.2694 27.4838 13.6683 27.1505 15.0932 27.054C16.7106 26.9404 18.335 27.1293 19.8832 27.6109V29.6839H21.386V28.2079C24.0221 29.4044 26.1839 31.446 27.5289 34.0095C28.8739 36.573 29.3254 39.5119 28.8118 42.361C28.2982 45.21 26.8489 47.8063 24.6934 49.7387C22.5378 51.6712 19.7993 52.8295 16.9113 53.03L16.9046 52.9831Z" fill="#C2BEB7"/>
<path d="M25.2605 45.7394C28.4303 40.625 26.8539 33.9092 21.7395 30.7394C16.6251 27.5695 9.90935 29.146 6.73951 34.2604C3.56966 39.3748 5.14606 46.0905 10.2605 49.2604C15.3749 52.4302 22.0906 50.8538 25.2605 45.7394Z" fill="#79756B"/>
<path d="M16.0594 50.8966C21.5948 50.8966 26.0821 46.4093 26.0821 40.8738C26.0821 35.3384 21.5948 30.8511 16.0594 30.8511C10.524 30.8511 6.03662 35.3384 6.03662 40.8738C6.03662 46.4093 10.524 50.8966 16.0594 50.8966Z" fill="#C2BEB7"/>
<path d="M15.9852 34.1452L18.0515 37.6874C18.0867 37.7498 18.1371 37.8023 18.1982 37.8398C18.2592 37.8774 18.3288 37.8988 18.4003 37.9021L22.4859 38.2107C22.5672 38.2179 22.6448 38.2474 22.7104 38.296C22.7759 38.3446 22.8268 38.4103 22.8573 38.4859C22.8878 38.5616 22.8969 38.6442 22.8834 38.7247C22.87 38.8051 22.8346 38.8803 22.7811 38.9419L20.0507 42.0011C20.0038 42.0544 19.9703 42.1181 19.9528 42.1869C19.9353 42.2557 19.9344 42.3276 19.95 42.3969L20.9228 46.3818C20.9428 46.4615 20.94 46.5451 20.9145 46.6232C20.8891 46.7013 20.8422 46.7706 20.7791 46.8232C20.716 46.8758 20.6393 46.9095 20.5579 46.9204C20.4765 46.9313 20.3937 46.919 20.319 46.885L16.5689 45.2346C16.503 45.2068 16.4314 45.1953 16.3601 45.2011C16.2889 45.207 16.2201 45.23 16.1596 45.2682L12.6711 47.4217C12.6017 47.4668 12.5209 47.4913 12.4381 47.4921C12.3553 47.493 12.274 47.4703 12.2036 47.4267C12.1333 47.3831 12.0768 47.3203 12.0408 47.2458C12.0047 47.1712 11.9907 47.088 12.0003 47.0057L12.4095 42.9269C12.4156 42.8555 12.4048 42.7837 12.378 42.7172C12.3512 42.6508 12.3091 42.5916 12.2552 42.5445L9.12894 39.8945C9.06511 39.8424 9.01736 39.7732 8.99124 39.695C8.96512 39.6169 8.96167 39.5329 8.98133 39.4528C9.00099 39.3728 9.04296 39.2999 9.10233 39.2428C9.1617 39.1856 9.23605 39.1464 9.31678 39.1297L13.342 38.2576C13.4117 38.2426 13.4768 38.211 13.5317 38.1655C13.5866 38.1199 13.6297 38.0618 13.6573 37.996L15.207 34.1989C15.2399 34.1259 15.292 34.0633 15.3577 34.0176C15.4234 33.9719 15.5002 33.9449 15.5801 33.9394C15.6599 33.9339 15.7397 33.9501 15.811 33.9863C15.8824 34.0226 15.9426 34.0775 15.9852 34.1452Z" fill="#9E9A90"/>
<path d="M20.2921 46.4219L16.5353 44.7716C16.4694 44.7437 16.3978 44.7322 16.3266 44.7381C16.2553 44.7439 16.1865 44.7669 16.1261 44.8052L15.2472 45.3486L12.6443 46.9587C12.5739 47.0015 12.493 47.0239 12.4106 47.0233C12.3282 47.0226 12.2476 46.999 12.1779 46.9551C12.1082 46.9112 12.0521 46.8487 12.016 46.7747C11.9799 46.7006 11.9651 46.618 11.9734 46.536L12.0338 45.9456L12.2283 43.9666L12.3826 42.4571C12.3887 42.3867 12.3779 42.3159 12.3511 42.2505C12.3242 42.1852 12.2821 42.1272 12.2283 42.0814L9.98762 40.1829L9.10207 39.4315C9.03824 39.3794 8.9905 39.3102 8.96437 39.232C8.93825 39.1538 8.93482 39.0698 8.95448 38.9898C8.97414 38.9097 9.01609 38.8369 9.07546 38.7797C9.13483 38.7225 9.20918 38.6834 9.28992 38.6667L11.705 38.1367L13.295 37.7946C13.365 37.7779 13.43 37.7449 13.4848 37.6983C13.5396 37.6516 13.5826 37.5927 13.6103 37.5262L14.952 34.3061L15.1868 33.7358C15.2239 33.644 15.2915 33.5678 15.3783 33.5201C15.4651 33.4724 15.5658 33.4562 15.6632 33.4742C15.7284 33.4815 15.791 33.5042 15.8458 33.5403C15.9006 33.5765 15.9461 33.6251 15.9785 33.6822L17.9911 37.1439L18.0313 37.2176C18.0671 37.2801 18.1176 37.3329 18.1783 37.3715C18.2391 37.4101 18.3084 37.4333 18.3802 37.439L19.1584 37.4927L21.7077 37.6873L22.4658 37.7409C22.5483 37.7472 22.6274 37.7765 22.6941 37.8255C22.7608 37.8744 22.8124 37.9411 22.8432 38.018C22.8739 38.0948 22.8825 38.1787 22.868 38.2602C22.8534 38.3416 22.8164 38.4174 22.761 38.4789L20.0305 41.5313C19.9833 41.5857 19.9501 41.6508 19.9337 41.721C19.9173 41.7911 19.9183 41.8642 19.9366 41.9338L20.9026 45.9121C20.9253 45.993 20.9241 46.0787 20.8992 46.159C20.8743 46.2392 20.8268 46.3106 20.7623 46.3644C20.6978 46.4183 20.6191 46.4524 20.5357 46.4626C20.4523 46.4728 20.3677 46.4587 20.2921 46.4219Z" fill="#79756B"/>
<path d="M17.9779 37.1371L12.2085 43.9665L12.3628 42.457C12.3689 42.3866 12.3581 42.3158 12.3312 42.2505C12.3044 42.1851 12.2623 42.1271 12.2085 42.0813L9.96777 40.1828L11.6852 38.1366L13.2751 37.7945C13.3451 37.7778 13.4102 37.7448 13.465 37.6982C13.5198 37.6515 13.5628 37.5926 13.5905 37.5261L14.9322 34.306L15.6433 33.4741C15.7085 33.4814 15.7711 33.5041 15.8259 33.5402C15.8807 33.5764 15.9262 33.625 15.9586 33.6821L17.9779 37.1371Z" fill="#D9D9D9"/>
<path d="M21.6943 37.6872L15.2473 45.3485L12.6443 46.9586C12.5739 47.0015 12.493 47.0239 12.4106 47.0232C12.3282 47.0226 12.2477 46.999 12.178 46.9551C12.1083 46.9112 12.0522 46.8487 12.016 46.7746C11.9799 46.7006 11.9652 46.618 11.9734 46.536L12.0338 45.9456L19.145 37.4927L21.6943 37.6872Z" fill="#D9D9D9"/>
<path d="M22.9421 29.0264L21.6406 30.7035C22.2852 31.0868 22.8877 31.5365 23.4385 32.0453L24.7535 30.4285L22.9421 29.0264Z" fill="#D9D9D9"/>
<path d="M10.625 49.4744L9.28326 51.1583C8.6362 50.7664 8.02551 50.3174 7.4585 49.8166L8.75327 48.1528C9.32855 48.6585 9.95599 49.1015 10.625 49.4744Z" fill="#D9D9D9"/>
<path d="M16.7099 27.0205L14.8247 29.1807C14.9589 29.1807 15.0998 29.1807 15.234 29.1404C16.7919 29.028 18.3557 29.2569 19.816 29.8113L21.2382 28.114C19.808 27.4766 18.2734 27.106 16.7099 27.0205ZM5.22462 41.6186L3.50049 43.6312C3.92423 45.0952 4.60577 46.472 5.51309 47.6966L6.92192 46.0195C6.04254 44.6935 5.46329 43.1916 5.22462 41.6186Z" fill="#C2BEB7"/>
<path d="M21.2382 28.1073L19.816 29.8046C18.3556 29.2503 16.7919 29.0213 15.2339 29.1337C15.0998 29.1337 14.9589 29.1337 14.8247 29.174L16.7098 27.0138C18.2733 27.0993 19.808 27.4699 21.2382 28.1073Z" fill="#D9D9D9"/>
<path d="M6.89504 45.9926L5.48624 47.6697C4.57892 46.4451 3.89737 45.0683 3.47363 43.6043L5.19775 41.5917C5.43641 43.1647 6.01567 44.6666 6.89504 45.9926Z" fill="#D9D9D9"/>
<path d="M27.39 44.074C27.779 44.074 28.0944 43.7586 28.0944 43.3696C28.0944 42.9805 27.779 42.6652 27.39 42.6652C27.0009 42.6652 26.6855 42.9805 26.6855 43.3696C26.6855 43.7586 27.0009 44.074 27.39 44.074Z" fill="#D8D6CF"/>
<path d="M53.5692 53.976C61.009 53.976 67.0402 47.9448 67.0402 40.505C67.0402 33.0651 61.009 27.0339 53.5692 27.0339C46.1293 27.0339 40.0981 33.0651 40.0981 40.505C40.0981 47.9448 46.1293 53.976 53.5692 53.976Z" fill="#79756B"/>
<path d="M53.9985 53.0099C61.179 53.0099 66.9999 47.189 66.9999 40.0085C66.9999 32.828 61.179 27.0071 53.9985 27.0071C46.818 27.0071 40.9971 32.828 40.9971 40.0085C40.9971 47.189 46.818 53.0099 53.9985 53.0099Z" fill="#C2BEB7"/>
<path d="M53.9985 53.0099C61.179 53.0099 66.9999 47.189 66.9999 40.0085C66.9999 32.828 61.179 27.0071 53.9985 27.0071C46.818 27.0071 40.9971 32.828 40.9971 40.0085C40.9971 47.189 46.818 53.0099 53.9985 53.0099Z" fill="#C2BEB7"/>
<path d="M54.9046 52.9831C51.9749 53.1866 49.0626 52.3927 46.6414 50.7307C44.2203 49.0687 42.4327 46.6363 41.5696 43.8293C40.7065 41.0223 40.8186 38.0058 41.8878 35.2706C42.9569 32.5354 44.9201 30.2424 47.458 28.7647V30.2943H48.954V28.0402C50.2694 27.4838 51.6683 27.1505 53.0932 27.054C54.7106 26.9404 56.335 27.1293 57.8832 27.6109V29.6839H59.386V28.2079C62.0221 29.4044 64.1839 31.446 65.5289 34.0095C66.8739 36.573 67.3254 39.5119 66.8118 42.361C66.2982 45.21 64.8489 47.8063 62.6934 49.7387C60.5378 51.6712 57.7993 52.8295 54.9113 53.03L54.9046 52.9831Z" fill="#C2BEB7"/>
<path d="M63.2605 45.7394C66.4303 40.625 64.8539 33.9092 59.7395 30.7394C54.6251 27.5695 47.9094 29.146 44.7395 34.2604C41.5697 39.3748 43.1461 46.0905 48.2605 49.2604C53.3749 52.4302 60.0906 50.8538 63.2605 45.7394Z" fill="#79756B"/>
<path d="M54.0594 50.8966C59.5948 50.8966 64.0821 46.4093 64.0821 40.8738C64.0821 35.3384 59.5948 30.8511 54.0594 30.8511C48.524 30.8511 44.0366 35.3384 44.0366 40.8738C44.0366 46.4093 48.524 50.8966 54.0594 50.8966Z" fill="#C2BEB7"/>
<path d="M53.9852 34.1452L56.0515 37.6874C56.0867 37.7498 56.1371 37.8023 56.1982 37.8398C56.2592 37.8774 56.3288 37.8988 56.4003 37.9021L60.4859 38.2107C60.5672 38.2179 60.6448 38.2474 60.7104 38.296C60.7759 38.3446 60.8268 38.4103 60.8573 38.4859C60.8878 38.5616 60.8969 38.6442 60.8834 38.7247C60.87 38.8051 60.8346 38.8803 60.7811 38.9419L58.0507 42.0011C58.0038 42.0544 57.9703 42.1181 57.9528 42.1869C57.9353 42.2557 57.9344 42.3276 57.95 42.3969L58.9228 46.3818C58.9428 46.4615 58.94 46.5451 58.9145 46.6232C58.8891 46.7013 58.8422 46.7706 58.7791 46.8232C58.716 46.8758 58.6393 46.9095 58.5579 46.9204C58.4765 46.9313 58.3937 46.919 58.319 46.885L54.5689 45.2346C54.503 45.2068 54.4314 45.1953 54.3601 45.2011C54.2889 45.207 54.2201 45.23 54.1596 45.2682L50.6711 47.4217C50.6017 47.4668 50.5209 47.4913 50.4381 47.4921C50.3553 47.493 50.274 47.4703 50.2036 47.4267C50.1333 47.3831 50.0768 47.3203 50.0408 47.2458C50.0047 47.1712 49.9907 47.088 50.0003 47.0057L50.4095 42.9269C50.4156 42.8555 50.4048 42.7837 50.378 42.7172C50.3512 42.6508 50.3091 42.5916 50.2552 42.5445L47.1289 39.8945C47.0651 39.8424 47.0174 39.7732 46.9912 39.695C46.9651 39.6169 46.9617 39.5329 46.9813 39.4528C47.001 39.3728 47.043 39.2999 47.1023 39.2428C47.1617 39.1856 47.2361 39.1464 47.3168 39.1297L51.342 38.2576C51.4117 38.2426 51.4768 38.211 51.5317 38.1655C51.5866 38.1199 51.6297 38.0618 51.6573 37.996L53.207 34.1989C53.2399 34.1259 53.292 34.0633 53.3577 34.0176C53.4234 33.9719 53.5002 33.9449 53.5801 33.9394C53.6599 33.9339 53.7397 33.9501 53.811 33.9863C53.8824 34.0226 53.9426 34.0775 53.9852 34.1452Z" fill="#9E9A90"/>
<path d="M58.2921 46.4219L54.5353 44.7716C54.4694 44.7437 54.3978 44.7322 54.3266 44.7381C54.2553 44.7439 54.1865 44.7669 54.1261 44.8052L53.2472 45.3486L50.6443 46.9587C50.5739 47.0015 50.493 47.0239 50.4106 47.0233C50.3282 47.0226 50.2476 46.999 50.1779 46.9551C50.1082 46.9112 50.0521 46.8487 50.016 46.7747C49.9799 46.7006 49.9651 46.618 49.9734 46.536L50.0338 45.9456L50.2283 43.9666L50.3826 42.4571C50.3887 42.3867 50.3779 42.3159 50.3511 42.2505C50.3242 42.1852 50.2821 42.1272 50.2283 42.0814L47.9876 40.1829L47.1021 39.4315C47.0382 39.3794 46.9905 39.3102 46.9644 39.232C46.9382 39.1538 46.9348 39.0698 46.9545 38.9898C46.9741 38.9097 47.0161 38.8369 47.0755 38.7797C47.1348 38.7225 47.2092 38.6834 47.2899 38.6667L49.705 38.1367L51.295 37.7946C51.365 37.7779 51.43 37.7449 51.4848 37.6983C51.5396 37.6516 51.5826 37.5927 51.6103 37.5262L52.952 34.3061L53.1868 33.7358C53.2239 33.644 53.2915 33.5678 53.3783 33.5201C53.4651 33.4724 53.5658 33.4562 53.6632 33.4742C53.7284 33.4815 53.791 33.5042 53.8458 33.5403C53.9006 33.5765 53.9461 33.6251 53.9785 33.6822L55.9911 37.1439L56.0313 37.2176C56.0671 37.2801 56.1176 37.3329 56.1783 37.3715C56.2391 37.4101 56.3084 37.4333 56.3802 37.439L57.1584 37.4927L59.7077 37.6873L60.4658 37.7409C60.5483 37.7472 60.6274 37.7765 60.6941 37.8255C60.7608 37.8744 60.8124 37.9411 60.8432 38.018C60.8739 38.0948 60.8825 38.1787 60.868 38.2602C60.8534 38.3416 60.8164 38.4174 60.761 38.4789L58.0305 41.5313C57.9833 41.5857 57.9501 41.6508 57.9337 41.721C57.9173 41.7911 57.9183 41.8642 57.9366 41.9338L58.9026 45.9121C58.9253 45.993 58.9241 46.0787 58.8992 46.159C58.8743 46.2392 58.8268 46.3106 58.7623 46.3644C58.6978 46.4183 58.6191 46.4524 58.5357 46.4626C58.4523 46.4728 58.3677 46.4587 58.2921 46.4219Z" fill="#79756B"/>
<path d="M55.9779 37.1371L50.2085 43.9665L50.3628 42.457C50.3689 42.3866 50.3581 42.3158 50.3312 42.2505C50.3044 42.1851 50.2623 42.1271 50.2085 42.0813L47.9678 40.1828L49.6852 38.1366L51.2751 37.7945C51.3451 37.7778 51.4102 37.7448 51.465 37.6982C51.5198 37.6515 51.5628 37.5926 51.5905 37.5261L52.9322 34.306L53.6433 33.4741C53.7085 33.4814 53.7711 33.5041 53.8259 33.5402C53.8807 33.5764 53.9262 33.625 53.9586 33.6821L55.9779 37.1371Z" fill="#D9D9D9"/>
<path d="M59.6943 37.6872L53.2473 45.3485L50.6443 46.9586C50.5739 47.0015 50.493 47.0239 50.4106 47.0232C50.3282 47.0226 50.2477 46.999 50.178 46.9551C50.1083 46.9112 50.0522 46.8487 50.016 46.7746C49.9799 46.7006 49.9652 46.618 49.9734 46.536L50.0338 45.9456L57.145 37.4927L59.6943 37.6872Z" fill="#D9D9D9"/>
<path d="M60.9421 29.0264L59.6406 30.7035C60.2852 31.0868 60.8877 31.5365 61.4385 32.0453L62.7535 30.4285L60.9421 29.0264Z" fill="#D9D9D9"/>
<path d="M48.625 49.4744L47.2833 51.1583C46.6362 50.7664 46.0255 50.3174 45.4585 49.8166L46.7533 48.1528C47.3285 48.6585 47.956 49.1015 48.625 49.4744Z" fill="#D9D9D9"/>
<path d="M54.7099 27.0205L52.8247 29.1807C52.9589 29.1807 53.0998 29.1807 53.234 29.1404C54.7919 29.028 56.3557 29.2569 57.816 29.8113L59.2382 28.114C57.808 27.4766 56.2734 27.106 54.7099 27.0205ZM43.2246 41.6186L41.5005 43.6312C41.9242 45.0952 42.6058 46.472 43.5131 47.6966L44.9219 46.0195C44.0425 44.6935 43.4633 43.1916 43.2246 41.6186Z" fill="#C2BEB7"/>
<path d="M59.2382 28.1073L57.816 29.8046C56.3556 29.2503 54.7919 29.0213 53.2339 29.1337C53.0998 29.1337 52.9589 29.1337 52.8247 29.174L54.7098 27.0138C56.2733 27.0993 57.808 27.4699 59.2382 28.1073Z" fill="#D9D9D9"/>
<path d="M44.895 45.9926L43.4862 47.6697C42.5789 46.4451 41.8974 45.0683 41.4736 43.6043L43.1977 41.5917C43.4364 43.1647 44.0157 44.6666 44.895 45.9926Z" fill="#D9D9D9"/>
<path d="M65.39 44.074C65.779 44.074 66.0944 43.7586 66.0944 43.3696C66.0944 42.9805 65.779 42.6652 65.39 42.6652C65.0009 42.6652 64.6855 42.9805 64.6855 43.3696C64.6855 43.7586 65.0009 44.074 65.39 44.074Z" fill="#D8D6CF"/>
<circle cx="35" cy="35" r="34" fill="black" fill-opacity="0.6"/>
</svg>
