<svg width="183" height="272" viewBox="0 0 183 272" fill="none" xmlns="http://www.w3.org/2000/svg">
<path d="M82.9775 248.548C122.342 248.548 154.253 216.637 154.253 177.273C154.253 137.908 122.342 105.997 82.9775 105.997C43.6132 105.997 11.7021 137.908 11.7021 177.273C11.7021 216.637 43.6132 248.548 82.9775 248.548Z" fill="#F2960F"/>
<path d="M133.974 223.342C160.848 196.469 160.848 152.899 133.974 126.025C107.101 99.1523 63.5313 99.1523 36.6581 126.025C9.78497 152.899 9.78499 196.469 36.6581 223.342C63.5313 250.215 107.101 250.215 133.974 223.342Z" fill="#FCDE24"/>
<path d="M133.974 223.342C160.848 196.469 160.848 152.899 133.974 126.025C107.101 99.1523 63.5313 99.1523 36.6581 126.025C9.78497 152.899 9.78499 196.469 36.6581 223.342C63.5313 250.215 107.101 250.215 133.974 223.342Z" fill="#FCDE24"/>
<path d="M88.9233 243.405C73.4038 244.214 58.0672 239.747 45.4088 230.732C32.7503 221.717 23.5149 208.683 19.205 193.752C14.8951 178.821 15.7644 162.871 21.6715 148.497C27.5785 134.123 38.1757 122.17 51.7389 114.584L51.6844 122.704L59.6246 122.743L59.6948 110.797C74.8012 104.745 91.5622 104.234 107.009 109.356L106.947 120.304L114.887 120.343L114.926 112.551C128.75 119.126 139.987 130.123 146.858 143.803C153.729 157.482 155.842 173.062 152.863 188.078C149.883 203.093 141.981 216.686 130.408 226.706C118.834 236.725 104.25 242.599 88.9623 243.397L88.9233 243.405Z" fill="#FCDE24"/>
<path d="M126.068 215.435C148.574 192.929 148.574 156.439 126.068 133.932C103.561 111.426 67.0712 111.426 44.5649 133.932C22.0585 156.439 22.0585 192.929 44.5649 215.435C67.0712 237.941 103.561 237.941 126.068 215.435Z" fill="#F2960F"/>
<path d="M123.068 216.776C143.785 196.059 143.785 162.47 123.068 141.753C102.351 121.036 68.7618 121.036 48.0447 141.753C27.3277 162.47 27.3277 196.059 48.0448 216.776C68.7618 237.493 102.351 237.493 123.068 216.776Z" fill="#FCCD1D"/>
<path d="M85.7832 143.681L96.3884 162.616C96.5729 162.945 96.8344 163.225 97.1506 163.431C97.4667 163.638 97.8282 163.764 98.204 163.8L119.804 165.795C120.234 165.839 120.644 166.001 120.988 166.263C121.332 166.526 121.596 166.879 121.751 167.283C121.906 167.687 121.946 168.126 121.866 168.551C121.787 168.976 121.591 169.371 121.3 169.691L106.581 185.603C106.325 185.881 106.14 186.217 106.042 186.582C105.944 186.947 105.937 187.33 106.02 187.699L110.804 208.855C110.896 209.278 110.869 209.719 110.725 210.128C110.581 210.537 110.326 210.897 109.989 211.17C109.652 211.442 109.246 211.616 108.816 211.671C108.386 211.725 107.949 211.66 107.555 211.481L87.8559 202.411C87.5122 202.254 87.1357 202.182 86.7584 202.203C86.3811 202.223 86.0144 202.334 85.6897 202.528L67.0429 213.608C66.6682 213.828 66.2395 213.94 65.805 213.93C65.3705 213.92 64.9474 213.789 64.5832 213.552C64.219 213.314 63.9281 212.98 63.7432 212.587C63.5583 212.194 63.4867 211.757 63.5364 211.325L66.0845 189.795C66.1281 189.42 66.08 189.039 65.9442 188.686C65.8085 188.333 65.5893 188.019 65.3052 187.769L49.0039 173.463C48.6777 173.175 48.4383 172.802 48.3126 172.385C48.1869 171.969 48.1799 171.525 48.2925 171.105C48.405 170.685 48.6326 170.304 48.9497 170.006C49.2667 169.708 49.6606 169.505 50.0871 169.418L71.352 165.187C71.724 165.113 72.0723 164.949 72.3669 164.71C72.6615 164.472 72.8935 164.164 73.0429 163.816L81.6143 143.899C81.7887 143.503 82.0697 143.163 82.4258 142.917C82.782 142.671 83.1994 142.529 83.6316 142.507C84.0638 142.484 84.4938 142.582 84.8737 142.789C85.2535 142.996 85.5684 143.305 85.7832 143.681V143.681Z" fill="#F2960F"/>
<path d="M107.429 209.018L87.7229 199.94C87.3786 199.784 87.0017 199.714 86.6244 199.736C86.2472 199.758 85.8807 199.87 85.5566 200.065L80.8813 202.862L66.9489 211.145C66.5741 211.366 66.1454 211.477 65.7109 211.467C65.2764 211.457 64.8533 211.326 64.4891 211.089C64.1249 210.852 63.834 210.518 63.6491 210.124C63.4642 209.731 63.3926 209.294 63.4424 208.862L63.8242 205.745L65.0398 195.312L65.9826 187.34C66.0262 186.965 65.9781 186.584 65.8424 186.231C65.7067 185.878 65.4874 185.564 65.2034 185.314L53.5151 175.067L48.9099 171.008C48.5859 170.719 48.3484 170.347 48.2241 169.931C48.0998 169.516 48.0935 169.074 48.2059 168.655C48.3182 168.236 48.5449 167.857 48.8605 167.56C49.1761 167.262 49.5682 167.059 49.993 166.971L62.8034 164.423L71.2501 162.74C71.6213 162.661 71.9687 162.496 72.2639 162.258C72.5591 162.02 72.7938 161.715 72.9488 161.369L80.2034 144.452L81.5047 141.444C81.7072 140.965 82.067 140.57 82.5247 140.323C82.9823 140.077 83.5104 139.994 84.0216 140.088C84.37 140.131 84.7031 140.257 84.9932 140.455C85.2832 140.653 85.5218 140.917 85.6891 141.226L96.0761 159.748L96.2865 160.145C96.4717 160.476 96.7345 160.756 97.0521 160.962C97.3698 161.169 97.7328 161.295 98.1099 161.33L102.224 161.704L115.705 162.958L119.694 163.325C120.125 163.368 120.535 163.53 120.878 163.793C121.222 164.056 121.486 164.408 121.641 164.812C121.796 165.216 121.836 165.655 121.757 166.08C121.677 166.505 121.481 166.9 121.19 167.221L106.487 183.14C106.229 183.417 106.043 183.753 105.944 184.118C105.845 184.483 105.836 184.867 105.918 185.236L110.694 206.4C110.787 206.825 110.759 207.267 110.613 207.677C110.468 208.087 110.212 208.448 109.872 208.72C109.533 208.992 109.125 209.164 108.693 209.216C108.262 209.269 107.824 209.2 107.429 209.018V209.018Z" fill="#FCDE24"/>
<path d="M96.0454 159.732L65.0168 195.296L65.9597 187.324C66.0033 186.949 65.9552 186.568 65.8195 186.216C65.6838 185.863 65.4645 185.548 65.1805 185.298L53.4922 175.052L62.7805 164.408L71.2273 162.724C71.5984 162.646 71.9458 162.481 72.241 162.242C72.5362 162.004 72.7709 161.699 72.926 161.353L80.1805 144.436L83.9987 140.073C84.3471 140.116 84.6802 140.241 84.9703 140.439C85.2603 140.637 85.4989 140.902 85.6662 141.21L96.0454 159.732Z" fill="#FFE48D"/>
<path d="M115.674 162.943L80.8586 202.863L66.9262 211.146C66.5514 211.366 66.1228 211.477 65.6883 211.467C65.2538 211.457 64.8307 211.326 64.4665 211.089C64.1022 210.852 63.8113 210.518 63.6264 210.125C63.4415 209.731 63.3699 209.294 63.4197 208.863L63.8015 205.746L102.194 161.704L115.674 162.943Z" fill="#FFE48D"/>
<path d="M123.154 117.226L116.103 125.992C119.483 128.124 122.631 130.605 125.492 133.395L132.505 124.668L123.154 117.226Z" fill="#FFE48D"/>
<path d="M56.0016 224.291L48.9185 233.057C45.5243 230.957 42.3246 228.558 39.3574 225.888L46.3704 217.177C49.3175 219.885 52.5463 222.27 56.0016 224.291Z" fill="#FFE48D"/>
<path d="M90.2788 106.044L80.149 117.288C80.8736 117.218 81.5905 117.171 82.3308 117.133C90.5696 116.671 98.8106 118 106.487 121.029L114.185 112.184C106.66 108.689 98.5568 106.608 90.2788 106.044ZM28.1827 182.221L18.832 192.553C20.9003 200.326 24.33 207.671 28.9619 214.247L36.5749 205.52C32.1132 198.458 29.249 190.506 28.1827 182.221V182.221Z" fill="#FCDE24"/>
<path d="M114.147 112.208L106.448 121.052C98.772 118.024 90.531 116.695 82.2922 117.156C81.5519 117.195 80.835 117.242 80.1104 117.312L90.2402 106.068C98.5182 106.631 106.622 108.712 114.147 112.208V112.208Z" fill="#FFE48D"/>
<path d="M36.6139 205.52L29.001 214.247C24.3691 207.671 20.9394 200.326 18.8711 192.553L28.2217 182.221C29.288 190.506 32.1523 198.458 36.6139 205.52V205.52Z" fill="#FFE48D"/>
<path d="M145.27 197.236C147.322 197.236 148.986 195.572 148.986 193.519C148.986 191.467 147.322 189.802 145.27 189.802C143.217 189.802 141.553 191.467 141.553 193.519C141.553 195.572 143.217 197.236 145.27 197.236Z" fill="#FFF4CD"/>
<path d="M114.886 112.558C112.338 111.31 109.705 110.24 107.009 109.356L107.063 94.1689L59.8267 93.9429L59.7488 110.797C57.0151 111.892 54.3527 113.157 51.7773 114.584L51.902 89.9299C51.9123 88.8772 52.3382 87.8712 53.087 87.1312C53.8358 86.3912 54.8467 85.9771 55.8994 85.9793L111.076 86.2442C112.129 86.2524 113.137 86.6777 113.877 87.4269C114.617 88.1761 115.031 89.1882 115.027 90.2416L114.886 112.558Z" fill="#FCCD1D"/>
<path d="M129.072 197.736C132.946 196.252 134.883 191.908 133.398 188.034C131.914 184.16 127.57 182.223 123.696 183.708C119.822 185.193 117.885 189.537 119.37 193.41C120.855 197.284 125.199 199.221 129.072 197.736Z" fill="#FFF4CD"/>
<path d="M166.65 -4.84675L107.024 94.1689L102.747 94.1533L98.8738 94.1221L69.4816 93.9896L65.6011 93.974L59.7881 93.9429L116.679 -12L122.321 -11.1974L126.871 -10.5429L157.456 -6.16364L161.967 -5.51688L166.65 -4.84675Z" fill="#18A0FB"/>
<path d="M3.58402 -4.08058L59.6709 94.7533L63.6949 94.7378L67.3377 94.7067L94.9854 94.5745L98.6356 94.5589L104.104 94.5278L50.5894 -11.2207L45.2827 -10.4196L41.0021 -9.76623L12.2331 -5.39505L7.98917 -4.74948L3.58402 -4.08058Z" fill="#18A0FB"/>
<path d="M102.747 94.1533L161.968 -5.51682L157.456 -6.16357L98.874 94.1222L102.747 94.1533Z" fill="white"/>
<path d="M126.872 -10.5427L69.4821 93.9898L65.6016 93.9742L122.321 -11.1973L126.872 -10.5427Z" fill="white"/>
</svg>
