<svg width="20" height="20" viewBox="0 0 20 20" fill="none" xmlns="http://www.w3.org/2000/svg">
<path d="M10 0C12.6522 0 15.1957 1.05357 17.0711 2.92893C18.9464 4.8043 20 7.34783 20 10C20 12.6522 18.9464 15.1957 17.0711 17.0711C15.1957 18.9464 12.6522 20 10 20C7.34783 20 4.8043 18.9464 2.92893 17.0711C1.05357 15.1957 0 12.6522 0 10C0 7.34783 1.05357 4.8043 2.92893 2.92893C4.8043 1.05357 7.34783 0 10 0V0ZM11.4999 6.13956C12.2427 6.13956 12.8455 5.62388 12.8455 4.85965C12.8455 4.09542 12.2413 3.57974 11.4999 3.57974C10.7571 3.57974 10.1571 4.09542 10.1571 4.85965C10.1571 5.62388 10.7571 6.13956 11.4999 6.13956ZM11.7613 14.1776C11.7613 14.0247 11.8142 13.6276 11.7842 13.4019L10.61 14.7532C10.3671 15.0089 10.0629 15.1861 9.92001 15.1389C9.8552 15.1151 9.80104 15.0689 9.76726 15.0086C9.73348 14.9484 9.7223 14.8781 9.73573 14.8104L11.6927 8.62795C11.8527 7.84372 11.4128 7.12806 10.48 7.03664C9.49575 7.03664 8.04728 8.03514 7.16592 9.30219C7.16592 9.45361 7.13735 9.83073 7.16735 10.0564L8.34012 8.70366C8.58296 8.45082 8.8658 8.27227 9.00864 8.32083C9.07902 8.34609 9.13669 8.39794 9.16927 8.46524C9.20185 8.53254 9.20675 8.60994 9.18292 8.68081L7.24305 14.8332C7.01878 15.5532 7.44304 16.2588 8.47154 16.4188C9.98571 16.4188 10.8799 15.4446 11.7627 14.1776H11.7613Z" fill="#18A0FB"/>
</svg>
