<svg width="70" height="70" viewBox="0 0 70 70" fill="none" xmlns="http://www.w3.org/2000/svg">
<circle cx="35" cy="35" r="34" fill="#D9D9D9" stroke="#18A0FB" stroke-width="2"/>
<path d="M29.427 14H30.487L38.547 13.92H41.207L33.487 0.0300293C29.2547 0.116799 25.076 0.995265 21.167 2.62003L28.257 14.04L29.427 14Z" fill="#18A0FB"/>
<path d="M34.7172 57.4701C45.8071 57.4701 54.7972 48.4799 54.7972 37.3901C54.7972 26.3002 45.8071 17.3101 34.7172 17.3101C23.6273 17.3101 14.6372 26.3002 14.6372 37.3901C14.6372 48.4799 23.6273 57.4701 34.7172 57.4701Z" fill="#F2960F"/>
<path d="M35.357 56.03C46.0603 56.03 54.737 47.3533 54.737 36.65C54.737 25.9467 46.0603 17.27 35.357 17.27C24.6538 17.27 15.9771 25.9467 15.9771 36.65C15.9771 47.3533 24.6538 56.03 35.357 56.03Z" fill="#FCDE24"/>
<path d="M35.357 56.03C46.0603 56.03 54.737 47.3533 54.737 36.65C54.737 25.9467 46.0603 17.27 35.357 17.27C24.6538 17.27 15.9771 25.9467 15.9771 36.65C15.9771 47.3533 24.6538 56.03 35.357 56.03Z" fill="#FCDE24"/>
<path d="M36.7072 55.99C32.3402 56.2934 27.9991 55.1101 24.3901 52.6327C20.781 50.1553 18.1165 46.5295 16.83 42.3454C15.5434 38.1612 15.7106 33.6648 17.3042 29.5877C18.8979 25.5105 21.8242 22.0927 25.6072 19.89V22.17H27.8372V18.81C29.7979 17.9807 31.8831 17.4839 34.0072 17.34C36.4181 17.1707 38.8394 17.4522 41.1472 18.17V21.2601H43.3872V19.06C47.3166 20.8434 50.5389 23.8867 52.5438 27.7079C54.5487 31.5291 55.2217 35.9099 54.4561 40.1566C53.6905 44.4034 51.5302 48.2734 48.3172 51.154C45.1042 54.0346 41.0221 55.761 36.7172 56.06L36.7072 55.99Z" fill="#FCDE24"/>
<path d="M49.1628 45.1927C53.8878 37.5691 51.5381 27.5586 43.9145 22.8336C36.2909 18.1086 26.2803 20.4584 21.5553 28.082C16.8304 35.7056 19.1801 45.7161 26.8037 50.4411C34.4273 55.1661 44.4378 52.8163 49.1628 45.1927Z" fill="#F2960F"/>
<path d="M35.4473 52.88C43.6985 52.88 50.3873 46.1911 50.3873 37.94C50.3873 29.6889 43.6985 23 35.4473 23C27.1962 23 20.5073 29.6889 20.5073 37.94C20.5073 46.1911 27.1962 52.88 35.4473 52.88Z" fill="#FCCD1D"/>
<path d="M35.3372 27.9101L38.4172 33.1901C38.4696 33.2832 38.5449 33.3614 38.6358 33.4173C38.7268 33.4733 38.8305 33.5053 38.9372 33.5101L45.0272 33.9701C45.1483 33.9809 45.2641 34.0249 45.3618 34.0973C45.4594 34.1697 45.5352 34.2677 45.5808 34.3805C45.6263 34.4932 45.6397 34.6164 45.6197 34.7363C45.5997 34.8562 45.5469 34.9683 45.4672 35.0601L41.3972 39.6201C41.3274 39.6996 41.2774 39.7946 41.2513 39.8971C41.2253 39.9997 41.2238 40.1069 41.2472 40.2101L42.6972 46.1501C42.727 46.2688 42.7228 46.3936 42.6849 46.51C42.647 46.6264 42.577 46.7297 42.483 46.808C42.3889 46.8864 42.2747 46.9366 42.1533 46.9529C42.032 46.9692 41.9086 46.9509 41.7972 46.9001L36.2072 44.4401C36.109 44.3986 36.0023 44.3814 35.896 44.3901C35.7898 44.3989 35.6873 44.4332 35.5972 44.4901L30.3972 47.7001C30.2937 47.7674 30.1733 47.8039 30.0498 47.8052C29.9264 47.8065 29.8052 47.7727 29.7003 47.7077C29.5954 47.6426 29.5112 47.5491 29.4576 47.4379C29.4039 47.3268 29.3829 47.2027 29.3972 47.0801L30.0072 41.0001C30.0163 40.8937 30.0002 40.7867 29.9603 40.6877C29.9203 40.5886 29.8576 40.5004 29.7772 40.4301L25.1172 36.4801C25.022 36.4024 24.9509 36.2993 24.9119 36.1827C24.873 36.0662 24.8679 35.941 24.8972 35.8217C24.9265 35.7024 24.989 35.5938 25.0775 35.5086C25.166 35.4233 25.2769 35.3649 25.3972 35.3401L31.3972 34.0401C31.5012 34.0178 31.5982 33.9707 31.68 33.9027C31.7619 33.8348 31.8261 33.7482 31.8672 33.6501L34.1772 27.9901C34.2263 27.8814 34.3039 27.7881 34.4018 27.7199C34.4998 27.6518 34.6143 27.6116 34.7333 27.6034C34.8523 27.5952 34.9713 27.6193 35.0776 27.6733C35.1839 27.7274 35.2737 27.8092 35.3372 27.9101Z" fill="#F2960F"/>
<path d="M41.7571 46.2101L36.1572 43.7501C36.059 43.7086 35.9522 43.6914 35.846 43.7001C35.7398 43.7088 35.6372 43.7431 35.5471 43.8001L34.2371 44.6101L30.3571 47.0101C30.2523 47.074 30.1316 47.1073 30.0088 47.1064C29.886 47.1055 29.7659 47.0703 29.662 47.0049C29.5581 46.9394 29.4745 46.8462 29.4207 46.7358C29.3668 46.6255 29.3448 46.5023 29.3571 46.3801L29.4471 45.5001L29.7371 42.5501L29.9672 40.3001C29.9763 40.1952 29.9601 40.0896 29.9201 39.9922C29.8801 39.8947 29.8174 39.8083 29.7371 39.7401L26.3972 36.9101L25.0771 35.7901C24.982 35.7124 24.9108 35.6092 24.8719 35.4927C24.8329 35.3762 24.8278 35.251 24.8571 35.1317C24.8865 35.0123 24.949 34.9038 25.0375 34.8185C25.126 34.7333 25.2368 34.6749 25.3571 34.6501L28.9571 33.8601L31.3271 33.3501C31.4315 33.3252 31.5284 33.276 31.6101 33.2065C31.6918 33.137 31.7559 33.0491 31.7971 32.9501L33.7971 28.1501L34.1472 27.3001C34.2024 27.1632 34.3032 27.0495 34.4326 26.9785C34.562 26.9074 34.712 26.8832 34.8571 26.9101C34.9544 26.921 35.0477 26.9548 35.1294 27.0087C35.211 27.0625 35.2788 27.135 35.3271 27.2201L38.3271 32.3801L38.3871 32.4901C38.4405 32.5832 38.5157 32.662 38.6063 32.7195C38.6969 32.777 38.8002 32.8115 38.9072 32.8201L40.0671 32.9001L43.8672 33.1901L44.9972 33.2701C45.1202 33.2795 45.2381 33.3231 45.3375 33.3961C45.4369 33.4691 45.5139 33.5685 45.5597 33.683C45.6055 33.7976 45.6183 33.9227 45.5967 34.0441C45.575 34.1655 45.5198 34.2785 45.4372 34.3701L41.3672 38.9201C41.2968 39.0012 41.2472 39.0982 41.2228 39.2028C41.1984 39.3073 41.1999 39.4162 41.2271 39.5201L42.6671 45.4501C42.7009 45.5707 42.6992 45.6985 42.662 45.8181C42.6249 45.9377 42.554 46.0441 42.4579 46.1244C42.3618 46.2046 42.2445 46.2555 42.1202 46.2707C41.9959 46.2859 41.8698 46.2648 41.7571 46.2101Z" fill="#FCDE24"/>
<path d="M38.3072 32.3699L29.7072 42.5499L29.9372 40.2999C29.9463 40.195 29.9302 40.0894 29.8902 39.992C29.8502 39.8946 29.7874 39.8081 29.7072 39.7399L26.3672 36.9099L28.9272 33.8599L31.2972 33.3499C31.4015 33.325 31.4985 33.2758 31.5802 33.2063C31.6619 33.1368 31.7259 33.0489 31.7672 32.9499L33.7672 28.1499L34.8272 26.9099C34.9244 26.9208 35.0177 26.9546 35.0994 27.0085C35.1811 27.0624 35.2489 27.1348 35.2972 27.2199L38.3072 32.3699Z" fill="#FFE48D"/>
<path d="M43.8474 33.1899L34.2374 44.6099L30.3573 47.0099C30.2525 47.0738 30.1318 47.1072 30.009 47.1062C29.8862 47.1053 29.7661 47.0701 29.6622 47.0047C29.5583 46.9392 29.4747 46.846 29.4209 46.7357C29.367 46.6253 29.345 46.5021 29.3573 46.3799L29.4473 45.4999L40.0473 32.8999L43.8474 33.1899Z" fill="#FFE48D"/>
<path d="M45.7071 20.28L43.7671 22.78C44.7278 23.3513 45.6261 24.0216 46.4471 24.78L48.4071 22.37L45.7071 20.28Z" fill="#FFE48D"/>
<path d="M27.3474 50.76L25.3474 53.27C24.3829 52.6858 23.4726 52.0165 22.6274 51.27L24.5574 48.79C25.415 49.5438 26.3502 50.2042 27.3474 50.76Z" fill="#FFE48D"/>
<path d="M36.4171 17.29L33.6071 20.51C33.8071 20.51 34.0171 20.51 34.2171 20.45C36.5394 20.2824 38.8703 20.6237 41.0471 21.45L43.1671 18.92C41.0352 17.9699 38.7476 17.4175 36.4171 17.29ZM19.2971 39.05L16.7271 42.05C17.3587 44.2324 18.3746 46.2845 19.7271 48.11L21.8271 45.61C20.5163 43.6336 19.6528 41.3948 19.2971 39.05Z" fill="#FCDE24"/>
<path d="M43.1674 18.91L41.0474 21.44C38.8706 20.6137 36.5397 20.2724 34.2174 20.44C34.0174 20.44 33.8074 20.44 33.6074 20.5L36.4174 17.28C38.748 17.4075 41.0356 17.9599 43.1674 18.91Z" fill="#FFE48D"/>
<path d="M21.787 45.57L19.687 48.07C18.3346 46.2445 17.3186 44.1924 16.687 42.01L19.257 39.01C19.6127 41.3548 20.4762 43.5936 21.787 45.57Z" fill="#FFE48D"/>
<path d="M52.3371 42.7101C52.917 42.7101 53.3871 42.24 53.3871 41.6601C53.3871 41.0802 52.917 40.6101 52.3371 40.6101C51.7572 40.6101 51.2871 41.0802 51.2871 41.6601C51.2871 42.24 51.7572 42.7101 52.3371 42.7101Z" fill="#FFF4CD"/>
<path d="M43.3772 18.9999C42.6496 18.666 41.9014 18.3787 41.1372 18.1399L41.0772 13.8599L27.7672 14.0299L27.8272 18.7799C27.0621 19.0975 26.3203 19.4684 25.6072 19.8899L25.5172 12.9399C25.5153 12.7936 25.5426 12.6483 25.5976 12.5126C25.6525 12.377 25.734 12.2537 25.8372 12.1499C25.9386 12.0422 26.061 11.9564 26.1969 11.8979C26.3328 11.8394 26.4793 11.8095 26.6272 11.8099L42.1672 11.6099C42.3143 11.6086 42.4602 11.6363 42.5966 11.6913C42.733 11.7464 42.8572 11.8278 42.9621 11.9309C43.067 12.0339 43.1506 12.1567 43.2081 12.2921C43.2656 12.4275 43.2959 12.5728 43.2972 12.7199L43.3772 18.9999Z" fill="#FCCD1D"/>
<path d="M39.9973 11.72L35.7373 4.05005L30.5073 13.99L32.9273 13.96L38.7873 13.89L39.9973 11.72Z" fill="#18A0FB"/>
<path d="M39.8771 13.88L38.7871 13.89L39.8771 13.88L41.0771 13.86L41.1371 13.76L40.5471 12.7L39.8771 13.88Z" fill="#18A0FB"/>
<path d="M29.4171 13.9999L35.1271 2.94991L34.2671 1.40991L27.9971 13.5899L28.2571 14.0099L29.4171 13.9999Z" fill="#18A0FB"/>
<path d="M38.7871 13.89L39.8771 13.88L40.5471 12.7L39.9971 11.72L38.7871 13.89Z" fill="white"/>
<path d="M30.497 13.99H30.507L35.737 4.04995L35.127 2.94995L29.417 14H29.427L30.497 13.99Z" fill="white"/>
<path d="M30.5073 13.99L32.9273 13.96L30.5073 13.99Z" fill="#18A0FB"/>
<path d="M29.4073 14.0101L29.4173 14.0001L28.2573 14.0101L27.9973 13.5901L27.7773 14.0301L29.4073 14.0101Z" fill="#18A0FB"/>
<path d="M30.4972 13.99L29.4272 14H29.4172L29.4072 14.01L30.5072 13.99H30.4972Z" fill="white"/>
<path d="M40.5474 12.7L41.1374 13.76L47.5474 2.68002L46.5474 2.27002L40.5474 12.7Z" fill="#18A0FB"/>
<path d="M39.997 11.7199L45.507 1.89993C43.0109 1.0209 40.4196 0.440191 37.787 0.169922L35.707 4.04993L39.997 11.7199Z" fill="#18A0FB"/>
<path d="M36.6171 0.0700073C36.0771 0.0700073 35.5371 0.01 34.9871 0L34.2671 1.41L35.1271 2.94998L36.6171 0.0700073Z" fill="#18A0FB"/>
<path d="M40.5471 12.6999L46.5471 2.2699L45.5471 1.8999L40.0371 11.7199L40.5471 12.6999Z" fill="white"/>
<path d="M37.7874 0.170044L36.6174 0.0700684L35.1274 2.95004L35.7374 4.05005L37.7874 0.170044Z" fill="white"/>
<circle opacity="0.6" cx="35" cy="35" r="34" fill="black"/>
</svg>
