<svg xmlns="http://www.w3.org/2000/svg" viewBox="0 0 45 65"><defs><style>.cls-1{fill:#189ffa;}.cls-2{fill:#6cc2fb;}.cls-3{fill:#58bafb;}.cls-4{fill:#d97c3c;}.cls-5{fill:#fe9a50;}.cls-6{fill:#c85506;}.cls-7{fill:#feb348;}.cls-8{fill:#19a0fa;}.cls-9{fill:#fdf1ca;}.cls-10{fill:#f18c43;}.cls-11{fill:#fe9a4f;}.cls-12{fill:#da7c3b;}</style></defs><g id="Capa_2" data-name="Capa 2"><g id="Capa_1-2" data-name="Capa 1"><path class="cls-1" d="M15.94,13.33l-1.14,2.5h0c1.26.26,2-.23,2.53-1.44,1.38-3,3-5.81,4.43-8.72C22.69,3.86,23.59,2,24.5.18h0c-.36-.06-.75.13-1.07-.18h-.71c-.34.23-.39.67-.7.93-.37-.15-.41-.66-.78-.79l0,.07c-.52-.16-1.1.19-1.58-.2h-.89c-.09.23-.29.17-.46.19a38.55,38.55,0,0,0-10,2.37c-1,.39-1,.38-.46,1.29l5.78,9.44,1.16,0Z"/><path class="cls-2" d="M21.21.21l0-.07,0-.13H19.63C20.11.4,20.69.05,21.21.21Z"/><path class="cls-3" d="M24.49.19h0l0-.17H23.42C23.74.32,24.13.13,24.49.19Z"/><path class="cls-4" d="M44.52,37.15a21.34,21.34,0,0,0-6.66-11.84l-2.15,2.57h0A14.36,14.36,0,0,0,37.46,30a18.62,18.62,0,0,1,3.8,8.88,18.35,18.35,0,0,1-2.42,12,19.23,19.23,0,0,1-4.22,4.9h0a7.07,7.07,0,0,1-2.56,1.64l.17-.12-.18.11a20.57,20.57,0,0,1-5,2,16.42,16.42,0,0,1-10.52-1h0c-.45.34-.75-.14-1.1-.25a8.89,8.89,0,0,1-1.23-.52A15.12,15.12,0,0,0,12,60.29h0a24,24,0,0,0,7.48,2.76A20.47,20.47,0,0,0,31.67,61.7a21.63,21.63,0,0,0,12.89-16,1.73,1.73,0,0,1,.16-.3h0A22.83,22.83,0,0,0,44.52,37.15ZM42.09,48.29a1.06,1.06,0,0,1-1-1.15,1.1,1.1,0,0,1,1.16-1.2,1.18,1.18,0,0,1,1.16,1.16A1.21,1.21,0,0,1,42.09,48.29Z"/><path class="cls-1" d="M17.81,15.77h8.41A1.3,1.3,0,0,0,27.47,15q3.29-6,6.69-12c.41-.7.23-.89-.45-1.09a45.54,45.54,0,0,0-7-1.58.92.92,0,0,0-1.12.58C24,4,22.34,7.07,20.72,10.16,19.75,12,18.8,13.85,17.81,15.77Z"/><path class="cls-5" d="M31.67,61.7a20.47,20.47,0,0,1-12.14,1.35,24,24,0,0,1-7.48-2.76h0A15.64,15.64,0,0,1,9,57.92H9a14.69,14.69,0,0,1-3.26-3.64h0a15.3,15.3,0,0,1-2.64-4.54,7,7,0,0,1-.77-2.38h0a23.82,23.82,0,0,1-.75-4.44A21.22,21.22,0,0,1,4.13,31a20.6,20.6,0,0,1,8.09-8.38h0c0-.19,0-.37,0-.54l-.39.23A22.56,22.56,0,0,0,.51,47a22.39,22.39,0,0,0,25,17.75A21.9,21.9,0,0,0,41.7,54.11a19.73,19.73,0,0,0,3-8.76h0a1.73,1.73,0,0,0-.16.3A21.63,21.63,0,0,1,31.67,61.7Z"/><path class="cls-6" d="M12.22,22.6h0c0,.6,0,1.2,0,1.81s.22.76.75.75,1.07,0,1.6,0l-.07.05.09,0a.47.47,0,0,0,.16,0h0c0-1.4,0-2.8,0-4.21,0-1.69-.12-3.38,0-5.06v0l1.14-2.5H14.79l-1.16,0c-1.22.29-1.43.55-1.43,1.79,0,2.32,0,4.65,0,7,0,.17,0,.35,0,.54Z"/><path class="cls-4" d="M14.77,25.14a18.36,18.36,0,0,1,5.86-1.84,3,3,0,0,0,.82-.32s0,0,0,0C22.27,22,23.1,21,23.91,20a2,2,0,0,0,.24-.46h0c-.2,0-.41,0-.62,0a26.81,26.81,0,0,0-8.75,1.4h0c0,1.41,0,2.81,0,4.21Z"/><path class="cls-7" d="M23.91,20c-.81,1-1.64,2-2.47,2.94,0,0,0,0,0,0h0a.56.56,0,0,0,.58.18,16.61,16.61,0,0,1,7.19.94.57.57,0,0,0,.26,0,.6.6,0,0,0,.23-.06v0l.18-.18h0c.52-.62,1-1.25,1.57-1.87.33-.38.51-.77-.16-.87-1.53-.24-1.7-1.24-1.6-2.54.07-1,0-1.93-.05-2.91h0a.11.11,0,0,0-.08,0l-.05,0v0c0,1.32,0,2.64.07,4,0,.57-.11.75-.72.57a17.36,17.36,0,0,0-4.75-.73h0A2,2,0,0,1,23.91,20Z"/><path class="cls-6" d="M29.68,15.67h0c0,1,.12,1.95.05,2.91-.1,1.3.07,2.3,1.6,2.54.67.1.49.49.16.87-.54.62-1,1.25-1.57,1.87.63.38,1.33.13,2,.16.38,0,.34-.35.34-.62v-1.9h0c0-2.25-.13-4.5-.14-6.76a1.57,1.57,0,0,0-1-1.64A20,20,0,0,0,29.68,15.67Z"/><path class="cls-8" d="M29.68,15.67h0a20,20,0,0,1,1.45-2.55c1.77-3.12,3.56-6.24,5.3-9.37.13-.23.68-.53.08-.87s-.79-.31-1.12.29C34,5.78,32.45,8.37,31,11c-.87,1.54-1.76,3.08-2.68,4.69l1.25.11v0l.05,0A.11.11,0,0,1,29.68,15.67Z"/><path class="cls-7" d="M32.79,25.68h0a16.65,16.65,0,0,0,2.89,2.19l2.15-2.57A12.06,12.06,0,0,0,34.8,23a24.89,24.89,0,0,0-2,2.71Z"/><path class="cls-4" d="M32.26,23.41c0,.27,0,.63-.34.62-.67,0-1.37.22-2-.16h0l-.18.18v0h0a10.2,10.2,0,0,0,3,1.61h0a24.89,24.89,0,0,1,2-2.71,12.49,12.49,0,0,0-2.54-1.44h0Z"/><path class="cls-6" d="M34.44,55.58a20.31,20.31,0,0,0,3.65-4.71,16.73,16.73,0,0,0,1.81-10,16.27,16.27,0,0,0-8.57-12.72,15.83,15.83,0,0,0-16.17.05A16,16,0,0,0,7,39.45a16.62,16.62,0,0,0,3.47,14.23,18.07,18.07,0,0,0,4,3.54h0a12.15,12.15,0,0,0,2.16,1.09h0a16.42,16.42,0,0,0,10.52,1,20.57,20.57,0,0,0,5-2l.18-.11ZM14,43.26c-.7-.56-1.34-1.19-2-1.75a1,1,0,0,1-.46-1.08c-.28-.73,0-1.15.72-1.29a34.08,34.08,0,0,1,3.59-.73,9.12,9.12,0,0,1,2.25-.54,1.56,1.56,0,0,0,1.3-1.06c.71-1.86,1.51-3.68,2.28-5.52.16-.38.31-.82.82-.85s.67.35.86.69l3.14,5.5h0a1.59,1.59,0,0,0,1.43.55,2.09,2.09,0,0,1,1.3.16,27.6,27.6,0,0,1,3.4.22h.88c.82,0,1.27.35,1.11,1.24.23.55-.1.9-.43,1.27-1.34,1.51-2.66,3-4,4.56a1,1,0,0,0-.28.55h0v0c.47,1.92.94,3.83,1.39,5.76a6.25,6.25,0,0,1,.05,1.15h0c0,.94-.41,1.17-1.34.77-1.62-.71-3.23-1.41-4.83-2.17a2.19,2.19,0,0,0-2.49.09c-1.54,1.07-3.17,2-4.79,3-.93.55-1.27.33-1.32-.78h0l0-1.64h0l.33-3.46h0l.14-2.16h0C16,45,15.07,44.07,14,43.26Z"/><path class="cls-5" d="M32.82,25.69h0a10.2,10.2,0,0,1-3-1.61h0a.6.6,0,0,1-.23.06.57.57,0,0,1-.26,0A16.61,16.61,0,0,0,22,23.15a.56.56,0,0,1-.58-.18h0a3,3,0,0,1-.82.32,18.36,18.36,0,0,0-5.86,1.84h0a.47.47,0,0,1-.16,0l-.09,0a22.8,22.8,0,0,0-4.62,3.68A18.89,18.89,0,0,0,5.16,39.23a25,25,0,0,0,0,5h0a16.55,16.55,0,0,0,2.09,6.17l.62,1.09h0L11,55.38h0c.41-.19.58.2.8.38a17.21,17.21,0,0,0,2.44,1.62l.18-.16h0a18.07,18.07,0,0,1-4-3.54A16.62,16.62,0,0,1,7,39.45a16,16,0,0,1,8.21-11.27,15.83,15.83,0,0,1,16.17-.05A16.27,16.27,0,0,1,39.9,40.85a16.73,16.73,0,0,1-1.81,10,20.31,20.31,0,0,1-3.65,4.71l.18.16h0a19.23,19.23,0,0,0,4.22-4.9,18.35,18.35,0,0,0,2.42-12A18.62,18.62,0,0,0,37.46,30a14.36,14.36,0,0,1-1.73-2.08h0A16.65,16.65,0,0,1,32.82,25.69Z"/><path class="cls-7" d="M14.21,57.38h0a17.21,17.21,0,0,1-2.44-1.62c-.22-.18-.39-.57-.8-.38h0L9,57.92H9A15.64,15.64,0,0,0,12,60.29h0a15.12,15.12,0,0,1,2.17-2.74Z"/><path class="cls-9" d="M42.27,45.94a1.1,1.1,0,0,0-1.16,1.2,1.06,1.06,0,0,0,1,1.15,1.21,1.21,0,0,0,1.34-1.19A1.18,1.18,0,0,0,42.27,45.94Z"/><path class="cls-10" d="M34.44,55.58l-2.21,1.69-.17.12a7.07,7.07,0,0,0,2.56-1.64h0Z"/><path class="cls-10" d="M14.39,57.22h0l-.18.16h0v.17a8.89,8.89,0,0,0,1.23.52c.35.11.65.59,1.1.25h0A12.15,12.15,0,0,1,14.39,57.22Z"/><path class="cls-4" d="M4.41,45a10.41,10.41,0,0,1,.78-.71h0a25,25,0,0,1,0-5A18.89,18.89,0,0,1,9.89,28.88a22.8,22.8,0,0,1,4.62-3.68l.07-.05c-.53,0-1.07,0-1.6,0s-.76-.21-.75-.75,0-1.21,0-1.81h0A20.6,20.6,0,0,0,4.13,31,21.22,21.22,0,0,0,1.56,42.92a23.82,23.82,0,0,0,.75,4.44C3,46.56,3.7,45.76,4.41,45Z"/><path class="cls-7" d="M7.9,51.55h0l-.62-1.09a16.55,16.55,0,0,1-2.09-6.17h0a10.41,10.41,0,0,0-.78.71c-.71.78-1.4,1.58-2.1,2.38h0a7,7,0,0,0,.77,2.38,15.3,15.3,0,0,0,2.64,4.54h0Z"/><path class="cls-4" d="M11,55.38h0L7.9,51.55h0L5.72,54.27h0A14.69,14.69,0,0,0,9,57.92H9Z"/><path class="cls-7" d="M16.64,44.74a1,1,0,0,1,.44,1h0l-.14,2.16c1.29-1.26,2.34-2.73,3.53-4.09,1.53-1.77,3-3.59,4.51-5.4l1.51-1.78h0l-3.14-5.5c-.19-.34-.37-.72-.86-.69s-.66.47-.82.85c-.77,1.84-1.57,3.66-2.28,5.52a1.56,1.56,0,0,1-1.3,1.06,9.12,9.12,0,0,0-2.25.54c-.78,1.21-1.86,2.16-2.7,3.3C14.3,42.72,15.46,43.74,16.64,44.74Z"/><path class="cls-7" d="M27,39c-2.3,2.66-4.54,5.37-6.79,8.07q-1.47,1.77-2.9,3.57a3.27,3.27,0,0,1-.68.71h0l0,1.64h0a1.06,1.06,0,0,0,.59.21,1,1,0,0,0,.59-.17c1.53-1,3.14-1.82,4.58-2.93A35.11,35.11,0,0,1,25,46.81c2.06-2.55,4.18-5.05,6.27-7.58.45-.55,1.1-1,1.36-1.67h0a27.6,27.6,0,0,0-3.4-.22C27.93,37.14,27.58,38.3,27,39Z"/><path class="cls-5" d="M31.26,39.23c-2.09,2.53-4.21,5-6.27,7.58a35.11,35.11,0,0,0-2.65,3.3c1.27-1.09,2.44-.36,3.61.18s2.51,1.16,3.77,1.71c.52.22,1.06.49,1.63.1h0A6.25,6.25,0,0,0,31.3,51c-.45-1.93-.92-3.84-1.39-5.76v0A.92.92,0,0,1,30,43.94c1.51-1.73,3.06-3.43,4.59-5.14h0c.16-.89-.29-1.24-1.11-1.24h-.88C32.36,38.27,31.71,38.68,31.26,39.23Z"/><path class="cls-5" d="M20.47,43.81c-1.19,1.36-2.24,2.83-3.53,4.09h0l-.33,3.46h0a3.27,3.27,0,0,0,.68-.71q1.42-1.8,2.9-3.57c2.25-2.7,4.49-5.41,6.79-8.07.6-.71.95-1.87,2.24-1.68a2.09,2.09,0,0,0-1.3-.16,1.59,1.59,0,0,1-1.43-.55h0L25,38.41C23.48,40.22,22,42,20.47,43.81Z"/><path class="cls-4" d="M29.72,52c-1.26-.55-2.51-1.13-3.77-1.71s-2.34-1.27-3.61-.18c-1.44,1.11-3.05,2-4.58,2.93a1,1,0,0,1-.59.17,1.06,1.06,0,0,1-.59-.21h0c.05,1.11.39,1.33,1.32.78,1.62-1,3.25-1.91,4.79-3a2.19,2.19,0,0,1,2.49-.09c1.6.76,3.21,1.46,4.83,2.17.93.4,1.3.17,1.34-.77h0C30.78,52.49,30.24,52.22,29.72,52Z"/><path class="cls-11" d="M13.14,41.71c.84-1.14,1.92-2.09,2.7-3.3a34.08,34.08,0,0,0-3.59.73c-.74.14-1,.56-.72,1.29Z"/><path class="cls-12" d="M30,43.94a.92.92,0,0,0-.11,1.23h0a1,1,0,0,1,.28-.55c1.33-1.52,2.65-3.05,4-4.56.33-.37.66-.72.43-1.27h0C33.08,40.51,31.53,42.21,30,43.94Z"/><path class="cls-12" d="M17.08,45.74a1,1,0,0,0-.44-1c-1.18-1-2.34-2-3.5-3l-1.61-1.28A1,1,0,0,0,12,41.51c.71.56,1.35,1.19,2,1.75,1,.81,1.93,1.77,3,2.48Z"/></g></g></svg>