<?xml version="1.0" encoding="utf-8"?>
<!-- Generator: Adobe Illustrator 26.0.3, SVG Export Plug-In . SVG Version: 6.00 Build 0)  -->
<svg version="1.0" id="katman_1" xmlns="http://www.w3.org/2000/svg" xmlns:xlink="http://www.w3.org/1999/xlink" x="0px" y="0px"
	 viewBox="0 0 800 600" style="enable-background:new 0 0 800 600;" xml:space="preserve">
<style type="text/css">
	.st0{fill:#7950DD;}
</style>
<path class="st0" d="M192.1,273.3c-2.8-1.7-6.4-1.7-9.5,0l-21.7,13.2l-14.8,8.6l-21.7,13.2c-2.8,1.7-6.4,1.7-9.5,0l-17.3-10.3
	c-2.8-1.7-4.7-4.9-4.7-8.3v-20.3c0-3.4,1.7-6.6,4.7-8.3l17-10c2.8-1.7,6.4-1.7,9.5,0l17,10c2.8,1.7,4.7,4.9,4.7,8.3v13.2l14.8-8.9
	v-13.2c0-3.4-1.7-6.6-4.7-8.3l-31.5-18.9c-2.8-1.7-6.4-1.7-9.5,0l-32,18.9c-3.1,1.7-4.7,4.9-4.7,8.3v38c0,3.4,1.7,6.6,4.7,8.3
	l32,18.9c2.8,1.7,6.4,1.7,9.5,0l21.7-12.9l14.8-8.9l21.7-12.9c2.8-1.7,6.4-1.7,9.5,0l17,10c2.8,1.7,4.7,4.9,4.7,8.3v20.3
	c0,3.4-1.7,6.6-4.7,8.3l-17,10.3c-2.8,1.7-6.4,1.7-9.5,0l-17-10c-2.8-1.7-4.7-4.9-4.7-8.3v-13.2l-14.8,8.9v13.2
	c0,3.4,1.7,6.6,4.7,8.3l32,18.9c2.8,1.7,6.4,1.7,9.5,0l32-18.9c2.8-1.7,4.7-4.9,4.7-8.3v-38c0-3.4-1.7-6.6-4.7-8.3L192.1,273.3z"/>
<path d="M288,355.1v-31.6c3.4,4.3,9.6,6.7,16.7,6.7c18.2,0,30.6-13.1,30.6-33c0-19.9-11.3-33-29.1-33c-8.2,0-14.5,3-18.2,8v-7h-17.5
	v89.8H288z M302.6,315c-9.4,0-15.6-7.1-15.6-17.8c0-10.8,6.2-17.9,15.6-17.9c9.2,0,15.5,7.1,15.5,17.9
	C318,307.9,311.7,315,302.6,315z"/>
<path d="M375,330.2c19.5,0,33.5-14,33.5-33s-14-33-33.5-33c-19.5,0-33.5,14-33.5,33S355.5,330.2,375,330.2z M375,315
	c-9.4,0-15.9-7.2-15.9-17.8c0-10.7,6.4-17.9,15.9-17.9c9.4,0,15.9,7.2,15.9,17.9C390.9,307.8,384.4,315,375,315z"/>
<path d="M436.5,329.2v-91.7h-17.5v91.7H436.5z"/>
<path d="M489.1,265.3l-13.2,41.2l-13.3-41.2h-17.9l23,63.4l-9.3,26.4h16.7l8.9-26.1l23-63.7H489.1z"/>
<path d="M556.3,271.6c-3.5-4.4-9.8-7.4-17.5-7.4c-18.5,0-29.7,13.1-29.7,33c0,19.9,11.2,33,30,33c7.4,0,14.1-2.8,17.4-7.5v8.4
	c0,6-3.9,10.1-9.2,10.1H518v13.8h32c14.3,0,23.9-8.8,23.9-22.1v-67.7h-17.6V271.6z M541.8,315c-9.3,0-15.5-7-15.5-17.8
	s6.2-17.9,15.5-17.9c9.4,0,15.6,7.1,15.6,17.9S551.2,315,541.8,315z"/>
<path d="M618,330.2c19.5,0,33.5-14,33.5-33s-14-33-33.5-33c-19.5,0-33.5,14-33.5,33S598.5,330.2,618,330.2z M618,315
	c-9.4,0-15.9-7.2-15.9-17.8c0-10.7,6.4-17.9,15.9-17.9c9.4,0,15.9,7.2,15.9,17.9C633.8,307.8,627.4,315,618,315z"/>
<path d="M678.6,329.2v-35c0-8.2,5.4-14.2,13.1-14.2c7.3,0,12.2,5.6,12.2,13.3v35.9h17.6v-39.8c0-14.7-9.3-25.1-23.7-25.1
	c-8.7,0-15.7,3.7-19.3,9.9v-8.9H661v63.9H678.6z"/>
</svg>
